<svg xmlns="http://www.w3.org/2000/svg" width="40" height="40" viewBox="0 0 40 40">
    <path fill="#FFF" fill-rule="nonzero" d="M31.883 29.362l-.801-1.02.801-1.813.802 1.812-.802 1.02zm-1.165-13.34l-3.416 1.867v-.333a.871.871 0 0 0-.464-.776 16.196 16.196 0 0 0-7.287-1.736c-2.522 0-5.023.6-7.231 1.736a.872.872 0 0 0-.462.775v.332l-.293-.155-3.15-1.714a.296.296 0 0 1 0-.52l10.733-5.81a.839.839 0 0 1 .806.001L30.718 15.5a.297.297 0 0 1 0 .521zm-4.773 7.534a.567.567 0 0 1-.56.572h-11.61a.566.566 0 0 1-.559-.572v-5.179c0-.288.167-.548.424-.664a14.484 14.484 0 0 1 5.911-1.246c2.047 0 4.11.432 5.968 1.248a.723.723 0 0 1 .426.664v5.177zm8.134 4.554l-1.517-3.469v-8.023l.102-.056a.9.9 0 0 0 .467-.808.9.9 0 0 0-.47-.806L20.007 8.117a.949.949 0 0 0-.914 0L6.47 14.949a.898.898 0 0 0-.47.807.9.9 0 0 0 .469.807l5.39 2.932v5.288c0 .424.329.768.734.768h13.974c.405 0 .735-.344.735-.768v-5.288l3.903-2.134-.017 7.36-1.5 3.39a.848.848 0 0 0 .129.89l1.797 2.1c.14.164.4.162.54 0L33.95 29a.848.848 0 0 0 .129-.89z"/>
</svg>
