<svg xmlns="http://www.w3.org/2000/svg" width="40" height="40" viewBox="0 0 40 40">
    <path fill="#FFF" fill-rule="nonzero" d="M26.111 24.444a2.78 2.78 0 0 1 2.778 2.778A2.78 2.78 0 0 1 26.11 30a2.78 2.78 0 0 1-2.778-2.778 2.78 2.78 0 0 1 2.778-2.778zm-8.889 0A2.78 2.78 0 0 1 20 27.222 2.78 2.78 0 0 1 17.222 30a2.78 2.78 0 0 1-2.778-2.778 2.78 2.78 0 0 1 2.778-2.778zm8.89 1.667a1.112 1.112 0 0 0 0 2.222 1.112 1.112 0 0 0 0-2.222zm-8.89 0a1.112 1.112 0 0 0 0 2.222 1.112 1.112 0 0 0 0-2.222zM13.217 10c.346 0 .647.259.728.625l.673 3.068h14.634c.23 0 .447.115.589.313a.873.873 0 0 1 .137.698l-1.82 8.01c-.083.364-.383.62-.726.62H15.786c-.347 0-.648-.26-.728-.626l-2.432-11.079h-1.878c-.413 0-.748-.364-.748-.814 0-.45.335-.815.748-.815h2.469zm15.08 5.323H14.975l1.4 6.381h10.47l1.45-6.381z"/>
</svg>
