<svg xmlns="http://www.w3.org/2000/svg" width="40" height="40" viewBox="0 0 40 40">
    <path fill="#FFF" fill-rule="nonzero" d="M33.094 15.158l-6.02-6.003a.533.533 0 0 0-.742-.01l-2.697 2.533-.006.005c-.52.519-1.033.75-1.661.75-1.286 0-2.27.362-3.088 1.134-.67-.633-1.43-.96-2.49-1.07l-2.661-2.652a.533.533 0 0 0-.753 0l-6.82 6.798a.528.528 0 0 0-.012.738l.012.013 4.444 4.423-.188.187a1.852 1.852 0 0 0 0 2.626c.345.343.819.547 1.337.542a1.858 1.858 0 0 0 1.882 1.876 1.859 1.859 0 0 0 1.882 1.875c-.007.51.191.982.544 1.334a1.869 1.869 0 0 0 2.635 0l.188-.188.188.188a1.869 1.869 0 0 0 2.634 0 1.84 1.84 0 0 0 .546-1.333c.508.006.982-.19 1.336-.543.368-.367.55-.85.545-1.332.516.005.987-.195 1.337-.543a1.84 1.84 0 0 0 .545-1.334 1.86 1.86 0 0 0 1.337-.542c.728-.726.728-1.9 0-2.626l-.188-.187c3.71-3.695-.983.988 5.934-5.909a.53.53 0 0 0 0-.75zm-25.809 1.86l6.067-6.047 2.045 2.038-6.066 6.047-2.046-2.038zm3.88 6.861a.794.794 0 0 1 0-1.125l1.882-1.876a.801.801 0 0 1 1.129 0 .793.793 0 0 1 0 1.126l-1.882 1.875a.802.802 0 0 1-1.13 0zm1.882 1.876a.793.793 0 0 1 0-1.125l1.881-1.876a.8.8 0 0 1 1.13 0 .793.793 0 0 1 0 1.125l-1.882 1.876a.801.801 0 0 1-1.13 0zm1.881 1.876a.793.793 0 0 1 0-1.125l1.882-1.876a.8.8 0 0 1 1.13 0 .793.793 0 0 1-.001 1.125l-1.881 1.876a.802.802 0 0 1-1.13 0zm1.882 1.876a.793.793 0 0 1 0-1.126l1.882-1.875a.8.8 0 0 1 1.129 0 .794.794 0 0 1 0 1.125l-1.882 1.876a.801.801 0 0 1-1.129 0zm4.14 0a.8.8 0 0 1-1.13 0l-.188-.188.941-.938c.064-.063.121-.131.175-.201l.201.2v.001h.001a.793.793 0 0 1 0 1.126zm5.645-5.628a.802.802 0 0 1-1.13 0l-2.445-2.438a.533.533 0 0 0-.753 0 .53.53 0 0 0 0 .75l2.446 2.439a.793.793 0 0 1 0 1.125.8.8 0 0 1-1.129 0l-2.446-2.439a.534.534 0 0 0-.752 0 .53.53 0 0 0 0 .75l2.445 2.44a.795.795 0 0 1-.564 1.358c-.506 0-.669-.397-1.149-.815a1.84 1.84 0 0 0-.544-1.293 1.851 1.851 0 0 0-1.337-.544 1.86 1.86 0 0 0-1.882-1.875 1.858 1.858 0 0 0-1.881-1.877 1.84 1.84 0 0 0-.546-1.332 1.869 1.869 0 0 0-2.634 0l-.941.938-1.269-1.26 6.264-6.245c.776.088 1.298.31 1.777.754l-1.504 1.499a2.121 2.121 0 0 0 0 3.001c.83.827 2.182.827 3.011 0l1.506-1.5 5.457 5.44a.795.795 0 0 1 0 1.124zm-.188-2.813l-4.516-4.502.376-.375a.53.53 0 0 0 0-.75.534.534 0 0 0-.753 0l-2.634 2.626a1.069 1.069 0 0 1-1.506 0 1.06 1.06 0 0 1 0-1.5l2.167-2.16c.632-.63 1.38-.91 2.427-.91.752 0 1.402-.226 2.011-.704l5.3 5.42c-3.464 3.445-2.78 2.765-2.872 2.855zm3.625-3.605l-5.267-5.387 1.921-1.804 5.28 5.263-1.934 1.928z"/>
</svg>
