<svg xmlns="http://www.w3.org/2000/svg" width="40" height="40" viewBox="0 0 40 40">
    <g fill="#FFF" fill-rule="nonzero">
        <path d="M30.924 19.969a7.241 7.241 0 0 0-2.332-1.54 4.174 4.174 0 0 0 1.5-3.1 4.163 4.163 0 0 0-1.202-3.025A4.311 4.311 0 0 0 25.85 11h-.06c-.76 0-1.412.26-1.963.504-.27.122-.44.341-.46.604a.75.75 0 0 0 .34.679c.25.162.576.162.894.001.273-.141.703-.31 1.187-.31 1.513 0 2.744 1.212 2.744 2.702 0 1.489-1.23 2.702-2.744 2.702-.29 0-.537.083-.713.24a.737.737 0 0 0-.253.55c0 .375.303.78.966.78 2.92 0 5.4 2.233 5.645 5.084a.793.793 0 0 0 .797.723.822.822 0 0 0 .591-.256.786.786 0 0 0 .208-.593 7.08 7.08 0 0 0-2.104-4.441M16.504 20.293c-2.197 0-3.983-1.758-3.983-3.92s1.786-3.92 3.983-3.92c2.198 0 3.985 1.758 3.985 3.92s-1.787 3.92-3.985 3.92m3.235.55c1.402-.993 2.26-2.583 2.302-4.276a5.349 5.349 0 0 0-1.545-3.89 5.544 5.544 0 0 0-3.91-1.676l-.08-.001a5.554 5.554 0 0 0-3.894 1.574 5.344 5.344 0 0 0-1.645 3.86c0 1.748.858 3.387 2.303 4.41a9.494 9.494 0 0 0-3.507 2.19 9.284 9.284 0 0 0-2.76 5.83.765.765 0 0 0 .207.59.818.818 0 0 0 .594.257c.42 0 .765-.312.801-.726.346-3.99 3.815-7.115 7.899-7.115 4.085 0 7.555 3.125 7.9 7.115.037.414.38.726.8.726a.818.818 0 0 0 .595-.257.761.761 0 0 0 .206-.59 9.276 9.276 0 0 0-2.759-5.83 9.494 9.494 0 0 0-3.507-2.19"/>
    </g>
</svg>
