<svg xmlns="http://www.w3.org/2000/svg" width="40" height="40" viewBox="0 0 40 40">
    <path fill="#FFF" fill-rule="nonzero" d="M21.094 7c.788 0 1.456.565 1.586 1.342l.304 1.803c.636.19 1.25.445 1.836.755l1.51-1.076a1.594 1.594 0 0 1 2.064.174l1.618 1.619c.56.554.63 1.428.174 2.069l-1.075 1.505c.299.565.543 1.157.733 1.77l1.825.31c.776.13 1.341.798 1.33 1.586v2.286c0 .788-.564 1.456-1.34 1.586l-1.826.304c-.184.609-.434 1.201-.733 1.771l1.075 1.51c.457.64.38 1.515-.174 2.07l-1.618 1.618a1.594 1.594 0 0 1-1.135.472c-.337 0-.663-.103-.934-.298L24.809 29.1c-.564.3-1.157.544-1.77.734l-.31 1.825A1.605 1.605 0 0 1 21.143 33h-2.292a1.604 1.604 0 0 1-1.586-1.341l-.304-1.825a10.283 10.283 0 0 1-1.716-.706l-1.527 1.086a1.594 1.594 0 0 1-2.064-.174l-1.618-1.618a1.602 1.602 0 0 1-.174-2.07l1.07-1.488a10.051 10.051 0 0 1-.744-1.765l-1.847-.315A1.604 1.604 0 0 1 7 21.198V18.91c0-.787.565-1.455 1.341-1.586l1.804-.304a10.06 10.06 0 0 1 .722-1.776L9.781 13.72a1.608 1.608 0 0 1 .174-2.07l1.623-1.618a1.586 1.586 0 0 1 1.136-.472c.336 0 .662.103.934.298l1.494 1.076a10.068 10.068 0 0 1 1.765-.745l.314-1.846A1.605 1.605 0 0 1 18.807 7zm.011 1.461h-2.287a.14.14 0 0 0-.14.12l-.392 2.297a.743.743 0 0 1-.537.587 8.61 8.61 0 0 0-2.27.956.744.744 0 0 1-.805-.033l-1.873-1.336a.133.133 0 0 0-.082-.027.137.137 0 0 0-.103.043l-1.619 1.619a.148.148 0 0 0-.016.185l1.352 1.9a.725.725 0 0 1 .039.793 8.694 8.694 0 0 0-.93 2.281.733.733 0 0 1-.591.544l-2.265.38a.14.14 0 0 0-.12.141v2.287c0 .07.05.13.12.14l2.297.392c.283.049.51.26.587.538a8.63 8.63 0 0 0 .956 2.27.744.744 0 0 1-.033.804l-1.336 1.874a.147.147 0 0 0 .016.184l1.619 1.619a.145.145 0 0 0 .103.044.162.162 0 0 0 .081-.028l1.902-1.352a.715.715 0 0 1 .423-.136c.125 0 .255.033.37.098.7.402 1.45.711 2.226.912a.73.73 0 0 1 .538.587l.38 2.281c.011.07.07.12.141.12h2.287a.14.14 0 0 0 .141-.12l.386-2.281a.72.72 0 0 1 .537-.587 8.69 8.69 0 0 0 2.276-.945.735.735 0 0 1 .799.033l1.884 1.341a.131.131 0 0 0 .082.027.138.138 0 0 0 .103-.043l1.619-1.619a.148.148 0 0 0 .016-.184l-1.342-1.89a.734.734 0 0 1-.032-.799 8.718 8.718 0 0 0 .945-2.275.729.729 0 0 1 .586-.538l2.282-.38c.07-.011.12-.071.12-.142h.004v-2.286a.14.14 0 0 0-.12-.141l-2.28-.386a.72.72 0 0 1-.587-.538 8.69 8.69 0 0 0-.945-2.275.734.734 0 0 1 .033-.8l1.341-1.884a.147.147 0 0 0-.016-.184l-1.619-1.619a.146.146 0 0 0-.103-.043.164.164 0 0 0-.081.027l-1.874 1.347a.734.734 0 0 1-.798.033 8.822 8.822 0 0 0-2.33-.957.735.735 0 0 1-.544-.591l-.38-2.265a.14.14 0 0 0-.141-.12zm-.95 6.097c2.99 0 5.418 2.47 5.418 5.51 0 3.039-2.428 5.508-5.417 5.508-2.99 0-5.417-2.47-5.417-5.509 0-3.04 2.428-5.509 5.417-5.509zm0 1.44c-2.207 0-4 1.824-4 4.07 0 2.244 1.793 4.068 4 4.068 2.208 0 4.002-1.824 4.002-4.069s-1.794-4.07-4.001-4.07z"/>
</svg>
