<svg xmlns="http://www.w3.org/2000/svg" width="40" height="40" viewBox="0 0 40 40">
    <g fill="#FFF" fill-rule="nonzero">
        <path d="M26.76 15.24a.816.816 0 0 0-1.036-.098c-1.222.832-7.35 5.02-8.008 5.678a2.452 2.452 0 0 0 0 3.464 2.442 2.442 0 0 0 1.732.716c.627 0 1.255-.239 1.732-.716.659-.659 4.846-6.786 5.678-8.008a.817.817 0 0 0-.097-1.037zm-6.735 7.89a.817.817 0 0 1-1.154-1.155c.256-.253 1.995-1.494 4.136-2.982-1.488 2.14-2.729 3.88-2.982 4.136z"/>
        <path d="M13.709 25.72l-.993.474a8.284 8.284 0 0 1-.542-7.145l1.138.534a.817.817 0 0 0 1.073-.37.779.779 0 0 0-.378-1.048l-1.123-.527a8.721 8.721 0 0 1 6.607-4.03v1.183c0 .434.36.786.804.786a.795.795 0 0 0 .804-.786v-1.183a8.743 8.743 0 0 1 2.766.712.812.812 0 0 0 1.064-.393.78.78 0 0 0-.403-1.04A10.416 10.416 0 0 0 20.295 12c-2.75 0-5.335 1.047-7.28 2.948-1.944 1.9-3.015 4.428-3.015 7.116 0 1.986.603 3.918 1.744 5.587a.81.81 0 0 0 1.021.27l1.65-.787c.398-.19.564-.661.37-1.051a.813.813 0 0 0-1.076-.362zM29.075 17.483a.819.819 0 1 0-1.494.676 8.806 8.806 0 0 1 .78 3.643c0 1.515-.39 2.994-1.132 4.319l-1.057-.504a.821.821 0 0 0-.705 1.482l1.722.821a.816.816 0 0 0 1.033-.285A10.477 10.477 0 0 0 30 21.802a10.44 10.44 0 0 0-.925-4.319z"/>
    </g>
</svg>
