<svg xmlns="http://www.w3.org/2000/svg" width="40" height="40" viewBox="0 0 40 40">
    <path fill="#666" fill-rule="evenodd" d="M20 8c-3.033 0-5.427 2.348-5.535 5.379l-.003.212v2.566h-1.385c-1.093 0-1.995.863-2.072 1.946l-.005.15v11.652c0 1.101.855 2.013 1.93 2.09l.147.005h13.846c1.093 0 1.995-.864 2.072-1.946l.005-.15V18.253a2.095 2.095 0 0 0-1.93-2.09l-.147-.005h-1.385V13.59C25.538 10.459 23.104 8 20 8zm7.154 10.017V30.14H12.846V18.017h14.308zM20 22.078c1.1 0 2 .9 2 2 0 1.101-.9 2-2 2s-2-.899-2-2c0-1.1.9-2 2-2zm0-12.335c2.088 0 3.808 1.737 3.808 3.848v2.566h-7.616V13.59c0-2.111 1.72-3.848 3.808-3.848z"/>
</svg>
