<svg xmlns="http://www.w3.org/2000/svg" width="40" height="40" viewBox="0 0 40 40">
    <g fill="#FFF" fill-rule="nonzero">
        <path d="M23.107 17.128v-.061c.378 0 .682.358.682.794 0 .436-.304.795-.682.795h-5.358c-.379 0-.682-.359-.682-.795 0-.436.303-.794.682-.794h5.358v.06zM26.796 20.061V20c.367 0 .66.359.66.794 0 .436-.293.795-.66.795h-9.07c-.366 0-.66-.359-.66-.795 0-.435.294-.794.66-.794h9.07v.061z"/>
        <path d="M19.391 9.166l2.376 2.211 2.456-2.21a.645.645 0 0 1 .865 0l2.377 2.211 2.457-2.186A.647.647 0 0 1 31 9.68v17.554C31 29.311 29.321 31 27.257 31c-.06 0-.122-.002-.182-.005l-.183-.067-.06.072H12.683l-.072-.003a3.713 3.713 0 0 1-2.557-1.145A3.757 3.757 0 0 1 9 27.234v-2.012c0-.36.29-.652.648-.652l2.967.061V9.68a.648.648 0 1 1 1.078-.488l2.375 2.187 2.46-2.213a.645.645 0 0 1 .863 0zm5.306 1.234l-2.539 2.21a.523.523 0 0 1-.622.06l-.08-.06L19 10.4l-2.538 2.21a.524.524 0 0 1-.62.061l-.08-.058-1.871-1.667-.101 13.685 10.373.061c.258 0 .473.188.518.435l.008.095v2.012a2.579 2.579 0 0 0 2.568 2.584 2.578 2.578 0 0 0 2.563-2.42l.005-.164V10.992l-1.972 1.62a.524.524 0 0 1-.621.057l-.08-.059-2.455-2.21zm-14.4 15.413v1.421a2.457 2.457 0 0 0 2.446 2.462l11.733.096-.265-.372a3.752 3.752 0 0 1-.697-2.186l.061-1.36-13.279-.06z"/>
    </g>
</svg>
