<svg xmlns="http://www.w3.org/2000/svg" width="40" height="40" viewBox="0 0 40 40">
    <path fill="#FFF" fill-rule="nonzero" d="M27.309 9c1.208 0 2.191.987 2.191 2.2v14.667c0 1.213-.983 2.2-2.191 2.2h-1.461a.733.733 0 0 1-.34-.085l-.02-.011-.016-.009-7.13-4.295h-.577V28.8c0 1.213-.983 2.2-2.191 2.2a2.198 2.198 0 0 1-2.192-2.2v-5.186A5.134 5.134 0 0 1 9 18.534c0-2.831 2.294-5.134 5.113-5.134h4.229l7.13-4.295.016-.01A.735.735 0 0 1 25.844 9zM16.304 23.667h-1.46V28.8c0 .404.327.733.73.733.402 0 .73-.329.73-.733v-5.133zm11.005-13.2h-.73V26.6h.73c.403 0 .73-.329.73-.733V11.2a.733.733 0 0 0-.73-.733zm-2.191.562l-5.844 3.52v7.97l5.844 3.52v-15.01zm6.102 9.69a.75.75 0 0 1 1.06 0l1.5 1.5a.75.75 0 1 1-1.06 1.061l-1.5-1.5a.75.75 0 0 1 0-1.06zm-16.377-5.852h-.73a3.664 3.664 0 0 0-3.652 3.666 3.664 3.664 0 0 0 3.652 3.667h.73v-7.333zm2.97 0h-1.509V22.2h1.51v-7.333zM33.25 18a.75.75 0 0 1 0 1.5h-1.5a.75.75 0 0 1 0-1.5zm-.53-4.28a.75.75 0 1 1 1.06 1.06l-1.5 1.5a.75.75 0 1 1-1.06-1.06z"/>
</svg>
