    <svg
      xmlns="http://www.w3.org/2000/svg"
      width="20"
      height="20"
      viewBox="0 0 20 20"
    >
      <path
        fill="#007196"
        fill-rule="evenodd"
        d="M11.164 6.502a.803.803 0 0 0-1.135 0l-4.24 4.247-.124.124s-.4.4-1.294 3.302c-.007.021-.015.043-.022.058-.014.05-.029.102-.05.16-.015.043-.03.094-.044.145-.015.044-.022.08-.037.124-.029.094-.058.189-.087.29-.066.219-.226.713-.044.895.175.175.67.022.888-.043l.29-.088c.044-.014.088-.029.131-.036.044-.015.095-.03.139-.044.058-.014.109-.036.167-.05.014-.008.029-.008.05-.015 2.757-.858 3.259-1.266 3.295-1.302l.131-.13.007.006 3.964-3.963.284-.284a.803.803 0 0 0 0-1.134l-2.27-2.262zm-2.575 7.25s-.007.008-.014.008c0 0-.008 0-.008.007l-.007.008-.007.007c-.131.08-.517.283-1.455.625-.109.037-.225.08-.356.124L5.41 13.193l.124-.357c.341-.945.545-1.33.618-1.461l.007-.008c0-.007.007-.007.007-.014l.008-.008c0-.007.007-.007.007-.014l.094-.095 2.415 2.422-.102.095zm7.098-7.25L13.425 4.24a.803.803 0 0 0-1.134 0l-.567.567a.803.803 0 0 0 0 1.135l2.261 2.262a.803.803 0 0 0 1.135 0l.567-.568a.803.803 0 0 0 0-1.134z"
      />
    </svg>