<svg xmlns="http://www.w3.org/2000/svg" xmlns:xlink="http://www.w3.org/1999/xlink" width="30" height="30" viewBox="0 0 30 30">
    <defs>
        <rect id="a" width="450" height="500" rx="10"/>
    </defs>
    <g fill="none" fill-rule="evenodd" transform="translate(-550 -493)">
        <path fill="#F5F5F5" d="M0 0h1200v645H0z"/>
        <rect width="770" height="375" x="215" y="120" fill="#FAFAFA" fill-rule="nonzero" rx="5"/>
        <path fill="#000" d="M0 0h1200v646H0z" opacity=".5"/>
        <g transform="translate(375 73)">
            <mask id="b" fill="#fff">
                <use xlink:href="#a"/>
            </mask>
            <use fill="#FAFAFA" xlink:href="#a"/>
            <g mask="url(#b)">
                <path fill="#4D4D4D" d="M194.383 429.5c.135 0 .268.006.398.017.891.034 3.107.316 4.552 2.185a.16.16 0 0 1 .031.135.178.178 0 0 1-.088.114l-.02.011c-.42.23-2.513 1.496-2.486 3.889.029 2.944 2.784 4.025 3.098 4.138l.015.006c.093.038.14.131.107.217l-.007.02c-.171.483-.677 1.747-1.685 3.05-.967 1.247-2.062 2.66-3.846 2.69-.834.014-1.398-.203-1.946-.413-.556-.212-1.13-.432-2.031-.432-.947 0-1.55.227-2.134.447-.52.196-1.058.398-1.802.424l-.09.002c-1.584 0-2.74-1.31-3.883-2.77-2.288-2.92-3.603-7.735-1.534-10.908 1.088-1.672 3.062-2.728 5.15-2.755h.064c.898 0 1.747.297 2.495.56.56.196 1.044.365 1.416.365.332 0 .812-.167 1.369-.361.806-.281 1.81-.631 2.857-.631zm-.287-5.5c.085-.004.16.068.169.165.119 1.234-.275 2.613-1.053 3.686-.74 1.017-1.823 1.649-2.827 1.649a2.42 2.42 0 0 1-.21-.01c-.077-.006-.139-.073-.149-.16-.16-1.385.45-2.759 1.076-3.583.736-.98 1.968-1.7 2.994-1.747z"/>
            </g>
        </g>
    </g>
</svg>
