<svg xmlns="http://www.w3.org/2000/svg" width="230" height="150" viewBox="0 0 230 150">
    <g fill="none" fill-rule="evenodd">
        <g transform="translate(29 14)">
            <circle cx="138.5" cy="25.5" r="11.5" fill="#FFF"/>
            <circle cx="27" cy="84" r="3" fill="#EDEDED"/>
            <circle cx="155" cy="64" r="5" fill="#EDEDED"/>
            <circle cx="8" cy="56" r="8" fill="#EDEDED"/>
            <path fill="#666" d="M147 8c-3.033 0-5.427 2.348-5.535 5.379l-.003.212v2.566h-1.385c-1.093 0-1.995.863-2.072 1.946l-.005.15v11.652c0 1.101.855 2.013 1.93 2.09l.147.005h13.846c1.093 0 1.995-.864 2.072-1.946l.005-.15V18.253a2.095 2.095 0 0 0-1.93-2.09l-.147-.005h-1.385V13.59C152.538 10.459 150.104 8 147 8zm7.154 10.017V30.14h-14.308V18.017h14.308zM147 22.078c1.1 0 2 .9 2 2 0 1.101-.9 2-2 2s-2-.899-2-2c0-1.1.9-2 2-2zm0-12.335c2.088 0 3.808 1.737 3.808 3.848v2.566h-7.616V13.59c0-2.111 1.72-3.848 3.808-3.848z"/>
        </g>
        <path fill="#EDEDED" d="M159 118c0 4.97-19.924 9-44.5 9-24.577 0-44.5-4.03-44.5-9s19.923-9 44.5-9c24.576 0 44.5 4.03 44.5 9"/>
        <path fill="#F5F5F5" d="M160 72c0 24.852-19.923 45-44.5 45S71 96.852 71 72s19.923-45 44.5-45S160 47.148 160 72"/>
        <path stroke="#666" stroke-width="2" d="M160 72c0 24.852-19.923 45-44.5 45S71 96.852 71 72s19.923-45 44.5-45S160 47.148 160 72z"/>
        <path fill="#FFF" d="M156 74c0 21.539-17.237 39-38.5 39S79 95.539 79 74c0-21.54 17.237-39 38.5-39S156 52.46 156 74"/>
        <path fill="#FFF" stroke="#666" stroke-linecap="round" stroke-linejoin="round" stroke-width="2" d="M127 78s-2.399 14-9.5 14c-7.1 0-9.5-14-9.5-14s4.658 1.317 9.5 1.317c4.843 0 9.5-1.317 9.5-1.317z"/>
        <path fill="#666" d="M93 72.5a3.5 3.5 0 1 1-7 0 3.5 3.5 0 0 1 7 0"/>
        <path fill="#FFF" d="M90 72a1 1 0 1 1-2 0 1 1 0 0 1 2 0"/>
        <path fill="#666" d="M150 72.5a3.5 3.5 0 1 1-7 0 3.5 3.5 0 0 1 7 0"/>
        <path fill="#FFF" d="M147 72a1 1 0 1 1-2 0 1 1 0 0 1 2 0"/>
    </g>
</svg>
