<svg xmlns="http://www.w3.org/2000/svg" width="210" height="150" viewBox="0 0 210 150">
    <g fill="none" fill-rule="evenodd" transform="translate(19 23)">
        <circle cx="138.5" cy="16.5" r="11.5" fill="#FFF"/>
        <circle cx="27" cy="75" r="3" fill="#EDEDED"/>
        <circle cx="155" cy="55" r="5" fill="#EDEDED"/>
        <circle cx="8" cy="47" r="8" fill="#EDEDED"/>
        <path fill="#EDEDED" d="M129.889 95.622c0 4.828-19.9 8.743-44.445 8.743-24.546 0-44.444-3.915-44.444-8.743 0-4.829 19.898-8.744 44.444-8.744 24.546 0 44.445 3.915 44.445 8.744"/>
        <path fill="#F5F5F5" d="M131.158 50.396c0 24.546-19.898 44.445-44.443 44.445-24.546 0-44.445-19.899-44.445-44.445 0-24.545 19.899-44.444 44.445-44.444 24.545 0 44.443 19.899 44.443 44.444"/>
        <path stroke="#666" stroke-width="2" d="M131.158 50.396c0 24.546-19.898 44.445-44.443 44.445-24.546 0-44.445-19.899-44.445-44.445 0-24.545 19.899-44.444 44.445-44.444 24.545 0 44.443 19.899 44.443 44.444z"/>
        <path fill="#FFF" d="M126.832 52.117c0 21.207-17.19 38.397-38.396 38.397-21.207 0-38.398-17.19-38.398-38.397 0-21.207 17.191-38.397 38.398-38.397 21.205 0 38.396 17.19 38.396 38.397"/>
        <path fill="#666" d="M63.637 50.89a3.709 3.709 0 1 1-7.418 0 3.709 3.709 0 0 1 7.418 0"/>
        <path fill="#FFF" d="M59.928 49.989a.902.902 0 1 1-1.803 0 .902.902 0 0 1 1.803 0"/>
        <path fill="#666" d="M120.116 50.89a3.709 3.709 0 1 1-7.418 0 3.709 3.709 0 0 1 7.418 0"/>
        <path fill="#FFF" d="M116.408 49.989a.902.902 0 1 1-1.804 0 .902.902 0 0 1 1.804 0"/>
        <path fill="#F5F5F5" d="M83.326 54.599h9.683"/>
        <path stroke="#666" stroke-linecap="round" stroke-linejoin="round" stroke-width="2" d="M83.326 54.599h9.683"/>
        <path fill="#666" fill-rule="nonzero" d="M140.726 17.306l-4.437-4.703a7.735 7.735 0 0 0 1.766-4.932c0-4.23-3.377-7.671-7.527-7.671C126.377 0 123 3.441 123 7.671s3.377 7.671 7.528 7.671a7.351 7.351 0 0 0 4.312-1.388l4.471 4.74a.966.966 0 0 0 1.388.027c.39-.383.403-1.017.027-1.415zM130.528 2.001c3.067 0 5.563 2.544 5.563 5.67 0 3.127-2.496 5.67-5.563 5.67-3.068 0-5.564-2.543-5.564-5.67 0-3.126 2.496-5.67 5.564-5.67z"/>
    </g>
</svg>
