<svg width="30" height="30" viewBox="0 0 30 30" fill="none" xmlns="http://www.w3.org/2000/svg">
<path d="M21.4736 16.2085C21.0947 16.1482 20.7394 16.201 20.4789 16.2311C20.092 16.2839 19.7131 16.3442 19.342 16.4045C18.6157 16.525 17.921 16.6305 17.2263 16.6908C16.2078 16.7813 15.1736 16.7813 14.1078 16.7737C13.4921 16.7662 12.8131 16.721 12.0473 16.623C11.3684 16.5401 10.6736 16.4195 10.0026 16.3065C9.78943 16.2688 9.56837 16.2311 9.35522 16.201C8.13153 15.9975 7.16048 16.6381 6.94733 17.7836C6.89206 18.0624 6.88417 18.3639 6.90785 18.6804C6.99469 19.7581 7.4368 20.783 8.21838 21.7251C9.88416 23.7372 12.1499 24.7923 14.9605 24.8601H15.0157C15.9868 24.8601 16.9263 24.7094 17.8105 24.408C19.871 23.7146 21.4184 22.4938 22.4131 20.783C22.9026 19.939 23.1315 19.0497 23.092 18.1604C23.0526 17.1204 22.4131 16.3517 21.4736 16.2085ZM20.6841 19.8787C19.9263 21.1975 18.7736 22.1019 17.1552 22.6369C16.4842 22.863 15.7578 22.9761 15.0157 22.9761H14.9999C12.7815 22.9158 11.0684 22.1245 9.76574 20.5569C9.22101 19.9013 8.9289 19.2381 8.87364 18.5372C8.85785 18.379 8.86574 18.2358 8.88943 18.1152C8.88943 18.1001 8.89732 18.07 8.90522 18.0398C8.9289 18.0398 8.96048 18.0398 9.02364 18.0549C9.2368 18.0926 9.44206 18.1227 9.65522 18.1604H9.66311C10.3578 18.281 11.0763 18.4016 11.7947 18.492C12.6394 18.5975 13.3894 18.6503 14.0921 18.6578C15.2052 18.6653 16.3026 18.6653 17.4078 18.5674C18.1815 18.4995 18.9394 18.379 19.6657 18.2584H19.6736C20.0289 18.1981 20.3999 18.1453 20.7552 18.0926C20.842 18.0775 20.9841 18.0624 21.0789 18.0624C21.0947 18.1001 21.1026 18.1679 21.1105 18.2433C21.1499 18.7935 20.9999 19.3285 20.6841 19.8787Z" fill="#4D4D4D"/>
<path d="M28.3263 8.82955C29.1 7.64636 29.2895 6.39534 28.8947 5.10664C28.2316 2.92867 25.9737 1.57968 23.6526 1.97157C23.3368 2.02432 23.0605 2.12229 22.8 2.21273C22.4132 1.58722 21.9079 1.08229 21.2921 0.713016C20.3368 0.132726 19.3263 -0.0933612 18.2842 0.0347549C18.0158 0.0648998 17.7237 0.110117 17.4553 0.193016C16.6816 0.426639 16.0105 0.863741 15.7105 1.1049C15.45 1.08983 15.2211 1.08983 15 1.08983C14.7868 1.08983 14.5579 1.09736 14.2974 1.1049C13.6342 0.5849 13.3737 0.419103 12.75 0.238233C12.0474 0.0196824 11.3763 -0.0481437 10.6895 0.0347549C9.47368 0.18548 8.47895 0.690408 7.72895 1.542C7.53947 1.76055 7.38947 1.98664 7.25526 2.19766C6.56053 1.94896 5.85 1.85099 5.13947 1.92635C3.82105 2.062 2.72368 2.63476 1.95 3.58432C0.757895 5.06143 0.58421 6.72693 1.44474 8.39244C1.52368 8.54317 1.60263 8.68636 1.68158 8.80694C0.58421 10.8342 0 13.1101 0 15.3936C0 23.2916 6.72632 29.7125 15 29.7125C23.2737 29.7125 30 23.2916 30 15.3936C30 13.1177 29.4237 10.8417 28.3263 8.82955ZM15 27.8284C7.81579 27.8284 1.97368 22.2516 1.97368 15.3936C1.97368 13.6603 2.34474 11.9872 3.06316 10.4122C3.25263 10.593 3.45 10.7814 3.67105 10.9623C4.46842 11.6104 5.4 12.1681 6.52895 12.6655C7.98947 13.3136 9.40263 13.6904 10.8395 13.811C11.1474 13.8336 11.4868 13.7582 11.7632 13.6C11.9921 13.4719 12.1579 13.3136 12.2763 13.193L12.2921 13.178C12.9237 12.5751 13.4763 11.8968 13.9579 11.1582C14.3684 10.5177 14.7158 9.88462 15 9.2365C15.1816 9.64346 15.3789 10.0429 15.5921 10.4122C16.3737 11.7611 17.1237 12.6956 18.0237 13.4568C18.3079 13.698 18.7105 13.8336 19.0816 13.811C19.4684 13.7884 19.8474 13.7432 20.2105 13.6829C21.6711 13.4191 23.0921 12.9142 24.45 12.1832C25.4447 11.6481 26.2658 11.0753 26.9368 10.4498C27.6474 12.0098 28.0105 13.6753 28.0105 15.3936C28.0263 22.2516 22.1842 27.8284 15 27.8284ZM13.7289 6.99824C13.4289 8.08346 12.9553 9.11592 12.2763 10.171C11.8816 10.7814 11.4158 11.3466 10.8947 11.8516L10.8789 11.8666C10.8632 11.8817 10.8474 11.8968 10.8316 11.9194C9.68684 11.7988 8.55 11.4898 7.35789 10.9623C6.39474 10.5327 5.60526 10.073 4.95 9.53795C4.66579 9.30433 4.39737 9.03302 4.11316 8.73911L4.10526 8.73157C3.97105 8.59592 3.83684 8.45273 3.69474 8.31708C3.67105 8.29447 3.64737 8.27186 3.62368 8.24925C3.58421 8.18896 3.54474 8.12867 3.50526 8.06839C3.39474 7.89505 3.28421 7.72925 3.20526 7.57099C2.68421 6.56114 2.77895 5.63418 3.50526 4.73737C3.94737 4.18722 4.54737 3.87824 5.33684 3.80287C5.8421 3.75012 6.33947 3.84809 6.85263 4.08925C7.54737 4.42085 8.31316 4.19476 8.70789 3.54664C8.74737 3.48635 8.77895 3.4336 8.81842 3.37331C8.96053 3.13969 9.09474 2.92113 9.23684 2.75534C9.66316 2.27302 10.2158 1.99418 10.9342 1.90374C11.3368 1.85099 11.7395 1.89621 12.15 2.03186C12.3632 2.10722 12.4737 2.17505 12.5763 2.23534C12.6 2.25041 12.6237 2.26548 12.6395 2.27302C13.35 2.69505 13.7684 3.31302 13.9105 4.142C14.0763 5.03128 14.0132 5.96577 13.7289 6.99824ZM18.8526 1.8736C19.3263 1.8736 19.7763 2.00925 20.2421 2.28809C20.6684 2.54432 21 2.9136 21.2447 3.40345C21.4026 3.71244 21.6632 3.92345 21.8526 4.04403C22.1605 4.25505 22.5316 4.29273 22.9658 4.15708C23.1237 4.10432 23.2658 4.05157 23.4079 3.99882C23.6289 3.91592 23.8342 3.84056 24 3.81041C25.3342 3.58432 26.6211 4.36809 27.0079 5.61911C27.2447 6.39534 27.1263 7.12636 26.6368 7.84983C26.5579 7.96288 26.4947 8.08346 26.4395 8.18143C26.3763 8.22665 26.3289 8.28694 26.2816 8.33969C25.6184 9.16868 24.7342 9.86201 23.4947 10.5327C22.3342 11.1582 21.1105 11.5953 19.8632 11.8139C19.65 11.8516 19.4289 11.8817 19.2 11.8968C18.5368 11.309 17.9605 10.5553 17.3368 9.47766C16.9105 8.74665 16.5711 7.93273 16.3105 7.05853C16.1368 6.4707 16.0421 5.91302 16.0184 5.35534C15.9868 4.58664 16.0737 3.97621 16.3026 3.44113C16.5553 2.85331 16.9895 2.42374 17.6289 2.11476C17.6447 2.10722 17.6684 2.09968 17.6842 2.08461C17.7632 2.03939 17.85 2.00925 17.9289 1.99418C18.15 1.94142 18.3553 1.89621 18.5447 1.8736C18.6474 1.88113 18.75 1.8736 18.8526 1.8736Z" fill="#4D4D4D"/>
</svg>
