<svg width="33" height="29" viewBox="0 0 33 29" fill="none" xmlns="http://www.w3.org/2000/svg">
<path fill-rule="evenodd" clip-rule="evenodd" d="M24.123 21.1602C24.123 21.4943 23.8491 21.7615 23.5218 21.7615H19.0784C18.7443 21.7615 18.4772 21.4875 18.4772 21.1602V17.7528C18.4772 17.4187 18.7514 17.1512 19.0784 17.1512H23.5218C23.8559 17.1512 24.123 17.4255 24.123 17.7528V21.1602ZM23.5219 15.5479H19.0785C17.8628 15.5479 16.8738 16.5368 16.8738 17.7529V21.1604C16.8738 22.3764 17.8628 23.3651 19.0785 23.3651H23.5219C24.7379 23.3651 25.7266 22.3764 25.7266 21.1604V17.7529C25.7266 16.5368 24.7379 15.5479 23.5219 15.5479Z" fill="#4D4D4D"/>
<mask id="mask0" mask-type="alpha" maskUnits="userSpaceOnUse" x="0" y="0" width="33" height="29">
<path fill-rule="evenodd" clip-rule="evenodd" d="M0.290527 0H32.9895V28.5499H0.290527V0Z" fill="white"/>
</mask>
<g mask="url(#mask0)">
<path fill-rule="evenodd" clip-rule="evenodd" d="M28.2989 12.441C26.7824 12.441 25.5195 11.3453 25.2656 9.9022H31.339C31.0786 11.3385 29.8157 12.441 28.2989 12.441ZM28.5732 26.9464H15.3637V18.2938C15.3637 16.7838 14.1344 15.5477 12.6176 15.5477H10.2858C8.77582 15.5477 7.53973 16.7773 7.53973 18.2938V26.9529H4.70017V14.0377C4.79394 14.0445 4.88711 14.0445 4.98088 14.0445C6.59763 14.0445 8.02744 13.2227 8.8696 11.9733C9.71113 13.2227 11.1413 14.0445 12.758 14.0445C14.3748 14.0445 15.7981 13.2227 16.6467 11.9733C17.4886 13.2227 18.9184 14.0445 20.5286 14.0445C22.1454 14.0445 23.5687 13.2227 24.4106 11.9733C25.2524 13.2227 26.6822 14.0445 28.299 14.0445C28.3927 14.0445 28.4794 14.0377 28.5732 14.0377V26.9464ZM13.7602 26.9465H9.14997V18.294C9.14997 17.6659 9.65773 17.1516 10.2926 17.1516H12.6241C13.2525 17.1516 13.767 17.6594 13.767 18.294V26.9465H13.7602ZM1.9472 9.89534H8.02088C7.7667 11.3384 6.4973 12.4341 4.9808 12.4341C3.464 12.4409 2.20108 11.3384 1.9472 9.89534ZM15.7914 9.89534C15.5375 11.3384 14.2749 12.4341 12.7581 12.4341C11.2413 12.4341 9.97865 11.3384 9.71829 9.89534H15.7914ZM23.562 9.89534C23.3081 11.3384 22.0455 12.4341 20.5287 12.4341C19.0122 12.4341 17.7493 11.3384 17.4954 9.89534H23.562ZM6.4171 1.61032H26.8558L30.6575 8.2985H2.62217L6.4171 1.61032ZM32.9895 9.35407C32.9895 9.21402 32.9562 9.08014 32.8825 8.95983L28.0187 0.407812C27.8783 0.16041 27.6112 0 27.3237 0H5.94992C5.66242 0 5.39527 0.153624 5.25491 0.407812L0.39757 8.95983C0.33063 9.08014 0.290527 9.21402 0.290527 9.35407C0.290527 11.2716 1.44641 12.9155 3.09678 13.6435V27.7482C3.09678 28.1893 3.4577 28.5499 3.89852 28.5499H8.32831H8.34836H14.5621H14.5821H29.3747C29.8159 28.5499 30.1768 28.1893 30.1768 27.7482V13.7441C30.1768 13.7104 30.1768 13.6836 30.1697 13.6571C31.8272 12.9288 32.9895 11.2784 32.9895 9.35407Z" fill="#4D4D4D"/>
</g>
</svg>
