<svg width="39" height="13" viewBox="0 0 39 13" fill="none" xmlns="http://www.w3.org/2000/svg">
<mask id="path-1-outside-1" maskUnits="userSpaceOnUse" x="0" y="0" width="39" height="13" fill="black">
<rect fill="white" width="39" height="13"/>
<path fill-rule="evenodd" clip-rule="evenodd" d="M19.6267 2.95755C19.616 2.95717 19.6053 2.95679 19.5946 2.95639C19.5746 2.95575 19.5548 2.95437 19.5349 2.95298C19.5078 2.9511 19.4807 2.94921 19.4532 2.94921C19.4431 2.94921 19.433 2.94997 19.4229 2.95072C19.4128 2.95148 19.4027 2.95223 19.3926 2.95223C19.3829 2.95241 19.3734 2.95201 19.364 2.95161C19.3533 2.95115 19.3425 2.9507 19.3315 2.9511C19.3024 2.95202 19.274 2.95488 19.2455 2.95775C19.227 2.95961 19.2085 2.96147 19.1898 2.96281L19.1897 2.96281C19.1195 2.96696 19.0492 2.97112 18.9797 2.97942C18.9213 2.98588 18.8638 2.9954 18.8061 3.00494C18.7997 3.00601 18.7933 3.00707 18.7869 3.00813C18.78 3.00926 18.7732 3.01039 18.7664 3.01152C18.7048 3.02169 18.643 3.03188 18.5822 3.04514C18.5188 3.05874 18.4566 3.07573 18.3944 3.09272C18.3291 3.1101 18.2638 3.12747 18.2 3.14824C18.1378 3.16826 18.0767 3.1913 18.0161 3.21433C18.0103 3.21652 18.0044 3.21871 17.9986 3.22089C17.9434 3.24171 17.8883 3.26247 17.8344 3.28571C17.7813 3.30885 17.7297 3.33429 17.678 3.35977C17.6706 3.36341 17.6632 3.36705 17.6558 3.37069C17.6506 3.37323 17.6455 3.37577 17.6403 3.37831C17.5886 3.40368 17.5371 3.42899 17.4868 3.4568C17.4288 3.4889 17.3727 3.52365 17.3163 3.55877C17.3112 3.5619 17.3062 3.56502 17.3011 3.56814C17.2786 3.58209 17.2561 3.59602 17.2338 3.61016C16.8859 3.81966 16.5843 4.08618 16.2825 4.35288C15.9622 4.63601 15.6416 4.91933 15.2651 5.13482C14.4827 5.58274 13.5804 5.84629 12.6712 5.87965C11.885 5.9086 11.1007 5.75209 10.3921 5.41963C9.86307 5.17185 9.47307 4.81514 9.0736 4.44977C8.86794 4.26165 8.65977 4.07125 8.42883 3.89223C8.38745 3.86053 8.34471 3.83041 8.30199 3.80031C8.29432 3.79491 8.28666 3.78951 8.279 3.7841C8.27486 3.78119 8.27072 3.77829 8.26658 3.77538C8.2185 3.74159 8.17029 3.70772 8.12048 3.67634C8.07671 3.64869 8.03189 3.6231 7.98689 3.59741C7.9782 3.59245 7.96951 3.58748 7.96081 3.5825C7.95628 3.57992 7.95175 3.57733 7.94721 3.57475C7.89574 3.54541 7.84417 3.51601 7.79132 3.4894C7.7357 3.46117 7.67857 3.43552 7.62144 3.40986C7.61442 3.40672 7.60741 3.40357 7.6004 3.40043C7.54845 3.37715 7.49662 3.35392 7.44362 3.33325C7.39244 3.31348 7.34043 3.29559 7.28854 3.27774C7.27982 3.27474 7.2711 3.27174 7.26239 3.26874C7.25366 3.26585 7.24494 3.26295 7.23622 3.26005C7.1841 3.24275 7.1321 3.22548 7.07927 3.21009C7.02328 3.19394 6.96612 3.18065 6.90933 3.16743C6.90165 3.16565 6.89398 3.16386 6.88632 3.16207L6.88174 3.16099C6.82124 3.14669 6.76105 3.13247 6.69979 3.12139C6.63283 3.10929 6.56435 3.10013 6.49624 3.09133L6.49035 3.09054C6.42918 3.08238 6.36865 3.0743 6.30669 3.06897C6.24821 3.06399 6.18917 3.06191 6.12982 3.05983C6.1193 3.05946 6.10877 3.05909 6.09823 3.05871C6.07855 3.05809 6.05901 3.05675 6.03947 3.0554C6.01278 3.05357 5.98608 3.05174 5.959 3.05174C5.94897 3.05174 5.93904 3.05247 5.92911 3.05321C5.91917 3.05394 5.90924 3.05467 5.89922 3.05467C5.88967 3.05484 5.88037 3.05446 5.87109 3.05407C5.86051 3.05363 5.84995 3.05318 5.83906 3.05357C5.81037 3.05446 5.78238 3.05724 5.75432 3.06003C5.73613 3.06183 5.71791 3.06364 5.69945 3.06494L5.69943 3.06494C5.6302 3.06897 5.56097 3.073 5.4925 3.08106C5.43496 3.08733 5.37834 3.09657 5.32154 3.10583C5.31522 3.10686 5.30889 3.1079 5.30257 3.10892C5.29582 3.11002 5.28907 3.11112 5.28232 3.11222C5.22167 3.12209 5.16083 3.13198 5.10091 3.14484C5.04171 3.15736 4.98387 3.17284 4.92546 3.18847L4.9159 3.19103C4.85158 3.20789 4.78764 3.22475 4.72446 3.24491C4.66317 3.26434 4.60301 3.2867 4.54323 3.30906C4.53752 3.31118 4.5318 3.3133 4.52609 3.31542C4.47166 3.33562 4.41735 3.35578 4.36427 3.37833C4.31197 3.40079 4.26111 3.42548 4.21017 3.45022C4.2029 3.45375 4.19562 3.45728 4.18834 3.46081C4.18326 3.46327 4.17817 3.46573 4.17308 3.46819C4.12219 3.49282 4.0714 3.51739 4.02187 3.54438C3.96474 3.57554 3.9095 3.60926 3.85389 3.64335C3.84892 3.64638 3.84396 3.64941 3.83899 3.65244C3.79176 3.68126 3.74464 3.71 3.69877 3.74085C3.64542 3.77714 3.59396 3.81526 3.54289 3.85411C3.5358 3.85945 3.52871 3.86477 3.52163 3.87008C3.47956 3.90165 3.4377 3.93307 3.39723 3.96664C3.34842 4.00659 3.30188 4.04875 3.25497 4.09127C3.25125 4.09466 3.24753 4.09806 3.2438 4.10145C3.2017 4.13986 3.15946 4.17838 3.11914 4.21846C3.07856 4.25879 3.04024 4.30101 3.00179 4.34337C2.99866 4.34682 2.99553 4.35027 2.9924 4.35371L2.98389 4.36305C2.94436 4.40646 2.90499 4.44969 2.86792 4.49483C2.83627 4.53324 2.80637 4.57285 2.77659 4.6123C2.7697 4.62142 2.76282 4.63053 2.75593 4.63962C2.71772 4.69057 2.67988 4.74115 2.6447 4.79357C2.61266 4.84116 2.58297 4.89004 2.55342 4.9387L2.54784 4.94789C2.51455 5.0025 2.48163 5.05675 2.45136 5.11283C2.42223 5.16635 2.39613 5.22169 2.37002 5.27704C2.3424 5.33386 2.31478 5.39067 2.29057 5.44932C2.27037 5.49763 2.25254 5.5467 2.23467 5.5959C2.23111 5.60568 2.22756 5.61547 2.22398 5.62526C2.22025 5.63579 2.21649 5.6463 2.21273 5.65681C2.19554 5.70488 2.17835 5.75298 2.16344 5.8023C2.14578 5.85979 2.13142 5.91824 2.11697 5.97705C2.11594 5.98124 2.11491 5.98542 2.11388 5.98961C2.11209 5.99687 2.11029 6.00413 2.10849 6.01138C2.09549 6.06381 2.08252 6.11613 2.07189 6.16958C2.05918 6.234 2.05017 6.29949 2.04121 6.36464L2.04086 6.36715C2.0401 6.37248 2.03933 6.37781 2.03857 6.38314C2.0306 6.43867 2.02262 6.49427 2.01778 6.55079C2.01175 6.61729 2.00947 6.68488 2.00721 6.75211L2.00719 6.75276C2.00655 6.77184 2.00516 6.79072 2.00378 6.8096C2.00189 6.83533 2 6.86106 2 6.88728C2 6.90011 2.00114 6.91331 2.00227 6.92614C2.00206 6.93193 2.00232 6.93772 2.0026 6.94364C2.00281 6.94821 2.00303 6.95287 2.00303 6.95766C2.0029 6.96279 2.00269 6.96792 2.00248 6.97305C2.00206 6.98332 2.00164 6.99358 2.00189 7.00384C2.00211 7.01055 2.00282 7.01725 2.00353 7.02395C2.00406 7.02898 2.00459 7.034 2.00492 7.03903C2.01778 9.14521 3.7786 10.85 5.95521 10.8522L5.959 10.8654C5.959 10.8654 6.10844 10.8669 6.35172 10.8332C7.32557 10.74 8.19312 10.3039 8.83025 9.65251C8.84272 9.64113 8.85551 9.63026 8.8683 9.61938C8.89507 9.59662 8.92183 9.57386 8.94564 9.54657C10.1128 8.238 11.0856 8.00671 12.4117 7.95796C13.1979 7.92901 14.0351 8.04373 14.852 8.48432C15.3647 8.76087 15.7597 9.10788 16.1641 9.46323C16.3657 9.64039 16.5697 9.81962 16.7918 9.99322C17.4989 10.6103 18.4292 10.9853 19.4494 10.9864L19.4532 11C19.4532 11 19.605 11.0015 19.8519 10.9668C20.8405 10.8708 21.7212 10.4214 22.368 9.75028C22.3806 9.73858 22.3935 9.72739 22.4065 9.71621C22.4336 9.69273 22.4607 9.66927 22.4851 9.64114C23.67 8.29286 24.6574 8.05455 26.0036 8.00432C26.8017 7.97448 27.6516 8.09269 28.4809 8.54665C29.0014 8.83159 29.4023 9.18914 29.8128 9.55526C30.0248 9.74429 30.2393 9.93561 30.4742 10.1204C30.5192 10.1557 30.5655 10.1889 30.6119 10.2222L30.6259 10.2322C30.6333 10.2375 30.6408 10.2427 30.6482 10.248C30.6941 10.2805 30.7399 10.3131 30.7872 10.3436C30.831 10.3716 30.8762 10.3977 30.9215 10.424C30.9306 10.4293 30.9398 10.4346 30.9489 10.4399C31.0057 10.4728 31.0626 10.5056 31.1213 10.5358C31.1705 10.5612 31.2208 10.5842 31.2711 10.6072C31.2785 10.6106 31.286 10.614 31.2934 10.6174C31.3003 10.6205 31.3071 10.6236 31.314 10.6268C31.367 10.6509 31.4199 10.6749 31.4743 10.6963C31.5297 10.7189 31.5865 10.7383 31.6433 10.7577L31.6583 10.7628C31.7197 10.784 31.7812 10.8051 31.8442 10.8236C31.9087 10.8421 31.9744 10.8576 32.0401 10.8731L32.0576 10.8772C32.1143 10.8906 32.1712 10.904 32.229 10.9146C32.2974 10.9275 32.3665 10.9365 32.436 10.9456C32.4998 10.9547 32.5635 10.9634 32.6284 10.969C32.6983 10.9747 32.769 10.977 32.8397 10.9792C32.8582 10.98 32.8766 10.9812 32.8949 10.9825C32.9235 10.9844 32.952 10.9864 32.981 10.9864C32.9922 10.9864 33.0031 10.9856 33.0139 10.9849C33.0231 10.9842 33.0323 10.9835 33.0417 10.9834C33.0514 10.9832 33.061 10.9836 33.0705 10.984C33.0812 10.9845 33.092 10.9849 33.1028 10.9845C33.1303 10.9839 33.1573 10.9812 33.1843 10.9786C33.2043 10.9766 33.2243 10.9747 33.2445 10.9736C33.3152 10.969 33.3851 10.9645 33.4546 10.9569C33.5195 10.949 33.5832 10.9384 33.6474 10.9275C33.7161 10.9165 33.7845 10.9056 33.8521 10.8908C33.9082 10.8785 33.9629 10.8639 34.0176 10.8492C34.025 10.8472 34.0325 10.8452 34.0399 10.8433C34.1052 10.8259 34.1705 10.8085 34.2343 10.7877C34.2945 10.7685 34.353 10.7464 34.4118 10.7242L34.4186 10.7216L34.4264 10.7187C34.4845 10.6966 34.5429 10.6745 34.5999 10.6499C34.6605 10.6239 34.7192 10.5948 34.7787 10.5654L34.7789 10.5653L34.7937 10.558C34.8456 10.5325 34.8973 10.5071 34.9475 10.4792C34.9981 10.4512 35.0472 10.4208 35.0965 10.3905C35.1036 10.3861 35.1108 10.3816 35.118 10.3772C35.1253 10.3727 35.1327 10.3681 35.14 10.3636C35.1858 10.3353 35.2315 10.307 35.2759 10.2768C35.3264 10.2419 35.3749 10.205 35.4235 10.1681L35.4341 10.1601C35.484 10.1223 35.534 10.0845 35.5816 10.0445C35.6241 10.0088 35.6649 9.97153 35.7057 9.93421C35.7125 9.92804 35.7192 9.92187 35.726 9.9157L35.7387 9.90394C35.7812 9.86454 35.8233 9.82553 35.8639 9.78465C35.9079 9.73985 35.9493 9.69358 35.9911 9.64693L35.9925 9.64529L36.0012 9.63567C36.0413 9.59095 36.0813 9.54638 36.1193 9.49951C36.1585 9.45117 36.1957 9.40056 36.2326 9.35033C36.2714 9.29821 36.3098 9.24609 36.3459 9.19209C36.3735 9.15038 36.3992 9.10772 36.4249 9.06505C36.4313 9.05439 36.4378 9.04373 36.4442 9.03309L36.4497 9.02384C36.4813 8.97069 36.5127 8.91775 36.5418 8.86314C36.5697 8.81064 36.5949 8.75712 36.6203 8.70324L36.6247 8.69394L36.6346 8.67292C36.659 8.62107 36.6833 8.56934 36.705 8.51644C36.7255 8.46666 36.7436 8.41609 36.7617 8.3654C36.7653 8.35532 36.769 8.34524 36.7726 8.33515C36.7941 8.27473 36.8156 8.2143 36.834 8.15274C36.8528 8.09078 36.8682 8.02739 36.8836 7.96431L36.8847 7.95975L36.889 7.94233C36.9026 7.88657 36.9162 7.83072 36.927 7.77394C36.94 7.70678 36.9492 7.63886 36.9585 7.57095L36.9585 7.57075L36.9614 7.55019C36.9693 7.4941 36.9771 7.43842 36.9819 7.38154C36.988 7.3128 36.9903 7.24331 36.9927 7.17344C36.9934 7.15529 36.9947 7.13731 36.996 7.11932C36.998 7.09128 37 7.06322 37 7.03446C37 7.02482 36.9993 7.01538 36.9987 7.00571C36.9985 7.00211 36.9982 6.99849 36.998 6.99481C36.998 6.98385 36.9969 6.97328 36.9973 6.96195C36.9976 6.94609 36.9984 6.9306 36.998 6.91436C36.9977 6.90545 36.9968 6.89675 36.9959 6.88795C36.9956 6.88481 36.9953 6.88166 36.995 6.87848C36.9819 4.7084 35.1944 2.95148 32.9849 2.94959L32.981 2.93599C32.981 2.93599 32.8293 2.93448 32.5824 2.96923C32.0312 3.04665 31.515 3.18072 31.0257 3.45076C30.6177 3.67566 30.2755 3.98263 29.9331 4.28983C29.6079 4.58155 29.2825 4.87347 28.9003 5.09551C28.106 5.55702 27.19 5.82856 26.2671 5.86293C25.469 5.89277 24.6728 5.7315 23.9534 5.38896C23.4164 5.13366 23.0205 4.76612 22.615 4.38966C22.4062 4.19584 22.1949 3.99966 21.9605 3.81521C21.9185 3.78255 21.8751 3.75151 21.8317 3.7205C21.8239 3.71493 21.8162 3.70937 21.8084 3.70379L21.7964 3.69527C21.7474 3.66031 21.6982 3.62524 21.6471 3.59276C21.6026 3.56402 21.5567 3.53744 21.5107 3.51074C21.5022 3.50586 21.4938 3.50098 21.4854 3.49608L21.4721 3.48843C21.4197 3.45809 21.3671 3.42767 21.3129 3.40015C21.2569 3.37107 21.1989 3.34463 21.1409 3.31819C21.1338 3.31497 21.1267 3.31174 21.1196 3.30852C21.0668 3.28452 21.0142 3.26057 20.9603 3.23926C20.9084 3.21889 20.8556 3.20046 20.8029 3.18207C20.7941 3.17898 20.7852 3.17589 20.7764 3.17279C20.7675 3.16981 20.7587 3.16683 20.7498 3.16384C20.6969 3.14601 20.6441 3.12822 20.5905 3.11236C20.5325 3.0954 20.4733 3.08148 20.4142 3.0676C20.4076 3.06603 20.4009 3.06446 20.3942 3.06289L20.3942 3.06288C20.3316 3.04778 20.269 3.03267 20.2053 3.02097C20.1373 3.0085 20.0678 2.99906 19.9986 2.99L19.9926 2.98919C19.9305 2.98078 19.8691 2.97245 19.8062 2.96696C19.7468 2.96183 19.6869 2.95969 19.6267 2.95755Z"/>
</mask>
<path d="M19.5946 2.95639L19.6585 0.957382L19.669 0.957772L19.5946 2.95639ZM19.6267 2.95755L19.6978 0.958814L19.6979 0.958815L19.6267 2.95755ZM19.5349 2.95298L19.6739 0.957815L19.6739 0.957816L19.5349 2.95298ZM19.3926 2.95223L19.356 0.952566L19.3743 0.952231H19.3926V2.95223ZM19.364 2.95161L19.4488 0.953406L19.4489 0.953412L19.364 2.95161ZM19.3315 2.9511L19.4043 4.9498L19.3944 4.95011L19.3315 2.9511ZM19.2455 2.95775L19.045 0.967819L19.0451 0.967813L19.2455 2.95775ZM19.1898 2.96281L19.3322 4.95773L19.3165 4.95885L19.3007 4.95973L19.1898 2.96281ZM19.1897 2.96281L19.0717 0.966283L19.0788 0.965889L19.1897 2.96281ZM18.9797 2.97942L19.217 4.96529L19.2082 4.96634L19.1994 4.96732L18.9797 2.97942ZM18.8061 3.00494L19.1328 4.97808L19.1328 4.97809L18.8061 3.00494ZM18.7869 3.00813L18.4599 1.03504L18.4616 1.03477L18.7869 3.00813ZM18.7664 3.01152L19.0921 4.98481L18.7664 3.01152ZM18.5822 3.04514L19.008 4.9993L19.0017 5.00064L18.5822 3.04514ZM18.3944 3.09272L18.9214 5.02209L18.9086 5.02548L18.3944 3.09272ZM18.2 3.14824L18.8196 5.04987L18.8125 5.05214L18.2 3.14824ZM18.0161 3.21433L18.7259 5.08414L18.7221 5.08557L18.0161 3.21433ZM17.9986 3.22089L17.2937 1.34926L17.2937 1.34925L17.9986 3.22089ZM17.8344 3.28571L17.0356 1.45215L17.0422 1.44931L17.8344 3.28571ZM17.678 3.35977L18.5621 5.15371L18.5621 5.15373L17.678 3.35977ZM17.6558 3.37069L16.7733 1.57591L16.7733 1.5759L17.6558 3.37069ZM17.6403 3.37831L16.7587 1.58308L16.7587 1.58307L17.6403 3.37831ZM17.4868 3.4568L16.5182 1.70698L16.5188 1.70668L17.4868 3.4568ZM17.3163 3.55877L18.3727 5.25697L18.3701 5.2586L17.3163 3.55877ZM17.3011 3.56814L16.2482 1.86777L16.2482 1.86775L17.3011 3.56814ZM17.2338 3.61016L18.3034 5.30013L18.2845 5.31204L18.2655 5.32353L17.2338 3.61016ZM16.2825 4.35288L14.9581 2.85429L14.9581 2.85429L16.2825 4.35288ZM15.2651 5.13482L14.2715 3.39913L14.2716 3.39905L15.2651 5.13482ZM12.6712 5.87965L12.5976 3.881L12.5979 3.88099L12.6712 5.87965ZM10.3921 5.41963L11.2404 3.60847L11.2415 3.60899L10.3921 5.41963ZM9.0736 4.44977L10.4234 2.97398L10.4234 2.97398L9.0736 4.44977ZM8.42883 3.89223L9.64509 2.30452L9.65413 2.31152L8.42883 3.89223ZM8.30199 3.80031L7.14995 5.43519L7.14995 5.43518L8.30199 3.80031ZM8.279 3.7841L9.42816 2.14719L9.43314 2.15071L8.279 3.7841ZM8.26658 3.77538L7.11685 5.41187L7.11681 5.41185L8.26658 3.77538ZM8.12048 3.67634L7.05432 5.36847L7.05217 5.36711L8.12048 3.67634ZM7.98689 3.59741L8.97842 1.86049L8.97847 1.86052L7.98689 3.59741ZM7.96081 3.5825L8.95052 1.84454L8.95525 1.84725L7.96081 3.5825ZM7.94721 3.57475L6.95684 5.31232L6.95674 5.31227L7.94721 3.57475ZM7.79132 3.4894L6.89184 5.27573L6.88624 5.27289L7.79132 3.4894ZM7.62144 3.40986L8.43784 1.58407L8.44083 1.58541L7.62144 3.40986ZM7.6004 3.40043L6.78238 5.22549L6.78236 5.22549L7.6004 3.40043ZM7.44362 3.33325L8.16433 1.46761L8.17025 1.46992L7.44362 3.33325ZM7.28854 3.27774L7.93905 1.38649H7.93905L7.28854 3.27774ZM7.26239 3.26874L7.89083 1.37004L7.90288 1.37402L7.91487 1.37816L7.26239 3.26874ZM7.23622 3.26005L7.8666 1.362L7.86662 1.362L7.23622 3.26005ZM7.07927 3.21009L7.63339 1.28838L7.63851 1.28987L7.07927 3.21009ZM6.90933 3.16743L7.36247 1.21944L7.36253 1.21946L6.90933 3.16743ZM6.88632 3.16207L6.43127 5.10962L6.42655 5.10851L6.88632 3.16207ZM6.88174 3.16099L6.42198 5.10743L6.42174 5.10737L6.88174 3.16099ZM6.69979 3.12139L7.05529 1.15323L7.05587 1.15334L6.69979 3.12139ZM6.49624 3.09133L6.24003 5.07487L6.23155 5.07374L6.49624 3.09133ZM6.49035 3.09054L6.75498 1.10813L6.75505 1.10814L6.49035 3.09054ZM6.30669 3.06897L6.47642 1.07618L6.47805 1.07632L6.30669 3.06897ZM6.12982 3.05983L6.05964 5.0586L6.05963 5.0586L6.12982 3.05983ZM6.09823 3.05871L6.16121 1.05967L6.17145 1.06005L6.09823 3.05871ZM6.03947 3.0554L6.17633 1.06009L6.17635 1.06009L6.03947 3.0554ZM5.92911 3.05321L5.78182 1.05864L5.78192 1.05863L5.92911 3.05321ZM5.89922 3.05467L5.86335 1.055L5.88128 1.05467H5.89922V3.05467ZM5.87109 3.05407L5.95464 1.05581L5.95466 1.05581L5.87109 3.05407ZM5.83906 3.05357L5.91077 5.05231L5.90103 5.05261L5.83906 3.05357ZM5.75432 3.06003L5.55678 1.0698L5.55682 1.0698L5.75432 3.06003ZM5.69945 3.06494L5.83972 5.06001L5.82831 5.06081L5.81689 5.06149L5.69945 3.06494ZM5.69943 3.06494L5.81687 5.06149L5.8157 5.06156L5.69943 3.06494ZM5.4925 3.08106L5.72639 5.06734L5.71773 5.06836L5.70907 5.0693L5.4925 3.08106ZM5.32154 3.10583L4.99954 1.13192L4.99956 1.13192L5.32154 3.10583ZM5.30257 3.10892L4.98025 1.13507L4.98189 1.1348L5.30257 3.10892ZM5.28232 3.11222L5.60341 5.08628L5.6034 5.08628L5.28232 3.11222ZM5.10091 3.14484L5.52072 5.1003L5.51452 5.10161L5.10091 3.14484ZM4.92546 3.18847L5.44254 5.12047L5.44239 5.12051L4.92546 3.18847ZM4.9159 3.19103L5.43284 5.12309L5.42306 5.12566L4.9159 3.19103ZM4.72446 3.24491L5.33241 5.15028L5.32874 5.15144L4.72446 3.24491ZM4.54323 3.30906L5.2439 5.18231L5.24001 5.18376L4.54323 3.30906ZM4.52609 3.31542L3.83023 1.44038L3.83028 1.44036L4.52609 3.31542ZM4.36427 3.37833L3.57541 1.54047L3.58196 1.53769L4.36427 3.37833ZM4.21017 3.45022L3.33654 1.65111L3.33655 1.65111L4.21017 3.45022ZM4.18834 3.46081L5.06021 5.26077L5.0602 5.26077L4.18834 3.46081ZM4.17308 3.46819L5.04414 5.26854L5.04412 5.26855L4.17308 3.46819ZM4.02187 3.54438L3.06429 1.78852L3.06483 1.78823L4.02187 3.54438ZM3.85389 3.64335L4.89905 5.34853L4.89639 5.35015L3.85389 3.64335ZM3.83899 3.65244L2.79734 1.94511L2.79737 1.9451L3.83899 3.65244ZM3.69877 3.74085L2.57386 2.08715L2.5828 2.08114L3.69877 3.74085ZM3.54289 3.85411L4.75378 5.44591L4.74562 5.45206L3.54289 3.85411ZM3.52163 3.87008L4.72223 5.46963L4.72218 5.46967L3.52163 3.87008ZM3.39723 3.96664L4.67396 5.50616L4.6641 5.51423L3.39723 3.96664ZM3.25497 4.09127L1.90667 2.61406L1.91188 2.60933L3.25497 4.09127ZM3.2438 4.10145L1.89597 2.62384L1.89601 2.6238L3.2438 4.10145ZM3.11914 4.21846L4.529 5.63701L4.529 5.63701L3.11914 4.21846ZM3.00179 4.34337L4.48269 5.68759L4.48267 5.68761L3.00179 4.34337ZM2.9924 4.35371L4.47284 5.69844L4.4712 5.70025L2.9924 4.35371ZM2.98389 4.36305L4.46269 5.70959L4.46254 5.70975L2.98389 4.36305ZM2.86792 4.49483L4.41366 5.76397L4.41132 5.76681L2.86792 4.49483ZM2.77659 4.6123L4.37284 5.81728L4.37283 5.81729L2.77659 4.6123ZM2.75593 4.63962L1.15591 3.4396L1.16247 3.43095L2.75593 4.63962ZM2.6447 4.79357L4.30525 5.90828L4.3038 5.91043L2.6447 4.79357ZM2.55342 4.9387L4.26284 5.97691L4.26279 5.97699L2.55342 4.9387ZM2.54784 4.94789L4.25722 5.98618L4.25554 5.98892L2.54784 4.94789ZM2.45136 5.11283L4.2114 6.06273L4.20796 6.06907L2.45136 5.11283ZM2.37002 5.27704L4.17891 6.13023L4.17389 6.14087L4.16875 6.15145L2.37002 5.27704ZM2.29057 5.44932L4.13922 6.21258L4.13578 6.22081L2.29057 5.44932ZM2.23467 5.5959L0.354883 4.91296L0.354885 4.91295L2.23467 5.5959ZM2.22398 5.62526L0.339107 4.95649L0.342249 4.94764L0.345474 4.93881L2.22398 5.62526ZM2.21273 5.65681L4.09598 6.33012L4.09598 6.33013L2.21273 5.65681ZM2.16344 5.8023L4.07801 6.3807L4.07527 6.38961L2.16344 5.8023ZM2.11697 5.97705L4.05918 6.45434L4.05918 6.45435L2.11697 5.97705ZM2.11388 5.98961L4.05597 6.46742L4.05555 6.46913L2.11388 5.98961ZM2.10849 6.01138L4.04972 6.49265L4.04972 6.49266L2.10849 6.01138ZM2.07189 6.16958L0.109657 5.78271L0.110338 5.77928L2.07189 6.16958ZM2.04121 6.36464L4.02253 6.6373L4.02253 6.63735L2.04121 6.36464ZM2.04086 6.36715L4.02221 6.63986L4.02071 6.65031L2.04086 6.36715ZM2.03857 6.38314L0.0588644 6.09894L0.0588648 6.09894L2.03857 6.38314ZM2.01778 6.55079L4.01054 6.72119L4.0096 6.73153L2.01778 6.55079ZM2.00721 6.75211L0.00834191 6.68484L0.00834239 6.68483L2.00721 6.75211ZM2.00719 6.75276L0.00831437 6.68566L0.00831997 6.68549L2.00719 6.75276ZM2.00378 6.8096L0.00914085 6.66322L0.00914097 6.66322L2.00378 6.8096ZM2.00227 6.92614L3.99449 6.74987L4.00553 6.87464L4.00091 6.99981L2.00227 6.92614ZM2.0026 6.94364L0.00474238 7.0362L0.00474215 7.0362L2.0026 6.94364ZM2.00303 6.95766H4.00303V6.98223L4.00242 7.0068L2.00303 6.95766ZM2.00248 6.97305L0.00415576 6.8912L0.00415587 6.8912L2.00248 6.97305ZM2.00189 7.00384L0.00293136 7.06832L0.002684 7.06065L0.00249541 7.05298L2.00189 7.00384ZM2.00353 7.02395L0.0146679 7.23474L0.014667 7.23473L2.00353 7.02395ZM2.00492 7.03903L4.00077 6.91027L4.00452 6.96848L4.00488 7.02682L2.00492 7.03903ZM5.95521 10.8522L5.95723 8.85221L7.46279 8.85373L7.87775 10.301L5.95521 10.8522ZM5.959 10.8654L5.93937 12.8653L4.44763 12.8507L4.03646 11.4166L5.959 10.8654ZM6.35172 10.8332L6.07711 8.85209L6.11914 8.84627L6.16138 8.84223L6.35172 10.8332ZM8.83025 9.65251L7.40051 8.25399L7.44047 8.21314L7.48269 8.17464L8.83025 9.65251ZM8.8683 9.61938L10.1639 11.143L10.1639 11.143L8.8683 9.61938ZM8.94564 9.54657L7.43875 8.23155L7.44588 8.22338L7.4531 8.21529L8.94564 9.54657ZM12.4117 7.95796L12.4853 9.95661L12.4851 9.95661L12.4117 7.95796ZM14.852 8.48432L13.9026 10.2446L13.9025 10.2446L14.852 8.48432ZM16.1641 9.46323L14.844 10.9657V10.9657L16.1641 9.46323ZM16.7918 9.99322L18.0234 8.41742L18.0661 8.45074L18.1068 8.48631L16.7918 9.99322ZM19.4494 10.9864L19.4515 8.9864L20.9631 8.98795L21.3741 10.4426L19.4494 10.9864ZM19.4532 11L19.4333 12.9999L17.9358 12.985L17.5286 11.5438L19.4532 11ZM19.8519 10.9668L19.5733 8.98626L19.6159 8.98026L19.6588 8.9761L19.8519 10.9668ZM22.368 9.75028L20.9279 8.36243L20.9675 8.32128L21.0095 8.28246L22.368 9.75028ZM22.4065 9.71621L21.0973 8.20422L21.0973 8.20421L22.4065 9.71621ZM22.4851 9.64114L20.9755 8.32921L20.9828 8.3209L22.4851 9.64114ZM26.0036 8.00432L26.0783 10.0029L26.0782 10.0029L26.0036 8.00432ZM28.4809 8.54665L27.5205 10.301L27.5204 10.301L28.4809 8.54665ZM29.8128 9.55526L31.144 8.06262L31.144 8.06262L29.8128 9.55526ZM30.4742 10.1204L29.2391 11.6935L29.2375 11.6922L30.4742 10.1204ZM30.6119 10.2222L31.7767 8.59638L31.7769 8.59652L30.6119 10.2222ZM30.6259 10.2322L29.4707 11.8649L29.4609 11.8578L30.6259 10.2322ZM30.6482 10.248L31.8051 8.61657L31.8051 8.61658L30.6482 10.248ZM30.7872 10.3436L29.7105 12.0291L29.7015 12.0233L30.7872 10.3436ZM30.9215 10.424L29.9189 12.1546L29.9189 12.1546L30.9215 10.424ZM30.9489 10.4399L29.948 12.1714L29.9432 12.1687L30.9489 10.4399ZM31.1213 10.5358L32.0359 8.75718L32.0371 8.75782L31.1213 10.5358ZM31.2711 10.6072L30.4388 12.4258L30.4388 12.4258L31.2711 10.6072ZM31.2934 10.6174L30.4669 12.4386L30.4592 12.4351L31.2934 10.6174ZM31.314 10.6268L30.4859 12.4473L30.4857 12.4472L31.314 10.6268ZM31.4743 10.6963L32.2064 8.83514L32.2174 8.83949L32.2284 8.84397L31.4743 10.6963ZM31.6433 10.7577L32.2897 8.86504L32.2899 8.86511L31.6433 10.7577ZM31.6583 10.7628L32.3049 8.87022L32.3092 8.87168L31.6583 10.7628ZM31.8442 10.8236L31.2928 12.7462L31.2804 12.7425L31.8442 10.8236ZM32.0401 10.8731L31.5813 12.8198L31.5811 12.8197L32.0401 10.8731ZM32.0576 10.8772L32.5163 8.93054L32.5167 8.93063L32.0576 10.8772ZM32.229 10.9146L32.5902 8.94751L32.5982 8.94901L32.229 10.9146ZM32.436 10.9456L32.6946 8.96239L32.7061 8.96389L32.7175 8.96552L32.436 10.9456ZM32.6284 10.969L32.4669 12.9625L32.4546 12.9614L32.6284 10.969ZM32.8397 10.9792L32.9038 8.98025L32.9117 8.9805L32.9196 8.98081L32.8397 10.9792ZM32.8949 10.9825L33.0317 8.98716L33.0317 8.98716L32.8949 10.9825ZM33.0139 10.9849L33.1555 12.9798L33.1555 12.9798L33.0139 10.9849ZM33.0417 10.9834L33.0046 8.98372L33.0053 8.9837L33.0417 10.9834ZM33.0705 10.984L33.1548 8.98578L33.1548 8.98578L33.0705 10.984ZM33.1028 10.9845L33.0286 8.98588L33.0421 8.98538L33.0556 8.98506L33.1028 10.9845ZM33.1843 10.9786L33.3785 12.9691L33.3785 12.9691L33.1843 10.9786ZM33.2445 10.9736L33.3725 12.9695L33.3644 12.97L33.3562 12.9704L33.2445 10.9736ZM33.4546 10.9569L33.6972 12.9422L33.6839 12.9438L33.6706 12.9452L33.4546 10.9569ZM33.6474 10.9275L33.3107 8.95601L33.3217 8.95414L33.3327 8.95238L33.6474 10.9275ZM33.8521 10.8908L34.2803 12.8445L34.2779 12.845L33.8521 10.8908ZM34.0176 10.8492L33.4998 8.91742L33.4999 8.91739L34.0176 10.8492ZM34.0399 10.8433L33.5239 8.91096L33.5256 8.9105L34.0399 10.8433ZM34.2343 10.7877L33.6147 8.88608L33.6251 8.88275L34.2343 10.7877ZM34.4118 10.7242L35.1181 12.5954L35.1179 12.5954L34.4118 10.7242ZM34.4186 10.7216L35.1283 12.5915L35.1248 12.5928L34.4186 10.7216ZM34.4264 10.7187L33.7167 8.84883L33.7168 8.84882L34.4264 10.7187ZM34.5999 10.6499L33.8077 8.81347L33.8107 8.81216L34.5999 10.6499ZM34.7787 10.5654L35.6755 12.3531L35.6657 12.3579L34.7787 10.5654ZM34.7789 10.5653L33.882 8.77764L33.8895 8.77388L33.8971 8.77018L34.7789 10.5653ZM34.7937 10.558L33.9119 8.76289L33.9121 8.7628L34.7937 10.558ZM34.9475 10.4792L33.9742 8.73195L33.9789 8.72936L34.9475 10.4792ZM35.0965 10.3905L36.1465 12.0927L36.1464 12.0927L35.0965 10.3905ZM35.118 10.3772L36.1717 12.0772L36.1663 12.0805L35.118 10.3772ZM35.14 10.3636L36.1919 12.0646L36.1918 12.0647L35.14 10.3636ZM35.2759 10.2768L36.4122 11.9226L36.4032 11.9287L35.2759 10.2768ZM35.4235 10.1681L34.2138 8.57543L34.214 8.57524L35.4235 10.1681ZM35.4341 10.1601L34.2246 8.56723L34.2276 8.56496L35.4341 10.1601ZM35.5816 10.0445L34.2946 8.51355L34.2965 8.51195L35.5816 10.0445ZM35.7057 9.93421L37.0553 11.4102L37.0551 11.4104L35.7057 9.93421ZM35.726 9.9157L37.0852 11.3828L37.0795 11.3881L37.0738 11.3933L35.726 9.9157ZM35.7387 9.90394L34.3794 8.43683L34.3797 8.43656L35.7387 9.90394ZM35.8639 9.78465L37.2901 11.1867L37.2842 11.1927L35.8639 9.78465ZM35.9911 9.64693L37.4822 10.9797L37.4814 10.9807L35.9911 9.64693ZM35.9925 9.64529L34.5014 8.31247L34.5039 8.3096L35.9925 9.64529ZM36.0012 9.63567L34.5126 8.29999L34.5126 8.29994L36.0012 9.63567ZM36.1193 9.49951L37.6731 10.7587L37.6731 10.7588L36.1193 9.49951ZM36.2326 9.35033L34.6203 8.16679L34.6281 8.15627L36.2326 9.35033ZM36.3459 9.19209L38.0127 10.2975L38.0086 10.3036L36.3459 9.19209ZM36.4249 9.06505L38.1384 10.0966L38.1383 10.0967L36.4249 9.06505ZM36.4442 9.03309L38.1636 10.0547L38.1593 10.062L38.1548 10.0693L36.4442 9.03309ZM36.4497 9.02384L38.1692 10.0453L38.1691 10.0454L36.4497 9.02384ZM36.5418 8.86314L34.7759 7.92409L34.7766 7.92286L36.5418 8.86314ZM36.6203 8.70324L34.8112 7.85066L34.8113 7.8503L36.6203 8.70324ZM36.6247 8.69394L38.4347 9.54484L38.4337 9.54688L36.6247 8.69394ZM36.6346 8.67292L34.8246 7.82202L34.8249 7.82144L36.6346 8.67292ZM36.705 8.51644L34.8541 7.75874L34.8557 7.75469L36.705 8.51644ZM36.7617 8.3654L34.8787 7.69151L34.8788 7.69115L36.7617 8.3654ZM36.7726 8.33515L38.6568 9.00579L38.6543 9.01289L36.7726 8.33515ZM36.834 8.15274L34.9181 7.57894L34.9198 7.57333L36.834 8.15274ZM36.8836 7.96431L38.8268 8.43756L38.8267 8.4381L36.8836 7.96431ZM36.8847 7.95975L38.8279 8.43295L38.8279 8.433L36.8847 7.95975ZM36.889 7.94233L34.9458 7.46913L34.946 7.46834L36.889 7.94233ZM36.927 7.77394L34.9621 7.40075L34.9637 7.39256L36.927 7.77394ZM36.9585 7.57095L38.9451 7.80129L38.9429 7.82056L38.9403 7.83978L36.9585 7.57095ZM36.9585 7.57075L34.9718 7.34041L34.9746 7.31631L34.978 7.29229L36.9585 7.57075ZM36.9614 7.55019L34.9808 7.27173L34.9809 7.27122L36.9614 7.55019ZM36.9819 7.38154L34.9889 7.21366L34.9898 7.20344L36.9819 7.38154ZM36.9927 7.17344L34.9937 7.10753L34.994 7.09912L34.9944 7.09072L36.9927 7.17344ZM36.996 7.11932L38.9909 7.26126L38.9909 7.26147L36.996 7.11932ZM36.9987 7.00571L35.003 7.1363L35.0029 7.13496L36.9987 7.00571ZM36.998 6.99481L35.0012 7.10655L34.998 7.05072V6.99481H36.998ZM36.9973 6.96195L38.9967 7.01003L38.9964 7.01998L38.9961 7.02992L36.9973 6.96195ZM36.998 6.91436L38.997 6.85102L38.9973 6.85897L38.9975 6.86693L36.998 6.91436ZM36.9959 6.88795L35.0068 7.09659L35.0068 7.09593L36.9959 6.88795ZM36.995 6.87848L35.0039 7.0674L34.9955 6.97915L34.995 6.89052L36.995 6.87848ZM32.9849 2.94959L32.9832 4.94959L31.4713 4.9483L31.0602 3.49336L32.9849 2.94959ZM32.981 2.93599L33.0009 0.936091L34.4985 0.951003L34.9057 2.39222L32.981 2.93599ZM32.5824 2.96923L32.861 4.94972L32.8606 4.94978L32.5824 2.96923ZM31.0257 3.45076L31.9921 5.2018L31.9912 5.20226L31.0257 3.45076ZM29.9331 4.28983L31.2686 5.7786L31.2686 5.7786L29.9331 4.28983ZM28.9003 5.09551L27.8955 3.36624L27.8956 3.36616L28.9003 5.09551ZM26.2671 5.86293L26.1924 3.86433L26.1926 3.86432L26.2671 5.86293ZM23.9534 5.38896L24.8121 3.58269L24.8133 3.58323L23.9534 5.38896ZM22.615 4.38966L23.9757 2.92391L23.9757 2.92392L22.615 4.38966ZM21.9605 3.81521L23.1881 2.23629L23.1971 2.24338L21.9605 3.81521ZM21.8317 3.7205L20.6682 5.34725L20.6682 5.34722L21.8317 3.7205ZM21.8084 3.70379L22.9694 2.07531L22.974 2.07855L21.8084 3.70379ZM21.7964 3.69527L20.6354 5.32376L20.6353 5.32367L21.7964 3.69527ZM21.6471 3.59276L20.5749 5.28107L20.5683 5.27692L20.5618 5.27273L21.6471 3.59276ZM21.5107 3.51074L20.5078 5.24115L20.5078 5.24114L21.5107 3.51074ZM21.4854 3.49608L22.4867 1.7648L22.491 1.76729L21.4854 3.49608ZM21.4721 3.48843L20.4708 5.2197L20.4706 5.21959L21.4721 3.48843ZM21.3129 3.40015L20.4075 5.18346L20.3998 5.17956L20.3922 5.17559L21.3129 3.40015ZM21.1409 3.31819L21.9674 1.49698L21.9704 1.49835L21.1409 3.31819ZM21.1196 3.30852L21.9478 1.48806L21.9478 1.48806L21.1196 3.30852ZM20.9603 3.23926L21.6904 1.37727L21.6964 1.37963L20.9603 3.23926ZM20.8029 3.18207L20.1437 5.07031L20.1437 5.0703L20.8029 3.18207ZM20.7764 3.17279L21.4133 1.27692L21.4255 1.28102L21.4376 1.28527L20.7764 3.17279ZM20.7498 3.16384L20.1109 5.05906L20.1109 5.05906L20.7498 3.16384ZM20.5905 3.11236L21.1522 1.19287L21.1574 1.19441L20.5905 3.11236ZM20.4142 3.0676L20.8718 1.12064L20.8719 1.12066L20.4142 3.0676ZM20.3942 3.06289L19.9353 5.00952L19.9222 5.00643L19.9092 5.00317L20.3942 3.06289ZM20.3942 3.06288L20.8633 1.11868L20.8713 1.12061L20.8793 1.1226L20.3942 3.06288ZM20.2053 3.02097L20.5659 1.05376L20.5665 1.05386L20.2053 3.02097ZM19.9986 2.99L19.7386 4.97305L19.7304 4.97192L19.9986 2.99ZM19.9926 2.98919L19.7244 4.97111L19.7241 4.97108L19.9926 2.98919ZM19.8062 2.96696L19.9785 0.974392L19.9801 0.974537L19.8062 2.96696ZM19.669 0.957772C19.6778 0.958099 19.6868 0.958421 19.6978 0.958814L19.5555 4.95628C19.5451 4.95591 19.5328 4.95547 19.5201 4.955L19.669 0.957772ZM19.6739 0.957816C19.6792 0.958189 19.6818 0.958369 19.684 0.958519C19.686 0.95865 19.686 0.958645 19.6848 0.958575C19.6827 0.958448 19.673 0.95787 19.6585 0.957409L19.5306 4.95536C19.4669 4.95333 19.4098 4.94911 19.396 4.94815L19.6739 0.957816ZM19.4532 0.949211C19.5617 0.949211 19.6578 0.956694 19.6739 0.957815L19.396 4.94815C19.3885 4.94763 19.3861 4.94747 19.3845 4.94736C19.3833 4.94728 19.3857 4.94745 19.3903 4.94769C19.3992 4.94815 19.422 4.94921 19.4532 4.94921V0.949211ZM19.2735 0.95631C19.2754 0.956166 19.2992 0.954328 19.3261 0.952819C19.3552 0.951187 19.3996 0.949211 19.4532 0.949211V4.94921C19.4967 4.94921 19.531 4.94761 19.55 4.94655C19.5668 4.94561 19.5805 4.94452 19.5723 4.94513L19.2735 0.95631ZM19.3926 0.952231C19.3491 0.952231 19.3149 0.953826 19.2959 0.954889C19.2791 0.955832 19.2654 0.956914 19.2735 0.95631L19.5723 4.94513C19.5703 4.94528 19.5466 4.94712 19.5196 4.94863C19.4905 4.95026 19.4462 4.95223 19.3926 4.95223V0.952231ZM19.4489 0.953412C19.4561 0.953715 19.4454 0.953221 19.4321 0.952863C19.4169 0.952453 19.39 0.951943 19.356 0.952566L19.4292 4.9519C19.349 4.95336 19.2797 4.94983 19.2791 4.9498L19.4489 0.953412ZM19.2587 0.952425C19.3145 0.950391 19.361 0.950829 19.3924 0.951528C19.4213 0.95217 19.4467 0.953317 19.4488 0.953406L19.2792 4.94981C19.2706 4.94944 19.2853 4.95013 19.3033 4.95054C19.3239 4.95099 19.3595 4.95141 19.4043 4.94977L19.2587 0.952425ZM19.0451 0.967813C19.0631 0.966 19.1594 0.955524 19.2686 0.952088L19.3944 4.95011C19.4242 4.94917 19.4457 4.9475 19.4539 4.94682C19.458 4.94648 19.4601 4.94627 19.4585 4.94642C19.4565 4.94662 19.4537 4.94689 19.4459 4.94768L19.0451 0.967813ZM19.0474 0.967882C19.0379 0.968556 19.032 0.969113 19.0319 0.969123C19.0318 0.969135 19.0326 0.969063 19.0348 0.968838C19.0373 0.968594 19.0401 0.968313 19.045 0.967819L19.4459 4.94767C19.432 4.94908 19.3847 4.95398 19.3322 4.95773L19.0474 0.967882ZM19.0788 0.965889L19.0788 0.965886L19.3007 4.95973L19.3007 4.95973L19.0788 0.965889ZM18.7423 0.993558C18.8813 0.976945 19.0117 0.969844 19.0717 0.966295L19.3078 4.95932C19.2701 4.96155 19.2499 4.96278 19.2322 4.96409C19.2161 4.96528 19.2128 4.9658 19.217 4.96529L18.7423 0.993558ZM18.4795 1.03181C18.5285 1.02368 18.639 1.0049 18.7599 0.991533L19.1994 4.96732C19.205 4.9667 19.2042 4.96665 19.1925 4.96842C19.1793 4.97042 19.1639 4.97294 19.1328 4.97808L18.4795 1.03181ZM18.4616 1.03477C18.4672 1.03383 18.473 1.03288 18.4795 1.03179L19.1328 4.97809C19.1265 4.97913 19.1194 4.98031 19.1122 4.98149L18.4616 1.03477ZM18.4406 1.03823C18.4476 1.03708 18.4538 1.03605 18.4599 1.03504L19.1139 4.98122C19.1063 4.98247 19.0988 4.98371 19.0921 4.98481L18.4406 1.03823ZM18.1564 1.09099C18.2753 1.06507 18.3876 1.04698 18.4406 1.03823L19.0921 4.98481C19.0592 4.99024 19.0409 4.99329 19.0248 4.99617C19.0099 4.99881 19.0058 4.99976 19.008 4.99929L18.1564 1.09099ZM17.8674 1.1634C17.9209 1.14878 18.0362 1.11676 18.1626 1.08964L19.0017 5.00064C19.0052 4.99989 19.0021 5.00048 18.988 5.00411C18.9724 5.00813 18.9547 5.01295 18.9213 5.02205L17.8674 1.1634ZM17.5805 1.24662C17.7052 1.20597 17.824 1.17491 17.8801 1.15997L18.9086 5.02548C18.8738 5.03475 18.8543 5.03996 18.8372 5.04476C18.8215 5.04917 18.8172 5.05064 18.8196 5.04986L17.5805 1.24662ZM17.3062 1.34454C17.3628 1.32306 17.4694 1.28233 17.5875 1.24434L18.8125 5.05214C18.8126 5.05212 18.811 5.05264 18.8073 5.0539C18.8037 5.05517 18.7984 5.05702 18.7911 5.05968C18.7751 5.06551 18.7565 5.07252 18.7259 5.08413L17.3062 1.34454ZM17.2937 1.34925C17.2995 1.34708 17.3048 1.34507 17.31 1.3431L18.7221 5.08557C18.7157 5.08798 18.7094 5.09034 18.7036 5.09254L17.2937 1.34925ZM17.0422 1.44931C17.1465 1.4043 17.2459 1.36725 17.2937 1.34926L18.7036 5.09253C18.6742 5.10363 18.6575 5.10991 18.6429 5.11564C18.6294 5.12089 18.6253 5.1227 18.6266 5.12212L17.0422 1.44931ZM16.7938 1.56583C16.8386 1.54373 16.9322 1.4972 17.0356 1.45216L18.6332 5.11927C18.6347 5.11862 18.6309 5.12022 18.6186 5.12613C18.605 5.13262 18.5898 5.14011 18.5621 5.15371L16.7938 1.56583ZM16.7733 1.5759C16.7798 1.57275 16.7863 1.56952 16.7938 1.5658L18.5621 5.15373C18.5549 5.15731 18.5466 5.16136 18.5383 5.16548L16.7733 1.5759ZM16.7587 1.58307C16.764 1.5805 16.7687 1.57819 16.7733 1.57591L18.5383 5.16546C18.5326 5.16827 18.5269 5.17104 18.5218 5.17354L16.7587 1.58307ZM16.5188 1.70668C16.6188 1.65133 16.7144 1.60486 16.7587 1.58308L18.5219 5.17353C18.4942 5.18712 18.4794 5.19443 18.4664 5.20099C18.4547 5.20692 18.4521 5.20842 18.4548 5.20692L16.5188 1.70668ZM16.2598 1.86057C16.3121 1.82804 16.4093 1.76728 16.5182 1.70698L18.4554 5.20661C18.4483 5.21052 18.4334 5.21926 18.3727 5.25697L16.2598 1.86057ZM16.2482 1.86775C16.2532 1.86464 16.2579 1.86176 16.2624 1.85894L18.3701 5.2586C18.3646 5.26203 18.3591 5.2654 18.3541 5.26853L16.2482 1.86775ZM16.1642 1.92019C16.1962 1.89992 16.2271 1.88083 16.2482 1.86777L18.3541 5.26852C18.3302 5.28335 18.316 5.29211 18.3034 5.30013L16.1642 1.92019ZM14.9581 2.85429C15.2374 2.60738 15.6723 2.21582 16.2021 1.89679L18.2655 5.32353C18.0994 5.42349 17.9312 5.56498 17.607 5.85147L14.9581 2.85429ZM14.2716 3.39905C14.4415 3.30183 14.613 3.15923 14.9581 2.85429L17.607 5.85147C17.3113 6.11279 16.8418 6.53683 16.2586 6.8706L14.2716 3.39905ZM12.5979 3.88099C13.1767 3.85975 13.7641 3.6896 14.2715 3.39913L16.2588 6.87052C15.2014 7.47588 13.984 7.83283 12.7445 7.8783L12.5979 3.88099ZM11.2415 3.60899C11.6561 3.80348 12.1233 3.89847 12.5976 3.881L12.7448 7.87829C11.6467 7.91873 10.5453 7.70069 9.54259 7.23027L11.2415 3.60899ZM10.4234 2.97398C10.8471 3.36149 11.0272 3.50863 11.2404 3.60847L9.54371 7.23079C8.69889 6.83508 8.09903 6.26879 7.72377 5.92555L10.4234 2.97398ZM9.65413 2.31152C9.95957 2.54829 10.2261 2.79346 10.4234 2.97398L7.72377 5.92555C7.50981 5.72985 7.35997 5.59421 7.20353 5.47294L9.65413 2.31152ZM9.45403 2.16544C9.49125 2.19167 9.56676 2.24456 9.64507 2.30454L7.21259 5.47992C7.21276 5.48006 7.21175 5.47928 7.20922 5.47741C7.20667 5.47553 7.20296 5.47282 7.19768 5.46901C7.18589 5.46053 7.17266 5.45119 7.14995 5.43519L9.45403 2.16544ZM9.43314 2.15071C9.43958 2.15526 9.44622 2.15994 9.45403 2.16545L7.14995 5.43518C7.14243 5.42988 7.13373 5.42376 7.12487 5.41749L9.43314 2.15071ZM9.41631 2.13888C9.42055 2.14186 9.42437 2.14454 9.42815 2.1472L7.12985 5.421C7.12536 5.41785 7.12089 5.41471 7.11685 5.41187L9.41631 2.13888ZM9.18663 1.9842C9.28604 2.04683 9.37513 2.10995 9.41635 2.13891L7.11681 5.41185C7.09106 5.39375 7.07725 5.38408 7.06505 5.37573C7.05399 5.36817 7.05148 5.36668 7.05432 5.36847L9.18663 1.9842ZM8.97847 1.86052C9.01703 1.88253 9.10088 1.93002 9.18878 1.98556L7.05217 5.36711C7.05495 5.36887 7.05309 5.36761 7.04317 5.3618C7.03215 5.35535 7.01944 5.34806 6.99531 5.33429L8.97847 1.86052ZM8.95525 1.84725C8.96227 1.85127 8.96953 1.85542 8.97842 1.86049L6.99536 5.33432C6.98687 5.32947 6.97675 5.3237 6.96637 5.31775L8.95525 1.84725ZM8.93758 1.83717C8.94219 1.8398 8.94638 1.84219 8.95051 1.84454L6.97112 5.32046C6.96618 5.31765 6.9613 5.31487 6.95684 5.31232L8.93758 1.83717ZM8.69079 1.70307C8.79748 1.7568 8.89377 1.8122 8.93768 1.83723L6.95674 5.31227C6.92915 5.29654 6.91457 5.28826 6.90179 5.28119C6.89024 5.2748 6.88811 5.27384 6.89185 5.27572L8.69079 1.70307ZM8.44083 1.58541C8.49061 1.60777 8.59132 1.65259 8.69639 1.70591L6.88624 5.27289C6.88644 5.27299 6.88503 5.27227 6.8816 5.27062C6.87814 5.26895 6.87313 5.26658 6.86602 5.26328C6.85017 5.25594 6.83242 5.24794 6.80205 5.2343L8.44083 1.58541ZM8.41841 1.57537C8.42558 1.57858 8.43177 1.58136 8.43783 1.58407L6.80505 5.23564C6.79707 5.23208 6.78923 5.22856 6.78238 5.22549L8.41841 1.57537ZM8.17025 1.46992C8.27711 1.51159 8.374 1.55546 8.41843 1.57538L6.78236 5.22549C6.7545 5.213 6.73986 5.20646 6.72706 5.20091C6.71554 5.19592 6.71338 5.19518 6.71699 5.19658L8.17025 1.46992ZM7.93905 1.38649C7.985 1.40229 8.07246 1.43213 8.16432 1.46762L6.72291 5.19888C6.71242 5.19483 6.69586 5.18889 6.63803 5.16899L7.93905 1.38649ZM7.91487 1.37816C7.92246 1.38078 7.93023 1.38346 7.93905 1.38649L6.63803 5.16899C6.6294 5.16603 6.61975 5.1627 6.60991 5.15931L7.91487 1.37816ZM7.86662 1.362C7.87547 1.36494 7.88323 1.36752 7.89083 1.37004L6.63395 5.16744C6.62409 5.16417 6.61441 5.16096 6.60582 5.15811L7.86662 1.362ZM7.63851 1.28987C7.73305 1.3174 7.82029 1.34662 7.8666 1.362L6.60584 5.15811C6.54791 5.13887 6.53115 5.13355 6.52003 5.13031L7.63851 1.28987ZM7.36253 1.21946C7.41065 1.23065 7.51887 1.25536 7.63339 1.28838L6.52515 5.13179C6.53002 5.1332 6.52849 5.13263 6.51615 5.12959C6.50247 5.12622 6.48663 5.12251 6.45614 5.11541L7.36253 1.21946ZM7.34136 1.21453C7.34793 1.21606 7.35469 1.21763 7.36247 1.21944L6.4562 5.11543C6.44862 5.11366 6.44003 5.11166 6.43127 5.10962L7.34136 1.21453ZM7.34151 1.21455L7.34608 1.21564L6.42655 5.10851L6.42198 5.10743L7.34151 1.21455ZM7.05587 1.15334C7.17802 1.17544 7.28967 1.2023 7.34175 1.21461L6.42174 5.10737C6.38933 5.09971 6.37211 5.09567 6.35702 5.09232C6.34344 5.0893 6.3404 5.08883 6.34372 5.08943L7.05587 1.15334ZM6.75245 1.10781C6.82061 1.11661 6.93373 1.13128 7.05529 1.15323L6.34429 5.08954C6.33192 5.0873 6.30808 5.08364 6.24003 5.07485L6.75245 1.10781ZM6.75505 1.10814L6.76094 1.10892L6.23155 5.07374L6.22566 5.07295L6.75505 1.10814ZM6.47805 1.07632C6.59437 1.08633 6.70104 1.10093 6.75498 1.10813L6.22573 5.07296C6.19319 5.06861 6.17451 5.06614 6.15772 5.06411C6.14238 5.06224 6.13617 5.06169 6.13533 5.06161L6.47805 1.07632ZM6.2 1.06106C6.25071 1.06284 6.35985 1.06625 6.47642 1.07618L6.13696 5.06175C6.14032 5.06204 6.13732 5.06171 6.12365 5.06106C6.10861 5.06034 6.09143 5.05972 6.05964 5.0586L6.2 1.06106ZM6.17145 1.06005C6.18023 1.06037 6.18926 1.06069 6.20002 1.06106L6.05963 5.0586C6.04934 5.05824 6.0373 5.05782 6.025 5.05736L6.17145 1.06005ZM6.17635 1.06009C6.18162 1.06046 6.18419 1.06063 6.18638 1.06078C6.1883 1.0609 6.18831 1.0609 6.18716 1.06083C6.18508 1.06071 6.17543 1.06015 6.16121 1.0597L6.03524 5.05771C5.97246 5.05574 5.91611 5.05164 5.90259 5.05071L6.17635 1.06009ZM5.959 1.05174C6.06581 1.05174 6.16049 1.05901 6.17633 1.06009L5.90261 5.05072C5.89522 5.05021 5.89286 5.05005 5.89121 5.04994C5.89004 5.04987 5.89244 5.05003 5.89698 5.05026C5.90572 5.05071 5.9282 5.05174 5.959 5.05174V1.05174ZM5.78192 1.05863C5.78382 1.05849 5.80723 1.05671 5.83375 1.05524C5.86242 1.05366 5.90613 1.05174 5.959 1.05174V5.05174C6.00183 5.05174 6.03557 5.05019 6.05428 5.04916C6.07085 5.04824 6.08432 5.04719 6.0763 5.04778L5.78192 1.05863ZM5.89922 1.05467C5.85638 1.05467 5.82263 1.05622 5.80391 1.05726C5.78731 1.05818 5.77384 1.05923 5.78182 1.05864L6.07639 5.04778C6.07444 5.04792 6.05103 5.04971 6.02448 5.05117C5.9958 5.05276 5.95208 5.05467 5.89922 5.05467V1.05467ZM5.95466 1.05581C5.96174 1.05611 5.95123 1.05563 5.93817 1.05529C5.92325 1.05489 5.89683 1.05439 5.86335 1.055L5.93508 5.05435C5.85625 5.05577 5.78805 5.05234 5.78753 5.05232L5.95466 1.05581ZM5.76735 1.05486C5.8224 1.05289 5.8682 1.05331 5.89913 1.05399C5.92754 1.05462 5.95259 1.05573 5.95464 1.05581L5.78755 5.05232C5.77901 5.05197 5.79348 5.05264 5.81125 5.05303C5.83153 5.05347 5.86661 5.05387 5.91077 5.05229L5.76735 1.05486ZM5.55682 1.0698C5.57455 1.06804 5.6695 1.05787 5.77709 1.05453L5.90103 5.05261C5.93037 5.0517 5.95163 5.05008 5.95965 5.04942C5.96378 5.04908 5.96579 5.04888 5.96427 5.04903C5.96227 5.04922 5.95955 5.04948 5.95182 5.05025L5.55682 1.0698ZM5.55919 1.06986C5.54985 1.07052 5.54399 1.07106 5.54388 1.07107C5.54375 1.07108 5.54451 1.07101 5.54676 1.0708C5.5492 1.07056 5.55194 1.07028 5.55678 1.0698L5.95186 5.05025C5.93817 5.05161 5.89153 5.05637 5.83972 5.06001L5.55919 1.06986ZM5.58198 1.06839L5.58201 1.06839L5.81689 5.06149L5.81687 5.06149L5.58198 1.06839ZM5.25861 1.09479C5.39559 1.07866 5.52403 1.07176 5.58315 1.06832L5.8157 5.06156C5.77862 5.06371 5.75869 5.06491 5.74128 5.06618C5.72546 5.06734 5.72219 5.06784 5.72639 5.06734L5.25861 1.09479ZM4.99956 1.13192C5.0479 1.12403 5.15678 1.1058 5.27592 1.09283L5.70907 5.0693C5.71461 5.0687 5.71376 5.06865 5.70229 5.07037C5.68927 5.07231 5.6741 5.07476 5.64351 5.07975L4.99956 1.13192ZM4.98189 1.1348C4.98744 1.1339 4.99308 1.13298 4.99954 1.13192L5.64353 5.07974C5.63735 5.08075 5.63035 5.08189 5.62324 5.08305L4.98189 1.1348ZM4.96124 1.13816C4.96813 1.13704 4.97424 1.13605 4.98025 1.13507L5.62488 5.08278C5.61741 5.084 5.61002 5.0852 5.60341 5.08628L4.96124 1.13816ZM4.68111 1.1894C4.7984 1.16422 4.90906 1.14665 4.96125 1.13816L5.6034 5.08628C5.571 5.09155 5.55299 5.0945 5.53709 5.0973C5.52252 5.09985 5.51848 5.10077 5.52071 5.10029L4.68111 1.1894ZM4.40838 1.25647C4.45848 1.24306 4.56745 1.21341 4.6873 1.18808L5.51452 5.10161C5.51867 5.10073 5.51657 5.10107 5.50409 5.10423C5.49006 5.10778 5.47392 5.11207 5.44254 5.12047L4.40838 1.25647ZM4.39897 1.25899L4.40853 1.25643L5.44239 5.12051L5.43283 5.12307L4.39897 1.25899ZM4.11651 1.33955C4.23707 1.30108 4.35006 1.27178 4.40874 1.2564L5.42306 5.12566C5.39004 5.13431 5.3705 5.13949 5.35368 5.14415C5.33804 5.14848 5.33228 5.15031 5.33241 5.15027L4.11651 1.33955ZM3.84256 1.43581C3.89832 1.41495 4.00358 1.37534 4.12017 1.33839L5.32874 5.15144C5.32887 5.1514 5.32734 5.15188 5.32382 5.15308C5.32027 5.15429 5.31516 5.15607 5.308 5.15864C5.29229 5.16427 5.27403 5.17104 5.2439 5.18231L3.84256 1.43581ZM3.83028 1.44036C3.83606 1.43822 3.8413 1.43627 3.84645 1.43436L5.24001 5.18376C5.23374 5.18609 5.22754 5.18839 5.2219 5.19048L3.83028 1.44036ZM3.58196 1.53769C3.68506 1.49387 3.78328 1.4578 3.83023 1.44038L5.22194 5.19046C5.19289 5.20125 5.17659 5.20732 5.16219 5.21285C5.14899 5.21793 5.14507 5.21963 5.14659 5.21898L3.58196 1.53769ZM3.33655 1.65111C3.38067 1.62968 3.4732 1.58436 3.57541 1.54048L5.15314 5.21619C5.15481 5.21547 5.15127 5.21695 5.13922 5.22263C5.12595 5.22888 5.11101 5.23611 5.0838 5.24932L3.33655 1.65111ZM3.31648 1.66085C3.32275 1.65781 3.32919 1.65469 3.33654 1.65111L5.0838 5.24932C5.07661 5.25281 5.0685 5.25675 5.06021 5.26077L3.31648 1.66085ZM3.30202 1.66784C3.3072 1.66534 3.31188 1.66308 3.31649 1.66084L5.0602 5.26077C5.05464 5.26346 5.04913 5.26613 5.04414 5.26854L3.30202 1.66784ZM3.06483 1.78823C3.16392 1.73423 3.25844 1.68893 3.30204 1.66784L5.04412 5.26855C5.01685 5.28175 5.00232 5.2888 4.98969 5.29511C4.97826 5.3008 4.97595 5.30215 4.97891 5.30053L3.06483 1.78823ZM2.80873 1.93816C2.86023 1.9066 2.95644 1.84734 3.06429 1.78852L4.97945 5.30024C4.97882 5.30058 4.97309 5.30373 4.95925 5.31196C4.94441 5.32078 4.92732 5.3312 4.89904 5.34853L2.80873 1.93816ZM2.79737 1.9451C2.80237 1.94205 2.80692 1.93927 2.81139 1.93654L4.89639 5.35015C4.89093 5.35349 4.88555 5.35677 4.88062 5.35978L2.79737 1.9451ZM2.5828 2.08114C2.67141 2.02156 2.75638 1.9701 2.79734 1.94511L4.88064 5.35977C4.85545 5.37514 4.8413 5.38379 4.8288 5.39161C4.81737 5.39876 4.81378 5.40119 4.81473 5.40055L2.5828 2.08114ZM2.33201 2.26233C2.39478 2.21458 2.47818 2.15228 2.57388 2.08718L4.82365 5.39452C4.81266 5.402 4.79315 5.41594 4.75377 5.44589L2.33201 2.26233ZM2.32102 2.27054C2.32835 2.26503 2.33433 2.26055 2.34016 2.25616L4.74562 5.45206C4.73727 5.45834 4.72907 5.4645 4.72223 5.46963L2.32102 2.27054ZM2.12052 2.42715C2.20454 2.35748 2.28539 2.29728 2.32107 2.2705L4.72218 5.46967C4.69953 5.48667 4.68829 5.49514 4.67874 5.50249C4.67031 5.50898 4.66987 5.5095 4.67393 5.50613L2.12052 2.42715ZM1.91188 2.60933C1.95303 2.57204 2.03628 2.49606 2.13035 2.41906L4.6641 5.51423C4.66491 5.51357 4.66098 5.51676 4.6495 5.5269C4.63697 5.53797 4.6229 5.55068 4.59805 5.5732L1.91188 2.60933ZM1.89601 2.6238C1.89977 2.62037 1.90325 2.6172 1.90668 2.61407L4.60326 5.56847C4.59925 5.57213 4.59528 5.57575 4.59159 5.57911L1.89601 2.6238ZM1.70928 2.79991C1.78509 2.72457 1.85927 2.65732 1.89597 2.62384L4.59164 5.57907C4.56927 5.59947 4.55608 5.61153 4.54432 5.62248C4.53903 5.62741 4.53528 5.63096 4.53267 5.63347C4.53007 5.63595 4.52895 5.63706 4.529 5.63701L1.70928 2.79991ZM1.52088 2.99915C1.55363 2.96308 1.62616 2.88251 1.70928 2.79991L4.529 5.63701C4.53246 5.63357 4.53135 5.63451 4.52314 5.64333C4.51392 5.65323 4.50336 5.66481 4.48269 5.68759L1.52088 2.99915ZM1.51195 3.00899C1.51482 3.00583 1.51772 3.00264 1.5209 2.99913L4.48267 5.68761C4.4796 5.69099 4.47624 5.6947 4.47284 5.69844L1.51195 3.00899ZM1.50509 3.01652L1.5136 3.00718L4.4712 5.70025L4.46269 5.70959L1.50509 3.01652ZM1.32219 3.2257C1.39725 3.13428 1.47154 3.05336 1.50524 3.01636L4.46254 5.70975C4.44133 5.73304 4.43025 5.74525 4.42074 5.75596C4.4122 5.76559 4.41093 5.76729 4.41366 5.76397L1.32219 3.2257ZM1.18034 3.40732C1.20591 3.37344 1.26124 3.29965 1.32453 3.22286L4.41132 5.76681C4.41316 5.76457 4.41162 5.76636 4.40482 5.77517C4.39729 5.78493 4.38879 5.79615 4.37284 5.81728L1.18034 3.40732ZM1.16247 3.43095C1.16774 3.424 1.17324 3.41672 1.18035 3.40731L4.37283 5.81729C4.36617 5.82612 4.35791 5.83706 4.3494 5.84829L1.16247 3.43095ZM0.984147 3.67886C1.05288 3.57647 1.12149 3.48555 1.15594 3.43962L4.35593 5.83962C4.3362 5.86593 4.32494 5.88102 4.31546 5.89402C4.30671 5.90603 4.30424 5.90977 4.30525 5.90827L0.984147 3.67886ZM0.844 3.90049C0.869588 3.85836 0.923166 3.76945 0.985593 3.67671L4.3038 5.91043C4.30476 5.909 4.30248 5.91233 4.29528 5.92389C4.28738 5.93656 4.27862 5.95093 4.26284 5.97691L0.844 3.90049ZM0.838471 3.90959L0.844049 3.90041L4.26279 5.97699L4.25721 5.98618L0.838471 3.90959ZM0.691336 4.16294C0.750036 4.05417 0.809249 3.95752 0.840142 3.90685L4.25554 5.98892C4.23871 6.01654 4.2289 6.03273 4.22077 6.04651C4.21323 6.05928 4.21089 6.06366 4.21139 6.06273L0.691336 4.16294ZM0.561133 4.42386C0.583041 4.37741 0.633368 4.2694 0.694774 4.15659L4.20796 6.06907C4.21148 6.06259 4.21132 6.06246 4.20597 6.07339C4.19993 6.08574 4.19299 6.10037 4.17891 6.13023L0.561133 4.42386ZM0.441934 4.68607C0.493261 4.56175 0.548043 4.45047 0.571296 4.40264L4.16875 6.15145C4.15383 6.18214 4.14673 6.19683 4.14089 6.20932C4.13579 6.22023 4.13618 6.2199 4.1392 6.21257L0.441934 4.68607ZM0.354885 4.91295C0.370072 4.87115 0.403773 4.77729 0.445356 4.67783L4.13578 6.22081C4.13763 6.21639 4.13712 6.21734 4.13327 6.22753C4.12895 6.239 4.12407 6.25237 4.11445 6.27884L0.354885 4.91295ZM0.345474 4.93881C0.348302 4.93107 0.351218 4.92305 0.354883 4.91296L4.11446 6.27883C4.11101 6.28832 4.10681 6.29987 4.10249 6.31172L0.345474 4.93881ZM0.329476 4.98349C0.33337 4.9726 0.336314 4.96436 0.339107 4.95649L4.10885 6.29403C4.10418 6.30721 4.09961 6.31999 4.09598 6.33012L0.329476 4.98349ZM0.248904 5.22392C0.280641 5.11886 0.314985 5.02402 0.329478 4.98349L4.09598 6.33013C4.08669 6.35612 4.08235 6.36834 4.0788 6.37866C4.07573 6.38761 4.07606 6.38706 4.07799 6.38069L0.248904 5.22392ZM0.174752 5.49977C0.1869 5.45034 0.214387 5.3362 0.251621 5.215L4.07527 6.38961C4.07739 6.3827 4.07723 6.38257 4.07423 6.39407C4.07082 6.40714 4.06698 6.42259 4.05918 6.45434L0.174752 5.49977ZM0.171797 5.5118C0.172752 5.50791 0.173716 5.50399 0.174757 5.49975L4.05918 6.45435C4.05816 6.45848 4.05707 6.46293 4.05597 6.46742L0.171797 5.5118ZM0.167259 5.53012C0.169096 5.5227 0.170676 5.51633 0.172216 5.51009L4.05555 6.46913C4.0535 6.47742 4.05148 6.48556 4.04972 6.49265L0.167259 5.53012ZM0.110338 5.77928C0.131564 5.67261 0.156047 5.57534 0.167259 5.53011L4.04972 6.49266C4.04275 6.52076 4.03911 6.53556 4.03605 6.54855C4.03331 6.56019 4.03286 6.56277 4.03343 6.55988L0.110338 5.77928ZM0.0598794 6.09198C0.0674962 6.03664 0.0838727 5.9135 0.10966 5.78271L4.03411 6.55646C4.03511 6.55141 4.03453 6.55362 4.03234 6.56804C4.02991 6.58398 4.02734 6.60235 4.02253 6.6373L0.0598794 6.09198ZM0.0595407 6.09444L0.0598861 6.09194L4.02253 6.63735L4.02218 6.63986L0.0595407 6.09444ZM0.0588648 6.09894C0.059644 6.09351 0.0603329 6.08871 0.0610074 6.08399L4.02071 6.65031C4.01987 6.65625 4.01902 6.66211 4.01827 6.66735L0.0588648 6.09894ZM0.0250536 6.3804C0.0355694 6.25742 0.0521909 6.14543 0.0588644 6.09894L4.01827 6.66734C4.0162 6.68182 4.01472 6.69213 4.01336 6.70186C4.01205 6.71118 4.01119 6.71757 4.0106 6.7222C4.00937 6.73176 4.00976 6.72992 4.01051 6.72118L0.0250536 6.3804ZM0.00834239 6.68483C0.0102699 6.62756 0.0139222 6.50277 0.0259657 6.37005L4.0096 6.73153C4.00996 6.7275 4.00956 6.73089 4.0088 6.74661C4.00798 6.7638 4.00729 6.78341 4.00608 6.81939L0.00834239 6.68483ZM0.00831997 6.68549L0.00834191 6.68484L4.00608 6.81937L4.00606 6.82002L0.00831997 6.68549ZM0.00914097 6.66322C0.00951779 6.65808 0.00968015 6.65586 0.00980878 6.65404C0.0099175 6.65251 0.00987566 6.65303 0.00976384 6.6548C0.00955439 6.6581 0.00885844 6.66945 0.00831437 6.68566L4.00606 6.81985C4.00387 6.88515 3.99933 6.94346 3.99841 6.95598L0.00914097 6.66322ZM0 6.88728C0 6.77585 0.00808525 6.6776 0.00914085 6.66322L3.99841 6.95598C3.99788 6.96318 3.99776 6.96499 3.99768 6.96602C3.99765 6.96654 3.99788 6.96324 3.99819 6.95766C3.99878 6.9468 4 6.92144 4 6.88728H0ZM0.0100523 7.1024C0.00991702 7.10087 0 7.00195 0 6.88728H4C4 6.83645 3.9978 6.79687 3.99644 6.77615C3.99518 6.75686 3.9938 6.74214 3.99449 6.74987L0.0100523 7.1024ZM0.00474215 7.0362C0.00471413 7.03559 0.00440359 7.02899 0.00409687 7.02154C0.00376654 7.01352 0.00329411 7.00112 0.00290918 6.98612C0.00215173 6.95658 0.00151742 6.9097 0.00362754 6.85246L4.00091 6.99981C4.00281 6.94836 4.0022 6.90727 4.00159 6.88356C4.00105 6.86233 4.00015 6.84452 4.00046 6.85108L0.00474215 7.0362ZM0.00302672 6.95766C0.00302672 6.98483 0.00363421 7.00653 0.00407755 7.01941C0.00447237 7.03087 0.00493407 7.04034 0.00474238 7.0362L4.00046 6.85108C4.00048 6.85151 4.00115 6.86559 4.00171 6.88173C4.00231 6.89927 4.00303 6.9257 4.00303 6.95766H0.00302672ZM0.00415587 6.8912C0.00428891 6.88796 0.00422382 6.88948 0.00414264 6.89168C0.00404465 6.89433 0.00382996 6.9004 0.0036304 6.90852L4.00242 7.0068C4.00183 7.03102 4.0009 7.05251 4.0008 7.0549L0.00415587 6.8912ZM0.00249541 7.05298C0.00131834 7.00508 0.00189722 6.96536 0.00253749 6.93931C0.0031327 6.91509 0.00405753 6.8936 0.00415576 6.8912L4.0008 7.0549C4.00048 7.06277 4.00099 7.05154 4.00133 7.03759C4.00172 7.0218 4.00221 6.99234 4.00129 6.95471L0.00249541 7.05298ZM0.014667 7.23473C0.0146352 7.23443 0.0122983 7.21291 0.0101461 7.18833C0.00781906 7.16175 0.00458848 7.1197 0.00293136 7.06832L4.00085 6.93937C3.99941 6.89469 3.99664 6.85934 3.9949 6.83946C3.99334 6.82158 3.99171 6.80677 3.99239 6.81317L0.014667 7.23473ZM0.00906742 7.16779C0.0106398 7.19216 0.0123752 7.21133 0.0133822 7.22186C0.0142819 7.23127 0.0151154 7.23896 0.0146679 7.23474L3.99239 6.81316C3.99247 6.81396 3.99384 6.82669 3.99522 6.84112C3.99671 6.85668 3.99887 6.88087 4.00077 6.91027L0.00906742 7.16779ZM5.95319 12.8522C2.73301 12.849 0.0248654 10.3111 0.00495577 7.05125L4.00488 7.02682C4.0107 7.97936 4.82418 8.85107 5.95723 8.85221L5.95319 12.8522ZM4.03646 11.4166L4.03268 11.4034L7.87775 10.301L7.88153 10.3142L4.03646 11.4166ZM6.62633 12.8142C6.44595 12.8392 6.29368 12.8521 6.17753 12.8587C6.11932 12.862 6.06977 12.8638 6.02987 12.8646C6.0099 12.8651 5.9923 12.8653 5.97719 12.8654C5.96964 12.8654 5.9627 12.8654 5.95639 12.8654C5.95324 12.8654 5.95024 12.8654 5.9474 12.8654C5.94599 12.8654 5.94461 12.8654 5.94327 12.8653C5.9426 12.8653 5.94194 12.8653 5.94129 12.8653C5.94097 12.8653 5.94065 12.8653 5.94033 12.8653C5.94017 12.8653 5.93993 12.8653 5.93985 12.8653C5.93961 12.8653 5.93937 12.8653 5.959 10.8654C5.97862 8.8655 5.97838 8.8655 5.97815 8.8655C5.97807 8.8655 5.97783 8.8655 5.97768 8.86549C5.97737 8.86549 5.97706 8.86549 5.97675 8.86549C5.97614 8.86548 5.97554 8.86548 5.97494 8.86547C5.97375 8.86546 5.97259 8.86545 5.97146 8.86545C5.9692 8.86543 5.96707 8.86542 5.96508 8.86542C5.96108 8.86541 5.95759 8.86542 5.95459 8.86544C5.94861 8.86547 5.94458 8.86554 5.94243 8.86559C5.93814 8.86568 5.94117 8.86569 5.95073 8.86514C5.97012 8.86404 6.01421 8.86081 6.07711 8.85209L6.62633 12.8142ZM10.26 11.051C9.3011 12.0313 7.99796 12.6849 6.54205 12.8241L6.16138 8.84223C6.65319 8.79521 7.08514 8.5764 7.40051 8.25399L10.26 11.051ZM10.1639 11.143C10.1604 11.146 10.1589 11.1473 10.1576 11.1483C10.1566 11.1493 10.1569 11.149 10.158 11.1481C10.16 11.1463 10.1674 11.1398 10.1778 11.1304L7.48269 8.17464C7.52497 8.13609 7.56419 8.103 7.5727 8.09576L10.1639 11.143ZM10.4525 10.8616C10.3153 11.0189 10.1741 11.1343 10.1639 11.143L7.57269 8.09577C7.59078 8.08039 7.57516 8.09335 7.55559 8.11132C7.53239 8.13262 7.48922 8.17373 7.43875 8.23155L10.4525 10.8616ZM12.4851 9.95661C11.9071 9.97786 11.6091 10.0355 11.3778 10.1303C11.1668 10.2168 10.8706 10.3931 10.4382 10.8779L7.4531 8.21529C8.18791 7.39148 8.96166 6.7978 9.86035 6.42934C10.7387 6.0692 11.5902 5.98681 12.3382 5.95931L12.4851 9.95661ZM13.9025 10.2446C13.4806 10.017 13.0205 9.93689 12.4853 9.95661L12.338 5.95932C13.3752 5.92112 14.5896 6.07044 15.8014 6.72406L13.9025 10.2446ZM14.844 10.9657C14.4224 10.5952 14.187 10.398 13.9026 10.2446L15.8014 6.72402C16.5425 7.12375 17.097 7.62057 17.4842 7.9608L14.844 10.9657ZM15.5602 11.569C15.2857 11.3545 15.0397 11.1377 14.844 10.9657L17.4842 7.9608C17.6917 8.14312 17.8537 8.28476 18.0234 8.41742L15.5602 11.569ZM19.4474 12.9864C17.93 12.9848 16.5368 12.4251 15.4768 11.5001L18.1068 8.48631C18.4611 8.79548 18.9284 8.98586 19.4515 8.9864L19.4474 12.9864ZM17.5286 11.5438L17.5248 11.5302L21.3741 10.4426L21.3779 10.4562L17.5286 11.5438ZM20.1306 12.9472C19.9475 12.973 19.793 12.9863 19.6751 12.9931C19.616 12.9965 19.5657 12.9983 19.5252 12.9992C19.5049 12.9996 19.4871 12.9999 19.4717 13C19.464 13 19.457 13 19.4506 13C19.4474 13 19.4444 13 19.4415 13C19.44 12.9999 19.4386 12.9999 19.4373 12.9999C19.4366 12.9999 19.4359 12.9999 19.4353 12.9999C19.435 12.9999 19.4346 12.9999 19.4343 12.9999C19.4341 12.9999 19.4339 12.9999 19.4338 12.9999C19.4336 12.9999 19.4333 12.9999 19.4532 11C19.4732 9.00009 19.4729 9.00009 19.4727 9.00008C19.4726 9.00008 19.4724 9.00008 19.4722 9.00008C19.4719 9.00008 19.4716 9.00007 19.4713 9.00007C19.4707 9.00007 19.47 9.00006 19.4694 9.00006C19.4682 9.00005 19.467 9.00004 19.4659 9.00003C19.4636 9.00002 19.4615 9.00001 19.4594 9C19.4554 8.99999 19.4518 9 19.4488 9.00002C19.4427 9.00006 19.4386 9.00013 19.4364 9.00018C19.4321 9.00027 19.4352 9.00028 19.4449 8.99972C19.4646 8.99858 19.5094 8.99525 19.5733 8.98626L20.1306 12.9472ZM23.8081 11.1381C22.842 12.1406 21.5238 12.8139 20.0451 12.9574L19.6588 8.9761C20.1573 8.92773 20.6004 8.70222 20.9279 8.36243L23.8081 11.1381ZM23.7156 11.2282C23.7121 11.2312 23.7105 11.2327 23.7091 11.2339C23.7079 11.2349 23.708 11.2348 23.7088 11.2341C23.7104 11.2327 23.717 11.2268 23.7265 11.2181L21.0095 8.28246C21.0504 8.24457 21.0884 8.21193 21.0973 8.20422L23.7156 11.2282ZM23.9947 10.953C23.8625 11.1051 23.7278 11.2177 23.7156 11.2282L21.0973 8.20421C21.1153 8.18864 21.1012 8.20051 21.0834 8.21713C21.062 8.23705 21.0223 8.27544 20.9755 8.32923L23.9947 10.953ZM26.0782 10.0029C25.4917 10.0248 25.1886 10.0841 24.9523 10.1825C24.7354 10.2727 24.4306 10.457 23.9874 10.9614L20.9828 8.3209C21.7244 7.47695 22.5059 6.86798 23.4154 6.48946C24.3056 6.11904 25.1693 6.03405 25.929 6.00571L26.0782 10.0029ZM27.5204 10.301C27.0891 10.0648 26.621 9.98263 26.0783 10.0029L25.9289 6.00571C26.9824 5.96633 28.2142 6.12058 29.4413 6.79234L27.5204 10.301ZM28.4817 11.0479C28.0535 10.6661 27.8121 10.4606 27.5205 10.301L29.4412 6.7923C30.1907 7.20258 30.7511 7.71218 31.144 8.06262L28.4817 11.0479ZM29.2375 11.6922C28.9466 11.4634 28.6874 11.2314 28.4817 11.0479L31.144 8.06262C31.3622 8.25718 31.532 8.40785 31.7109 8.54857L29.2375 11.6922ZM29.4471 11.8479C29.4065 11.8189 29.3244 11.7604 29.2391 11.6935L31.7093 8.54732C31.7091 8.5472 31.7102 8.54806 31.7129 8.55009C31.7156 8.55213 31.7196 8.55507 31.7252 8.55922C31.7378 8.56849 31.7521 8.57869 31.7767 8.59638L29.4471 11.8479ZM29.4609 11.8578L29.4469 11.8478L31.7769 8.59652L31.7909 8.60655L29.4609 11.8578ZM29.4913 11.8795C29.4836 11.874 29.4771 11.8694 29.4707 11.8649L31.7811 8.59952C31.7896 8.60553 31.7979 8.61148 31.8051 8.61657L29.4913 11.8795ZM29.7015 12.0233C29.6121 11.9655 29.5314 11.9079 29.4913 11.8794L31.8051 8.61658C31.8295 8.63388 31.8437 8.64391 31.8565 8.65277C31.8622 8.65674 31.8663 8.65951 31.8691 8.6614C31.8719 8.66329 31.8731 8.66405 31.8729 8.66395L29.7015 12.0233ZM29.9189 12.1546C29.88 12.132 29.797 12.0843 29.7105 12.0291L31.8639 8.65815C31.8619 8.65685 31.8644 8.65856 31.875 8.66483C31.8866 8.67172 31.8999 8.67942 31.9241 8.69348L29.9189 12.1546ZM29.9432 12.1687C29.9359 12.1644 29.9282 12.16 29.9189 12.1546L31.9241 8.69345C31.9331 8.69865 31.9437 8.7048 31.9546 8.71114L29.9432 12.1687ZM30.2068 12.3145C30.0971 12.2581 29.9979 12.2003 29.948 12.1714L31.9498 8.70837C31.98 8.72582 31.9977 8.73605 32.0138 8.74509C32.0287 8.75344 32.0349 8.75669 32.0359 8.75718L30.2068 12.3145ZM30.4388 12.4258C30.3956 12.406 30.3029 12.364 30.2056 12.3138L32.0371 8.75782C32.0348 8.7566 32.0375 8.75809 32.0491 8.76356C32.0619 8.76958 32.0765 8.77628 32.1033 8.78857L30.4388 12.4258ZM30.4592 12.4351C30.4529 12.4322 30.4464 12.4293 30.4388 12.4258L32.1033 8.78857C32.1106 8.79189 32.119 8.79576 32.1276 8.7997L30.4592 12.4351ZM30.4857 12.4472C30.4788 12.444 30.4728 12.4413 30.4669 12.4386L32.1199 8.79619C32.1278 8.79975 32.1355 8.80324 32.1422 8.80631L30.4857 12.4472ZM30.7422 12.5575C30.6312 12.5139 30.5311 12.4678 30.4859 12.4473L32.1421 8.80626C32.1706 8.81922 32.1852 8.82582 32.1978 8.83139C32.2091 8.83635 32.2107 8.83686 32.2064 8.83514L30.7422 12.5575ZM30.9969 12.6504C30.9492 12.6341 30.8378 12.5966 30.7202 12.5487L32.2284 8.84397C32.2213 8.84108 32.2208 8.84111 32.2318 8.84502C32.2442 8.84947 32.259 8.85456 32.2897 8.86504L30.9969 12.6504ZM31.0117 12.6554L30.9967 12.6503L32.2899 8.86511L32.3049 8.87023L31.0117 12.6554ZM31.2804 12.7425C31.1663 12.709 31.062 12.6727 31.0074 12.6539L32.3092 8.87168C32.3775 8.8952 32.396 8.90122 32.408 8.90473L31.2804 12.7425ZM31.5811 12.8197C31.5234 12.8061 31.411 12.78 31.2928 12.7461L32.3956 8.90113C32.4064 8.90425 32.4254 8.90911 32.499 8.92646L31.5811 12.8197ZM31.5989 12.8239L31.5813 12.8198L32.4988 8.92641L32.5163 8.93054L31.5989 12.8239ZM31.8678 12.8817C31.7527 12.8606 31.6474 12.8353 31.5985 12.8238L32.5167 8.93063C32.5471 8.9378 32.5633 8.94159 32.5775 8.94476C32.5904 8.94762 32.5933 8.94809 32.5902 8.94753L31.8678 12.8817ZM32.1774 12.9288C32.116 12.9208 31.992 12.9051 31.8598 12.8803L32.5982 8.94901C32.5968 8.94875 32.6022 8.94979 32.619 8.95223C32.6373 8.95487 32.6582 8.95764 32.6946 8.96239L32.1774 12.9288ZM32.4546 12.9614C32.3311 12.9507 32.2208 12.9351 32.1545 12.9257L32.7175 8.96552C32.7467 8.96966 32.7654 8.97221 32.7805 8.97411C32.7949 8.97591 32.8012 8.9765 32.8023 8.9766L32.4546 12.9614ZM32.7756 12.9782C32.7134 12.9762 32.5937 12.9728 32.4669 12.9625L32.79 8.97556C32.803 8.97661 32.8247 8.97771 32.9038 8.98025L32.7756 12.9782ZM32.7581 12.9778C32.7532 12.9775 32.7504 12.9773 32.7479 12.9771C32.7456 12.9769 32.7447 12.9769 32.7448 12.9769C32.7449 12.9769 32.7463 12.977 32.7488 12.9771C32.7513 12.9772 32.755 12.9774 32.7598 12.9776L32.9196 8.98081C32.9713 8.98288 33.018 8.98622 33.0317 8.98716L32.7581 12.9778ZM32.981 12.9864C32.8723 12.9864 32.7759 12.979 32.7581 12.9778L33.0317 8.98716C33.0396 8.9877 33.0424 8.98789 33.0445 8.98803C33.0462 8.98813 33.0442 8.988 33.0402 8.98779C33.0323 8.98739 33.0108 8.98639 32.981 8.98639V12.9864ZM33.1555 12.9798C33.155 12.9799 33.0744 12.9864 32.981 12.9864V8.98639C32.9413 8.98639 32.91 8.98776 32.8921 8.9887C32.8766 8.98952 32.864 8.99046 32.8723 8.98987L33.1555 12.9798ZM33.0788 12.983C33.1079 12.9825 33.1306 12.9813 33.143 12.9806C33.1538 12.98 33.1623 12.9794 33.1555 12.9798L32.8723 8.98987C32.8734 8.9898 32.9344 8.98502 33.0046 8.98372L33.0788 12.983ZM32.9861 12.9822C32.9789 12.9819 32.9893 12.9824 33.0024 12.9827C33.0172 12.9831 33.044 12.9837 33.0781 12.983L33.0053 8.9837C33.0852 8.98225 33.1546 8.98577 33.1548 8.98578L32.9861 12.9822ZM33.1769 12.9831C33.1201 12.9852 33.0731 12.9848 33.0421 12.9841C33.0134 12.9834 32.9881 12.9823 32.9861 12.9822L33.1548 8.98578C33.1636 8.98615 33.149 8.98547 33.1311 8.98507C33.1109 8.98462 33.0746 8.98418 33.0286 8.98588L33.1769 12.9831ZM33.3785 12.9691C33.363 12.9707 33.2632 12.9813 33.15 12.9839L33.0556 8.98506C33.0218 8.98586 32.9969 8.98766 32.9866 8.98847C32.9813 8.98889 32.9783 8.98917 32.9791 8.9891C32.9805 8.98897 32.9826 8.98877 32.9901 8.98804L33.3785 12.9691ZM33.3562 12.9704C33.3731 12.9695 33.3847 12.9685 33.3879 12.9682C33.3896 12.9681 33.3901 12.968 33.3884 12.9682C33.3864 12.9684 33.3839 12.9686 33.3785 12.9691L32.9901 8.98804C33.0034 8.98675 33.0645 8.9805 33.1328 8.97668L33.3562 12.9704ZM33.6706 12.9452C33.5503 12.9583 33.437 12.9653 33.3725 12.9695L33.1165 8.97765C33.1933 8.97273 33.2199 8.97067 33.2385 8.96864L33.6706 12.9452ZM33.984 12.8989C33.9184 12.9102 33.8136 12.9279 33.6972 12.9422L33.212 8.9717C33.2254 8.97006 33.2481 8.96671 33.3107 8.95601L33.984 12.8989ZM34.2779 12.845C34.1464 12.8737 34.0231 12.8929 33.962 12.9026L33.3327 8.95238C33.3687 8.94666 33.3891 8.94335 33.4068 8.94027C33.4231 8.93743 33.4281 8.93631 33.4263 8.9367L34.2779 12.845ZM34.5354 12.781C34.4875 12.7939 34.3888 12.8207 34.2803 12.8445L33.4239 8.93722C33.4229 8.93744 33.4272 8.93652 33.4402 8.9332C33.4545 8.92953 33.4706 8.92524 33.4998 8.91742L34.5354 12.781ZM34.5559 12.7756C34.5495 12.7773 34.5429 12.779 34.5353 12.7811L33.4999 8.91739C33.5071 8.91546 33.5155 8.91322 33.5239 8.91096L34.5559 12.7756ZM34.8538 12.6894C34.729 12.73 34.6103 12.7611 34.5542 12.776L33.5256 8.9105C33.5605 8.90123 33.58 8.89602 33.5971 8.89122C33.6128 8.88681 33.6171 8.88534 33.6147 8.88611L34.8538 12.6894ZM35.1179 12.5954C35.0668 12.6147 34.9606 12.6552 34.8434 12.6927L33.6251 8.88275C33.6236 8.88324 33.6279 8.88191 33.6418 8.87687C33.6571 8.87131 33.6743 8.86484 33.7058 8.85298L35.1179 12.5954ZM35.1248 12.5928L35.1181 12.5954L33.7056 8.85305L33.7124 8.85049L35.1248 12.5928ZM35.1361 12.5885L35.1283 12.5915L33.7089 8.8518L33.7167 8.84883L35.1361 12.5885ZM35.3921 12.4863C35.2874 12.5315 35.1871 12.5692 35.1361 12.5885L33.7168 8.84882C33.7819 8.82409 33.7985 8.81745 33.8077 8.81347L35.3921 12.4863ZM35.6657 12.3579C35.6142 12.3834 35.5074 12.4368 35.389 12.4876L33.8107 8.81216C33.8089 8.81297 33.813 8.81125 33.827 8.80455C33.8425 8.79715 33.8599 8.78855 33.8917 8.77281L35.6657 12.3579ZM35.6757 12.3529L35.6755 12.353L33.8819 8.77772L33.882 8.77764L35.6757 12.3529ZM35.6755 12.3531L35.6607 12.3604L33.8971 8.77018L33.9119 8.76289L35.6755 12.3531ZM35.9207 12.2264C35.8178 12.2837 35.7193 12.3316 35.6753 12.3532L33.9121 8.7628C33.94 8.7491 33.9543 8.74204 33.9666 8.73581C33.9776 8.73023 33.9788 8.72944 33.9742 8.73196L35.9207 12.2264ZM36.1464 12.0927C36.1039 12.119 36.0148 12.1744 35.916 12.229L33.9789 8.72936C33.9773 8.73024 33.9809 8.72832 33.9927 8.72122C34.0057 8.71342 34.0202 8.70446 34.0466 8.68823L36.1464 12.0927ZM36.1663 12.0805C36.1601 12.0843 36.1539 12.0881 36.1465 12.0927L34.0465 8.68828C34.0533 8.68404 34.0615 8.67902 34.0697 8.67395L36.1663 12.0805ZM36.1918 12.0647C36.1842 12.0694 36.1779 12.0733 36.1717 12.0771L34.0643 8.67728C34.0728 8.67203 34.0812 8.66685 34.0882 8.66248L36.1918 12.0647ZM36.4032 11.9287C36.3155 11.9886 36.2311 12.0404 36.1919 12.0646L34.0882 8.66251C34.1127 8.64738 34.1259 8.63914 34.1376 8.63177C34.1481 8.62507 34.1507 8.6233 34.1485 8.62477L36.4032 11.9287ZM36.6333 11.7607C36.5906 11.7932 36.5062 11.8577 36.4122 11.9226L34.1396 8.63091C34.1465 8.62608 34.1592 8.61691 34.2138 8.57543L36.6333 11.7607ZM36.6436 11.7529L36.6331 11.7609L34.214 8.57524L34.2246 8.56723L36.6436 11.7529ZM36.8685 11.5754C36.7749 11.6541 36.6835 11.7227 36.6406 11.7551L34.2276 8.56496C34.2543 8.54478 34.269 8.5336 34.2819 8.5236C34.2936 8.51445 34.2966 8.51186 34.2946 8.51355L36.8685 11.5754ZM37.0551 11.4104C37.0195 11.443 36.9473 11.5093 36.8666 11.577L34.2965 8.51195C34.2964 8.51202 34.3004 8.50871 34.3108 8.49941C34.3221 8.4893 34.3346 8.47789 34.3563 8.45804L37.0551 11.4104ZM37.0738 11.3933C37.0681 11.3986 37.0622 11.4039 37.0553 11.4102L34.3561 8.45819C34.3628 8.45214 34.3704 8.44517 34.3782 8.43808L37.0738 11.3933ZM37.0979 11.3711L37.0852 11.3828L34.3667 8.44859L34.3794 8.43683L37.0979 11.3711ZM37.2842 11.1927C37.2086 11.2689 37.135 11.3367 37.0976 11.3713L34.3797 8.43656C34.4274 8.39236 34.438 8.38212 34.4435 8.3766L37.2842 11.1927ZM37.4814 10.9807C37.4447 11.0217 37.3724 11.103 37.2901 11.1867L34.4376 8.38257C34.4384 8.38182 34.443 8.37709 34.4538 8.36527C34.4656 8.35241 34.4785 8.33799 34.5007 8.31318L37.4814 10.9807ZM37.4837 10.9781L37.4822 10.9797L34.4999 8.31411L34.5014 8.31247L37.4837 10.9781ZM37.4898 10.9714L37.4811 10.981L34.5039 8.3096L34.5126 8.29999L37.4898 10.9714ZM37.6731 10.7588C37.5982 10.8512 37.5243 10.9328 37.4897 10.9714L34.5126 8.29994C34.5341 8.27599 34.5457 8.26305 34.5557 8.25153C34.5648 8.24113 34.5671 8.2383 34.5655 8.24025L37.6731 10.7588ZM37.8448 10.5338C37.8112 10.5796 37.7469 10.6677 37.6731 10.7587L34.5655 8.24028C34.5655 8.24028 34.5666 8.23891 34.569 8.23578C34.5714 8.23265 34.5749 8.22819 34.5796 8.22196C34.5898 8.20831 34.6015 8.19255 34.6203 8.16682L37.8448 10.5338ZM38.0086 10.3036C37.9416 10.4038 37.8762 10.4917 37.837 10.5444L34.6281 8.15627C34.6665 8.10471 34.6779 8.08844 34.6832 8.0806L38.0086 10.3036ZM38.1383 10.0967C38.1163 10.1333 38.0684 10.2134 38.0126 10.2975L34.6791 8.08669C34.6773 8.08949 34.6784 8.08788 34.6841 8.07858C34.6905 8.06823 34.6978 8.05627 34.7115 8.03338L38.1383 10.0967ZM38.1548 10.0693C38.15 10.0772 38.145 10.0855 38.1384 10.0966L34.7115 8.03351C34.7176 8.02325 34.7255 8.01025 34.7336 7.99688L38.1548 10.0693ZM38.1691 10.0454L38.1636 10.0547L34.7248 8.01151L34.7303 8.00226L38.1691 10.0454ZM38.3076 9.80219C38.2527 9.90546 38.1968 9.99876 38.1692 10.0453L34.7302 8.00238C34.747 7.97413 34.7567 7.95778 34.7652 7.94305C34.769 7.93646 34.7716 7.93179 34.7735 7.92855C34.7753 7.92534 34.776 7.92396 34.7759 7.92409L38.3076 9.80219ZM38.4295 9.55581C38.4076 9.60231 38.3618 9.70039 38.3069 9.80341L34.7766 7.92286C34.7755 7.9248 34.7774 7.92148 34.7834 7.909C34.7901 7.89521 34.7976 7.87951 34.8112 7.85066L38.4295 9.55581ZM38.4337 9.54688L38.4293 9.55617L34.8113 7.8503L34.8157 7.84101L38.4337 9.54688ZM38.4446 9.52381L38.4347 9.54484L34.8148 7.84304L34.8246 7.82202L38.4446 9.52381ZM38.5559 9.27413C38.5116 9.38235 38.465 9.48027 38.4443 9.52439L34.8249 7.82144C34.838 7.7936 34.8447 7.77927 34.8504 7.76685C34.8554 7.75572 34.8559 7.75425 34.8541 7.75874L38.5559 9.27413ZM38.6448 9.03929C38.6292 9.0828 38.5956 9.17769 38.5542 9.27818L34.8557 7.75469C34.8543 7.75812 34.8552 7.75622 34.8593 7.74516C34.8639 7.73286 34.869 7.71864 34.8787 7.69151L38.6448 9.03929ZM38.6543 9.01289C38.6514 9.02085 38.6485 9.02896 38.6447 9.03965L34.8788 7.69115C34.8822 7.68168 34.8865 7.66963 34.8909 7.65742L38.6543 9.01289ZM38.75 8.72653C38.7145 8.84503 38.6755 8.95331 38.6568 9.00578L34.8884 7.66453C34.8998 7.63231 34.9063 7.6141 34.9118 7.59783C34.9169 7.58291 34.9184 7.57791 34.9181 7.57895L38.75 8.72653ZM38.8267 8.4381C38.8136 8.49189 38.7856 8.60891 38.7483 8.73215L34.9198 7.57333C34.9188 7.57679 34.9198 7.57351 34.9236 7.55881C34.9278 7.5427 34.9323 7.52433 34.9406 7.49052L38.8267 8.4381ZM38.8279 8.433L38.8268 8.43756L34.9404 7.49106L34.9415 7.4865L38.8279 8.433ZM38.8322 8.41553L38.8279 8.43295L34.9415 7.48655L34.9458 7.46913L38.8322 8.41553ZM38.8919 8.14712C38.8699 8.2629 38.8437 8.36851 38.832 8.41633L34.946 7.46834C34.9532 7.43847 34.957 7.42311 34.96 7.40982C34.9627 7.39795 34.963 7.39626 34.9621 7.40075L38.8919 8.14712ZM38.9403 7.83978C38.9324 7.89818 38.916 8.02279 38.8903 8.15532L34.9637 7.39256C34.9631 7.39557 34.9639 7.39157 34.9663 7.3757C34.9689 7.35827 34.9717 7.33843 34.9766 7.30212L38.9403 7.83978ZM38.9452 7.80109L38.9451 7.80129L34.9718 7.34061L34.9718 7.34041L38.9452 7.80109ZM38.9419 7.82865L38.939 7.84921L34.978 7.29229L34.9808 7.27173L38.9419 7.82865ZM38.9748 7.54941C38.9646 7.67112 38.9485 7.78179 38.9418 7.82915L34.9809 7.27122C34.983 7.25661 34.9845 7.24611 34.9858 7.2362C34.9871 7.22667 34.988 7.22005 34.9886 7.21516C34.9899 7.20514 34.9896 7.20612 34.989 7.21367L38.9748 7.54941ZM38.9916 7.23936C38.9896 7.29981 38.9859 7.42557 38.974 7.55964L34.9898 7.20344C34.9896 7.20571 34.9901 7.20082 34.9909 7.18394C34.9918 7.16556 34.9925 7.14467 34.9937 7.10753L38.9916 7.23936ZM38.9909 7.26147C38.9906 7.26619 38.9904 7.26881 38.9902 7.27108C38.9901 7.27316 38.99 7.27372 38.9901 7.27335C38.9901 7.27279 38.9905 7.26627 38.9909 7.25616L34.9944 7.09072C34.9965 7.03806 35.0001 6.99075 35.001 6.97717L38.9909 7.26147ZM39 7.03446C39 7.14569 38.9922 7.24379 38.9909 7.26126L35.001 6.97738C35.0016 6.96964 35.0017 6.96715 35.0018 6.96541C35.0019 6.96418 35.0018 6.96663 35.0015 6.9713C35.001 6.98039 35 7.00324 35 7.03446H39ZM38.9944 6.87511C38.9944 6.87512 39 6.94898 39 7.03446H35C35 7.07158 35.0011 7.10089 35.0019 7.11746C35.0026 7.13199 35.0035 7.14362 35.003 7.1363L38.9944 6.87511ZM38.9949 6.88306C38.9947 6.87897 38.9945 6.87601 38.9944 6.87501C38.9944 6.87437 38.9944 6.87385 38.9945 6.87645L35.0029 7.13496C35.0028 7.13365 35.0019 7.12071 35.0012 7.10655L38.9949 6.88306ZM38.9961 7.02992C38.9975 6.98865 38.9973 6.9546 38.9968 6.93127C38.9966 6.91956 38.9963 6.9099 38.9961 6.90316C38.9958 6.89657 38.9956 6.89168 38.9956 6.89024C38.9955 6.88951 38.9955 6.88906 38.9955 6.88963C38.9955 6.88982 38.9956 6.89143 38.9957 6.89294C38.9958 6.89611 38.9961 6.90298 38.9964 6.91139C38.9971 6.92803 38.998 6.95787 38.998 6.99481H34.998C34.998 7.02626 34.9989 7.05067 34.9993 7.0619C34.9995 7.06761 34.9997 7.07177 34.9997 7.07223C34.9999 7.07681 34.9995 7.06746 34.9995 7.06679C34.9991 7.05939 34.9981 7.03712 34.9976 7.00938C34.997 6.98053 34.9968 6.94092 34.9984 6.89398L38.9961 7.02992ZM38.9975 6.86693C38.9987 6.92051 38.9979 6.96411 38.9973 6.98703C38.9971 6.99811 38.9968 7.00823 38.9967 7.01098C38.9965 7.01578 38.9966 7.01346 38.9967 7.01003L34.9978 6.91386C34.9981 6.90251 34.9984 6.89231 34.9985 6.88923C34.9987 6.88411 34.9986 6.88636 34.9985 6.88956C34.9984 6.89671 34.9977 6.92446 34.9986 6.9618L38.9975 6.86693ZM38.985 6.67931C38.9852 6.68078 38.9876 6.70343 38.9898 6.72925C38.9922 6.75733 38.9954 6.79972 38.997 6.85102L34.999 6.9777C35.0004 7.0201 35.0029 7.05368 35.0046 7.07297C35.0061 7.09001 35.0076 7.10392 35.0068 7.09659L38.985 6.67931ZM38.986 6.68957C38.9856 6.68523 38.9853 6.68197 38.9851 6.68046C38.985 6.67915 38.9849 6.67838 38.9851 6.67996L35.0068 7.09593C35.0065 7.0935 35.0052 7.08139 35.0039 7.0674L38.986 6.68957ZM32.9866 0.94959C36.2684 0.952394 38.9751 3.5704 38.9949 6.86645L34.995 6.89052C34.9887 5.84639 34.1205 4.95056 32.9832 4.94959L32.9866 0.94959ZM34.9057 2.39222L34.9095 2.40582L31.0602 3.49336L31.0564 3.47976L34.9057 2.39222ZM32.3037 0.988734C32.4868 0.962979 32.6413 0.949691 32.7592 0.942895C32.8183 0.939488 32.8686 0.937691 32.9091 0.936791C32.9294 0.936341 32.9472 0.936116 32.9626 0.936028C32.9702 0.935984 32.9773 0.935974 32.9837 0.935988C32.9869 0.935996 32.9899 0.936008 32.9928 0.936027C32.9942 0.936035 32.9956 0.936045 32.997 0.936056C32.9977 0.936061 32.9983 0.936067 32.999 0.936073C32.9993 0.936076 32.9996 0.936079 33 0.936082C33.0001 0.936084 33.0004 0.936086 33.0005 0.936087C33.0007 0.936089 33.0009 0.936091 32.981 2.93599C32.9611 4.93589 32.9614 4.9359 32.9616 4.9359C32.9617 4.9359 32.9619 4.9359 32.9621 4.9359C32.9624 4.93591 32.9627 4.93591 32.963 4.93591C32.9636 4.93592 32.9642 4.93592 32.9648 4.93593C32.9661 4.93594 32.9672 4.93594 32.9684 4.93595C32.9707 4.93597 32.9728 4.93597 32.9749 4.93598C32.9789 4.93599 32.9825 4.93598 32.9855 4.93596C32.9916 4.93593 32.9957 4.93586 32.9978 4.93581C33.0022 4.93571 32.9991 4.93571 32.9894 4.93627C32.9697 4.9374 32.9249 4.94073 32.861 4.94972L32.3037 0.988734ZM30.0594 1.69971C30.8339 1.27226 31.6088 1.08635 32.3041 0.988674L32.8606 4.94978C32.4536 5.00695 32.1961 5.08919 31.9921 5.2018L30.0594 1.69971ZM28.5976 2.80106C28.9123 2.51871 29.4195 2.05246 30.0602 1.69925L31.9912 5.20226C31.816 5.29886 31.6387 5.44656 31.2686 5.7786L28.5976 2.80106ZM27.8956 3.36616C28.0708 3.26436 28.2474 3.11518 28.5976 2.80106L31.2686 5.7786C30.9683 6.04792 30.4941 6.48258 29.9049 6.82485L27.8956 3.36616ZM26.1926 3.86432C26.7799 3.84245 27.3775 3.66723 27.8955 3.36624L29.9051 6.82477C28.8346 7.44681 27.6001 7.81468 26.3415 7.86155L26.1926 3.86432ZM24.8133 3.58323C25.2362 3.78464 25.7112 3.88231 26.1924 3.86433L26.3418 7.86153C25.2267 7.90322 24.1093 7.67837 23.0936 7.19469L24.8133 3.58323ZM23.9757 2.92392C24.4062 3.3235 24.5922 3.47813 24.8121 3.58269L23.0947 7.19522C22.2406 6.78919 21.6349 6.20874 21.2543 5.8554L23.9757 2.92392ZM23.1971 2.24338C23.5059 2.48627 23.7753 2.73781 23.9757 2.92391L21.2543 5.8554C21.0372 5.65386 20.884 5.51305 20.7238 5.38704L23.1971 2.24338ZM22.9952 2.09375C23.0331 2.12085 23.1092 2.17498 23.1881 2.23631L20.7328 5.3941C20.7328 5.3941 20.7317 5.39318 20.729 5.39116C20.7262 5.38913 20.7224 5.38626 20.7169 5.38228C20.7048 5.37344 20.6913 5.36372 20.6682 5.34725L22.9952 2.09375ZM22.974 2.07855C22.9805 2.08325 22.9872 2.08804 22.9952 2.09378L20.6682 5.34722C20.6606 5.34182 20.6518 5.33549 20.6428 5.32904L22.974 2.07855ZM22.9575 2.06679L22.9694 2.07531L20.6473 5.33227L20.6354 5.32376L22.9575 2.06679ZM22.7193 1.90445C22.8232 1.97046 22.9157 2.03701 22.9576 2.06688L20.6353 5.32367C20.6089 5.3049 20.5953 5.29522 20.5834 5.28696C20.5727 5.27955 20.571 5.27859 20.5749 5.28107L22.7193 1.90445ZM22.5135 1.78034C22.5525 1.80296 22.6404 1.85346 22.7323 1.91279L20.5618 5.27273C20.5661 5.27548 20.5653 5.27486 20.5558 5.26918C20.5451 5.26281 20.5326 5.25552 20.5078 5.24115L22.5135 1.78034ZM22.491 1.76729C22.4978 1.77125 22.5048 1.77533 22.5135 1.78035L20.5078 5.24114C20.4996 5.2364 20.4898 5.23071 20.4797 5.22487L22.491 1.76729ZM22.4735 1.75716L22.4867 1.76481L20.484 5.22734L20.4708 5.2197L22.4735 1.75716ZM22.2184 1.61684C22.3294 1.67324 22.4291 1.73148 22.4737 1.75727L20.4706 5.21959C20.4424 5.20327 20.428 5.19496 20.4154 5.18793C20.4042 5.18164 20.4028 5.18107 20.4075 5.18346L22.2184 1.61684ZM21.9704 1.49835C22.0204 1.52114 22.125 1.56833 22.2337 1.6247L20.3922 5.17559C20.3937 5.17639 20.3894 5.17414 20.3752 5.16743C20.3597 5.16014 20.3422 5.15213 20.3113 5.13803L21.9704 1.49835ZM21.9478 1.48806C21.955 1.49136 21.9613 1.49421 21.9674 1.49699L20.3143 5.1394C20.3062 5.13574 20.2983 5.13213 20.2914 5.12897L21.9478 1.48806ZM21.6964 1.37963C21.8046 1.42244 21.9026 1.46751 21.9478 1.48806L20.2914 5.12898C20.2631 5.11611 20.2481 5.10933 20.235 5.10356C20.2232 5.09837 20.2208 5.09752 20.2243 5.09889L21.6964 1.37963ZM21.4621 1.29384C21.5088 1.31013 21.5974 1.34081 21.6904 1.37728L20.2303 5.10124C20.2194 5.09698 20.2024 5.09079 20.1437 5.07031L21.4621 1.29384ZM21.4376 1.28527C21.4453 1.28795 21.4531 1.29068 21.4622 1.29384L20.1437 5.0703C20.135 5.06728 20.1251 5.06383 20.1151 5.06031L21.4376 1.28527ZM21.3887 1.26862C21.3977 1.27167 21.4056 1.27432 21.4133 1.27692L20.1395 5.06866C20.1295 5.0653 20.1196 5.06199 20.1109 5.05906L21.3887 1.26862ZM21.1574 1.19441C21.2532 1.22272 21.3416 1.25277 21.3887 1.26862L20.1109 5.05906C20.0521 5.03924 20.035 5.03371 20.0235 5.03032L21.1574 1.19441ZM20.8719 1.12066C20.9219 1.13243 21.0339 1.15824 21.1522 1.19287L20.0287 5.03185C20.0336 5.03329 20.032 5.03267 20.0191 5.02946C20.0048 5.02591 19.9883 5.02199 19.9566 5.01454L20.8719 1.12066ZM20.8532 1.11626C20.859 1.11764 20.865 1.11904 20.8718 1.12064L19.9567 5.01456C19.9502 5.01302 19.9428 5.01128 19.9353 5.00952L20.8532 1.11626ZM20.8793 1.1226L20.8793 1.1226L19.9092 5.00317L19.9091 5.00317L20.8793 1.1226ZM20.5665 1.05386C20.6935 1.07718 20.8094 1.10568 20.8633 1.11868L19.9251 5.00708C19.8915 4.99899 19.8737 4.99472 19.858 4.99116C19.8439 4.98796 19.8407 4.98746 19.844 4.98808L20.5665 1.05386ZM20.2586 1.00697C20.3278 1.01604 20.4426 1.03115 20.5659 1.05376L19.8446 4.98818C19.832 4.98586 19.8077 4.98208 19.7386 4.97303L20.2586 1.00697ZM20.2609 1.00726L20.2669 1.00807L19.7304 4.97192L19.7244 4.97111L20.2609 1.00726ZM19.9801 0.974537C20.0982 0.98484 20.2064 0.999882 20.2612 1.0073L19.7241 4.97108C19.6911 4.96661 19.6721 4.96406 19.6551 4.96196C19.6395 4.96004 19.6332 4.95946 19.6323 4.95939L19.9801 0.974537ZM19.6979 0.958815C19.7494 0.960649 19.8601 0.964164 19.9785 0.974393L19.634 4.95953C19.6373 4.95982 19.6343 4.95948 19.6204 4.95881C19.6052 4.95808 19.5877 4.95743 19.5554 4.95628L19.6979 0.958815Z" fill="#4D4D4D" mask="url(#path-1-outside-1)"/>
</svg>
