<?xml version="1.0" encoding="UTF-8"?>
<svg width="40px" height="40px" viewBox="0 0 40 40" version="1.1" xmlns="http://www.w3.org/2000/svg" xmlns:xlink="http://www.w3.org/1999/xlink">
    <!-- Generator: Sketch 60.1 (88133) - https://sketch.com -->
    <title>i_brilho</title>
    <desc>Created with Sketch.</desc>
    <g id="i_brilho" stroke="none" stroke-width="1" fill="none" fill-rule="evenodd">
        <path d="M19.3939971,32.4347302 C20.2020779,32.4347302 20.8945743,33.0794188 20.8945743,33.8314212 L20.8945743,33.8314212 L20.8945743,37.9681734 C20.8945743,38.7204444 20.2020779,39.3651331 19.3939971,39.3651331 C18.585772,39.3651331 17.8932756,38.7204444 17.8932756,37.9681734 L17.8932756,37.9681734 L17.8932756,33.8314212 C17.8932756,33.0794188 18.585772,32.4347302 19.3939971,32.4347302 Z M32.3286701,5.71428571 C32.6655854,5.71428571 33.0026303,5.84391838 33.2618957,6.10318371 C33.7804263,6.62171438 33.7804263,7.45136344 33.2618957,7.96989411 L33.2618957,7.96989411 L7.33497347,33.8968163 C7.07570814,34.1560816 6.72569994,34.2857143 6.38204374,34.2857143 C6.03864681,34.2857143 5.70147225,34.1560816 5.46826308,33.8968163 C4.94973241,33.3782856 4.94973241,32.5487662 5.46826308,32.0302355 L5.46826308,32.0302355 L31.3953149,6.10318371 C31.6545802,5.84391838 31.9914955,5.71428571 32.3286701,5.71428571 Z M28.9757412,28.9757508 C29.5148248,28.4366545 30.4311321,28.4366545 30.916442,28.9757508 L30.916442,28.9757508 L33.8814016,31.9407803 C34.4204852,32.4798765 34.4204852,33.3422958 33.8814016,33.8813921 C33.3423181,34.4204884 32.4797844,34.4204884 31.9407008,33.8813921 L31.9407008,33.8813921 L28.9757412,30.9163626 C28.4366577,30.3772663 28.4366577,29.514847 28.9757412,28.9757508 Z M26.8718847,17.535801 C27.6586991,16.749141 29.01524,17.2120334 29.1423032,18.3174464 C29.1846147,18.6845459 29.2063492,19.0573029 29.2063492,19.4341745 C29.2063492,22.1085359 28.0744837,24.5774244 26.3254359,26.3261293 C24.5765166,28.1262667 22.1072726,29.2063492 19.4322582,29.2063492 C19.0541552,29.2063492 18.6804248,29.1834617 18.3122245,29.1393584 C17.20981,29.0075626 16.7506849,27.6548879 17.5359559,26.8698994 L17.5359559,26.8698994 C17.8240344,26.5818774 18.2274729,26.4439097 18.632326,26.4882703 C18.8953262,26.5170725 19.1623132,26.5318593 19.4322582,26.5318593 C21.3869478,26.5318593 23.1874382,25.7603718 24.4735028,24.4745594 C25.7595675,23.1887469 26.5312062,21.3886095 26.5312062,19.4341745 C26.5312062,19.1644111 26.5165451,18.8974764 26.4876086,18.6345278 C26.4432394,18.2296254 26.5812341,17.8263946 26.8693126,17.5383726 L26.8693126,17.5383726 Z M19.8597125,10.1587302 C20.2671538,10.1587302 20.6696169,10.1854077 21.0655702,10.236848 C22.1566754,10.37866 22.6104516,11.7115143 21.8323307,12.4896296 C21.5438541,12.7782317 21.1388381,12.9163421 20.7336945,12.866944 C20.4468773,12.8319697 20.1550819,12.8137166 19.8597125,12.8137166 C17.9195161,12.8137166 16.132493,13.5795781 14.8560479,14.8560139 C13.5796029,16.1324497 12.8137359,17.9194598 12.8137359,19.8596422 C12.8137359,20.1550095 12.831989,20.4468027 12.8669636,20.7337455 C12.916362,21.1387585 12.7782507,21.5437716 12.4896465,21.8323738 C11.7115256,22.610489 10.378534,22.1565884 10.2368486,21.0653635 C10.1854079,20.6696684 10.1587302,20.2670805 10.1587302,19.8596422 C10.1587302,17.2046558 11.2820018,14.753899 13.0179671,13.0179463 C14.7539323,11.2309362 17.2045792,10.1587302 19.8597125,10.1587302 Z M37.9575339,18.4126984 C38.7155159,18.4126984 39.3650794,18.998779 39.3650794,19.6825397 C39.3650794,20.3663004 38.7155159,20.952381 37.9575339,20.952381 L37.9575339,20.952381 L33.7886332,20.952381 C33.0306512,20.952381 32.3809524,20.3663004 32.3809524,19.6825397 C32.3809524,18.998779 33.0306512,18.4126984 33.7886332,18.4126984 L33.7886332,18.4126984 Z M5.57658156,18.4126984 C6.33456352,18.4126984 6.98412698,18.998779 6.98412698,19.6825397 C6.98412698,20.3663004 6.33456352,20.952381 5.57658156,20.952381 L5.57658156,20.952381 L1.40754543,20.952381 C0.5954219,20.952381 1.15463195e-13,20.3663004 1.15463195e-13,19.6825397 C1.15463195e-13,18.998779 0.649698822,18.4126984 1.40754543,18.4126984 L1.40754543,18.4126984 Z M5.48368728,5.48367775 C6.02278356,4.94459419 6.88520282,4.94459419 7.42429909,5.48367775 L7.42429909,5.48367775 L10.3893286,8.44863732 C10.9284249,8.98772087 10.9284249,9.85025457 10.3893286,10.3893381 C9.85023232,10.9284217 8.98781305,10.9284217 8.44871678,10.3893381 L8.44871678,10.3893381 L5.48368728,7.42437856 C4.94459101,6.885295 4.94459101,6.02276131 5.48368728,5.48367775 Z M19.6826007,1.77635684e-15 C20.3663943,1.77635684e-15 20.952381,0.649686231 20.952381,1.4076535 L20.952381,1.4076535 L20.952381,5.57647348 C20.952381,6.33444075 20.3663943,6.98412698 19.6826007,6.98412698 C18.9986851,6.98412698 18.4126984,6.33444075 18.4126984,5.57647348 L18.4126984,5.57647348 L18.4126984,1.4076535 C18.4126984,0.649686231 18.9986851,1.77635684e-15 19.6826007,1.77635684e-15 Z" id="Combined-Shape" fill="#D9D9D9"></path>
    </g>
</svg>