<?xml version="1.0" encoding="UTF-8"?>
<svg width="20px" height="20px" viewBox="0 0 20 20" version="1.1" xmlns="http://www.w3.org/2000/svg" xmlns:xlink="http://www.w3.org/1999/xlink">
    
    <g id="Symbols" stroke="none" stroke-width="1" fill="none" fill-rule="evenodd">
        <g id="i_delete_small4" fill="#FFFFFF">
            <g id="Group" transform="translate(5.000000, 4.000000)">
                <path d="M4.02125385,2.03276471 L5.97445428,2.03276471 L5.97445428,1.00733208 L4.02125385,1.00733208 L4.02125385,2.03276471 Z M10,2 L7.0132046,2 L7.0132046,0 L2.9867954,0 L2.9867954,2 L-7.10542736e-14,2 L-7.10542736e-14,4 L10,4 L10,2 Z" id="Fill-1"></path>
                <path d="M6.82394574,10.4815385 L6.18942787,10.4815385 L6.37868672,6.36409538 L7.0132046,6.36409538 L6.82394574,10.4815385 Z M4.68308966,10.4815385 L5.31691034,10.4815385 L5.31691034,6.36409538 L4.68308966,6.36409538 L4.68308966,10.4815385 Z M3.17605426,10.4815385 L2.9867954,6.36409538 L3.62131328,6.36409538 L3.81057213,10.4815385 L3.17605426,10.4815385 Z M1,5 L1.66699062,12 L8.33300938,12 L9,5 L1,5 L1,5 Z" id="Fill-4"></path>
            </g>
        </g>
    </g>
</svg>