<?xml version="1.0" encoding="UTF-8"?>
<svg width="20px" height="20px" viewBox="0 0 20 20" version="1.1" xmlns="http://www.w3.org/2000/svg" xmlns:xlink="http://www.w3.org/1999/xlink">
    
    <g >
        <g fill="#B2B2B3" >
            <path d="M16.8023435,15.4987702 L13.5976211,12.1020589 C14.4216116,11.1038339 14.8730808,9.84786247 14.8730808,8.5403418 C14.8730808,5.48544551 12.4342015,3 9.4365404,3 C6.4388793,3 4,5.48544551 4,8.5403418 C4,11.5952381 6.4388793,14.0806836 9.4365404,14.0806836 C10.5619043,14.0806836 11.6343209,13.7347736 12.5512053,13.0781226 L15.7802739,16.5006086 C15.915242,16.643453 16.0967751,16.7222222 16.2913087,16.7222222 C16.475442,16.7222222 16.6501204,16.6506795 16.7827247,16.520602 C17.0644793,16.2443075 17.0734614,15.7861453 16.8023435,15.4987702 Z M9.4365404,4.44530656 C11.6522852,4.44530656 13.4548529,6.28229119 13.4548529,8.5403418 C13.4548529,10.7983924 11.6522852,12.635377 9.4365404,12.635377 C7.22079563,12.635377 5.41822793,10.7983924 5.41822793,8.5403418 C5.41822793,6.28229119 7.22079563,4.44530656 9.4365404,4.44530656 Z" id="Shape"></path>
        </g>
    </g>
</svg>