<?xml version="1.0" encoding="UTF-8"?>
<svg width="40px" height="40px" viewBox="0 0 40 40" version="1.1" xmlns="http://www.w3.org/2000/svg" xmlns:xlink="http://www.w3.org/1999/xlink">
    <!-- Generator: Sketch 62 (91390) - https://sketch.com -->
    <title>i_feed4 copy 6</title>
    <desc>Created with Sketch.</desc>
    <g id="Symbols" stroke="none" stroke-width="1" fill="none" fill-rule="evenodd">
        <g id="i_feed4-copy-6" fill-rule="nonzero" stroke="#FFFFFF" stroke-width="1.5">
            <path d="M30.6638572,17.3341971 C30.7723253,17.6830718 30.7762704,18.0479993 30.6873782,18.386034 C30.5971382,18.7291943 30.4114524,19.0443082 30.143905,19.2892802 L26.0979516,22.9913641 L27.2931876,28.4846646 C27.3707993,28.8431406 27.3423919,29.2076421 27.2237996,29.5362318 C27.1029282,29.8711364 26.8886771,30.168543 26.5990898,30.3869813 C26.3018031,30.6117238 25.9550589,30.731895 25.6045032,30.7480779 C25.2527633,30.7643154 24.8963161,30.6759244 24.5804367,30.4789493 L19.9999755,27.6204745 L15.4188295,30.4788508 C15.1278629,30.6605312 14.8019252,30.75 14.4765513,30.75 C14.0984037,30.75 13.7210481,30.6296974 13.4015701,30.3874615 C13.1113469,30.168543 12.8970958,29.8711364 12.7762244,29.5362318 C12.6576321,29.207642 12.6292248,28.8431406 12.7069999,28.4839113 L13.9020724,22.9913641 L9.85606615,19.2892318 C9.58866413,19.0445096 9.40291722,18.7291729 9.31265587,18.3859316 C9.22363284,18.0473993 9.22774599,17.6821325 9.33679854,17.3321753 C9.44765074,16.9791524 9.65435046,16.6784865 9.92045044,16.4567521 C10.1941759,16.2286635 10.5307464,16.0836072 10.8957939,16.0484537 L16.218556,15.5442732 L18.3282717,10.390097 C18.4691602,10.045401 18.7022625,9.76309319 18.9883529,9.56586979 C19.2820587,9.36339654 19.6318588,9.25 20.000012,9.25 C20.3679723,9.25 20.7175475,9.36325872 21.011305,9.56557812 C21.2971873,9.76247363 21.5304383,10.0443214 21.6725246,10.3897467 L23.7823864,15.5442803 L29.1040069,16.0484326 C29.4684474,16.0828431 29.8058533,16.2278324 30.0801029,16.4563577 C30.3465566,16.6783868 30.5533952,16.9797104 30.6638572,17.3341971 Z" id="Path"></path>
        </g>
    </g>
</svg>