<svg xmlns="http://www.w3.org/2000/svg" width="40" height="40" viewBox="0 0 40 40">
    <path fill="currentColor" fill-rule="nonzero" d="M28.726 28.306l-4.437-4.703a7.735 7.735 0 0 0 1.766-4.932c0-4.23-3.377-7.671-7.527-7.671C14.377 11 11 14.441 11 18.671s3.377 7.671 7.528 7.671a7.351 7.351 0 0 0 4.312-1.388l4.471 4.74a.966.966 0 0 0 1.388.027c.39-.383.403-1.017.027-1.415zM18.528 13.001c3.067 0 5.563 2.544 5.563 5.67 0 3.127-2.496 5.67-5.563 5.67-3.068 0-5.564-2.543-5.564-5.67 0-3.126 2.496-5.67 5.564-5.67z"/>
</svg>
