<svg xmlns="http://www.w3.org/2000/svg" width="40" height="40" viewBox="0 0 40 40">
    <path fill="currentColor" fill-rule="evenodd" d="M23.79 20.01c2.132 0 3.953 1.512 4.35 3.562h2.503c.513 0 .93.413.93.922a.927.927 0 0 1-.93.922h-2.546a4.41 4.41 0 0 1-4.307 3.373 4.408 4.408 0 0 1-4.305-3.373H8.804a.927.927 0 0 1-.93-.922c0-.509.417-.922.93-.922h10.639c.395-2.05 2.215-3.563 4.347-3.563zm0 1.843c-1.417 0-2.57 1.142-2.57 2.547 0 1.404 1.153 2.546 2.57 2.546 1.417 0 2.57-1.142 2.57-2.546 0-.68-.268-1.319-.754-1.8a2.565 2.565 0 0 0-1.817-.747zm-8.801-10.535c2.112 0 3.93 1.497 4.34 3.525h11.314c.513 0 .93.413.93.921a.927.927 0 0 1-.93.922h-11.34c-.455 1.992-2.227 3.41-4.314 3.41a4.4 4.4 0 0 1-4.314-3.41H8.804a.927.927 0 0 1-.93-.922c0-.508.417-.921.93-.921h1.846c.41-2.03 2.227-3.525 4.339-3.525zm-.001 1.843c-1.417 0-2.57 1.142-2.57 2.546 0 1.403 1.153 2.545 2.57 2.545 1.417 0 2.57-1.142 2.57-2.545 0-1.404-1.153-2.546-2.57-2.546z"/>
</svg>
