<svg xmlns="http://www.w3.org/2000/svg" width="25" height="25" viewBox="0 0 25 25">
    <g fill="#007196" fill-rule="evenodd">
        <path d="M12.5 21.4a8.9 8.9 0 1 0 0-17.8 8.9 8.9 0 0 0 0 17.8zm0 1.2c-5.578 0-10.1-4.522-10.1-10.1 0-5.578 4.522-10.1 10.1-10.1 5.578 0 10.1 4.522 10.1 10.1 0 5.578-4.522 10.1-10.1 10.1z"/>
        <path d="M16 14.999c0 .762-.247 1.39-.74 1.883-.494.494-1.18.79-2.057.887-.04 0-.06.02-.06.059l.015 1.025c0 .098-.05.147-.15.147h-.987c-.1 0-.15-.049-.15-.147l.016-1.04c0-.04-.02-.059-.06-.059-.888-.117-1.58-.422-2.08-.916C9.25 16.345 9 15.712 9 14.94v-.425c0-.097.05-.146.15-.146h1.032c.1 0 .15.049.15.146v.352c0 .498.209.909.627 1.231.42.323.988.484 1.706.484.648 0 1.139-.142 1.473-.425.334-.284.5-.655.5-1.114 0-.303-.084-.562-.253-.777-.17-.215-.42-.413-.748-.594-.33-.18-.808-.398-1.436-.652-.698-.273-1.247-.522-1.645-.747a3.067 3.067 0 0 1-.995-.887c-.264-.366-.396-.828-.396-1.385 0-.742.234-1.346.703-1.81.468-.464 1.106-.75 1.914-.857.04 0 .06-.02.06-.059l-.015-1.128c0-.098.05-.147.15-.147h.972c.1 0 .15.049.15.147l-.016 1.143c0 .039.02.063.06.073.858.117 1.533.43 2.027.938.493.508.74 1.148.74 1.92v.293c0 .098-.05.147-.15.147h-1.046c-.1 0-.15-.05-.15-.147v-.22c0-.508-.194-.93-.583-1.268-.39-.337-.933-.505-1.63-.505-.589 0-1.043.124-1.362.374-.319.249-.478.608-.478 1.077 0 .322.082.586.246.791.165.205.404.389.718.55.315.161.796.369 1.444.623.678.273 1.224.525 1.638.755.413.23.757.532 1.032.908.274.376.411.843.411 1.4z"/>
    </g>
</svg>
