<svg xmlns="http://www.w3.org/2000/svg" width="24" height="25" viewBox="0 0 24 25">
    <path fill="#007196" fill-rule="evenodd" d="M12.546 12.5c-1.605 0-2.91-1.419-2.91-3.164s1.305-3.164 2.91-3.164c1.606 0 2.913 1.419 2.913 3.164S14.152 12.5 12.546 12.5m4.047-3.007a4.567 4.567 0 0 0-1.13-3.139c-.757-.855-1.772-1.336-2.857-1.353L12.547 5c-1.072 0-2.08.45-2.846 1.27C8.926 7.101 8.5 8.208 8.5 9.386c0 1.41.627 2.733 1.684 3.558a6.878 6.878 0 0 0-2.564 1.767c-1.165 1.264-1.881 2.934-2.017 4.705a.657.657 0 0 0 .152.477c.111.131.27.207.434.207.307 0 .558-.252.585-.586.253-3.22 2.789-5.742 5.773-5.742 2.985 0 5.522 2.522 5.774 5.742.027.334.278.586.585.586a.573.573 0 0 0 .434-.207.654.654 0 0 0 .151-.477c-.135-1.771-.85-3.441-2.016-4.705a6.878 6.878 0 0 0-2.564-1.767c1.025-.802 1.653-2.085 1.683-3.451z"/>
</svg>
