<?xml version="1.0" encoding="UTF-8"?>
<svg width="25px" height="25px" viewBox="0 0 25 25" version="1.1" xmlns="http://www.w3.org/2000/svg" xmlns:xlink="http://www.w3.org/1999/xlink">
    <!-- Generator: Sketch 60.1 (88133) - https://sketch.com -->
    <title>i_cursos1</title>
    <desc>Created with Sketch.</desc>
    <defs>
        <polygon id="path-1" points="0 0.684749464 16.900125 0.684749464 16.900125 15.9375 0 15.9375"></polygon>
    </defs>
    <g id="Symbols" stroke="none" stroke-width="1" fill="none" fill-rule="evenodd">
        <g id="i_cursos1">
            <g id="Group" transform="translate(4.000000, 4.000000)">
                <g id="Group-3" transform="translate(0.000000, 1.000000)">
                    <mask id="mask-2" fill="white">
                        <use xlink:href="#path-1"></use>
                    </mask>
                    <g id="Clip-2"></g>
                    <path d="M0,7.4878625 C0,12.146925 3.791,15.937925 8.4500625,15.937925 C13.109125,15.937925 16.900125,12.146925 16.900125,7.4878625 C16.900125,4.883675 15.7260625,2.4633 13.678625,0.8472375 L13.6775625,0.8472375 C13.5203125,0.722925 13.32375,0.6644875 13.1250625,0.69105 C12.9231875,0.714425 12.743625,0.8143 12.61825,0.9726125 C12.361125,1.2988 12.4174375,1.7748 12.743625,2.0329875 C14.4255625,3.36005 15.3903125,5.3479875 15.3903125,7.4878625 C15.3903125,11.3149875 12.2771875,14.429175 8.451125,14.429175 C4.624,14.429175 1.5098125,11.3149875 1.5098125,7.4878625 C1.5098125,5.34905 2.4735,3.362175 4.154375,2.0351125 C4.481625,1.776925 4.536875,1.3019875 4.27975,0.9747375 C4.131,0.786675 3.91,0.688925 3.686875,0.688925 C3.5221875,0.688925 3.3575,0.7409875 3.219375,0.850425 C1.173,2.4643625 0,4.883675 0,7.4878625" id="Fill-1" fill="#09050A" mask="url(#mask-2)"></path>
                </g>
                <path d="M8.44995625,6.21724894e-15 C7.92295625,6.21724894e-15 7.49370625,0.42925 7.49370625,0.95625 L7.49370625,7.0666875 C7.49370625,7.5936875 7.92295625,8.0229375 8.44995625,8.0229375 C8.97695625,8.0229375 9.40620625,7.5936875 9.40620625,7.0666875 L9.40620625,0.95625 C9.40620625,0.42925 8.97695625,6.21724894e-15 8.44995625,6.21724894e-15" id="Fill-4" fill="#09050A"></path>
            </g>
        </g>
    </g>
</svg>