<?xml version="1.0" encoding="UTF-8"?>
<svg width="120px" height="100px" viewBox="0 0 120 100" version="1.1" xmlns="http://www.w3.org/2000/svg" xmlns:xlink="http://www.w3.org/1999/xlink">
    <!-- Generator: Sketch 60.1 (88133) - https://sketch.com -->
    <title>logo/people01</title>
    <desc>Created with Sketch.</desc>
    <g id="logo/people01" stroke="none" stroke-width="1" fill="none" fill-rule="evenodd">
        <g id="Group" transform="translate(1.000000, 26.000000)">
            <path d="M7.224,42.288 C9.912,42.288 12.048,40.632 12.48,38.208 L10.584,38.208 C10.248,39.672 8.952,40.608 7.224,40.608 C4.8,40.608 3.216,38.76 3.216,36.432 C3.216,34.128 4.8,32.256 7.224,32.256 C8.952,32.256 10.248,33.216 10.584,34.68 L12.48,34.68 C12.048,32.232 9.912,30.576 7.224,30.576 C3.84,30.576 1.392,33.144 1.392,36.432 C1.392,39.72 3.84,42.288 7.224,42.288 Z M20.668,42.288 C24.052,42.288 26.572,39.792 26.572,36.432 C26.572,33.072 24.052,30.576 20.668,30.576 C17.26,30.576 14.74,33.072 14.74,36.432 C14.74,39.792 17.26,42.288 20.668,42.288 Z M20.668,40.608 C18.316,40.608 16.564,38.832 16.564,36.432 C16.564,34.032 18.316,32.256 20.668,32.256 C22.996,32.256 24.724,34.032 24.724,36.432 C24.724,38.832 22.996,40.608 20.668,40.608 Z M30.992,42 L30.992,34.128 C31.856,32.832 33.08,32.256 34.472,32.256 C36.176,32.256 37.352,33.144 37.352,35.328 L37.352,42 L39.176,42 L39.176,35.328 C39.176,34.896 39.152,34.512 39.08,34.152 C39.968,32.808 41.216,32.256 42.56,32.256 C44.384,32.256 45.536,33.216 45.536,35.424 L45.536,42 L47.36,42 L47.36,35.424 C47.36,32.232 45.512,30.576 42.68,30.576 C40.904,30.576 39.536,31.248 38.456,32.424 C37.688,31.2 36.368,30.576 34.664,30.576 C33.056,30.576 31.904,31.128 30.992,32.064 L30.992,30.864 L29.168,30.864 L29.168,42 L30.992,42 Z M52.164,42 L52.164,34.128 C53.028,32.832 54.252,32.256 55.644,32.256 C57.348,32.256 58.524,33.144 58.524,35.328 L58.524,42 L60.348,42 L60.348,35.328 C60.348,34.896 60.324,34.512 60.252,34.152 C61.14,32.808 62.388,32.256 63.732,32.256 C65.556,32.256 66.708,33.216 66.708,35.424 L66.708,42 L68.532,42 L68.532,35.424 C68.532,32.232 66.684,30.576 63.852,30.576 C62.076,30.576 60.708,31.248 59.628,32.424 C58.86,31.2 57.54,30.576 55.836,30.576 C54.228,30.576 53.076,31.128 52.164,32.064 L52.164,30.864 L50.34,30.864 L50.34,42 L52.164,42 Z M76.744,42.288 C79.144,42.288 81.064,41.136 81.76,39.216 L79.72,39.216 C79.24,40.152 78.16,40.656 76.744,40.656 C74.416,40.656 73,39.048 72.784,36.984 L82.096,36.984 C82.456,33.336 80.224,30.576 76.648,30.576 C73.288,30.576 70.936,33.144 70.936,36.432 C70.936,39.72 73.312,42.288 76.744,42.288 Z M80.272,35.688 L72.808,35.688 C73.072,33.72 74.44,32.16 76.648,32.16 C78.76,32.16 80.176,33.48 80.272,35.688 Z M86.588,42 L86.588,34.752 C87.572,33.216 89.06,32.376 90.884,32.328 L90.884,30.6 C89.108,30.6 87.62,31.368 86.588,32.688 L86.588,30.864 L84.764,30.864 L84.764,42 L86.588,42 Z M97.824,42.288 C100.512,42.288 102.648,40.632 103.08,38.208 L101.184,38.208 C100.848,39.672 99.552,40.608 97.824,40.608 C95.4,40.608 93.816,38.76 93.816,36.432 C93.816,34.128 95.4,32.256 97.824,32.256 C99.552,32.256 100.848,33.216 101.184,34.68 L103.08,34.68 C102.648,32.232 100.512,30.576 97.824,30.576 C94.44,30.576 91.992,33.144 91.992,36.432 C91.992,39.72 94.44,42.288 97.824,42.288 Z M111.148,42.288 C113.548,42.288 115.468,41.136 116.164,39.216 L114.124,39.216 C113.644,40.152 112.564,40.656 111.148,40.656 C108.82,40.656 107.404,39.048 107.188,36.984 L116.5,36.984 C116.86,33.336 114.628,30.576 111.052,30.576 C107.692,30.576 105.34,33.144 105.34,36.432 C105.34,39.72 107.716,42.288 111.148,42.288 Z M114.676,35.688 L107.212,35.688 C107.476,33.72 108.844,32.16 111.052,32.16 C113.164,32.16 114.58,33.48 114.676,35.688 Z" id="commerce" fill="#4D4D4D" fill-rule="nonzero"></path>
            <path d="M41.668,25.032 L41.668,18.324 C42.604,18.896 43.722,19.26 45.1,19.26 C48.506,19.26 51.366,16.426 51.366,12.682 C51.366,8.912 48.506,6.104 45.1,6.104 C43.722,6.104 42.604,6.468 41.668,7.04 L41.668,6.39 L37.43,6.39 L37.43,25.032 L41.668,25.032 Z M44.268,15.802 C43.358,15.802 42.448,15.542 41.668,14.658 L41.668,10.706 C42.448,9.822 43.358,9.536 44.268,9.536 C45.984,9.536 47.232,10.94 47.232,12.682 C47.232,14.424 45.984,15.802 44.268,15.802 Z M59.4303333,19.338 C62.3943333,19.338 64.7343333,17.804 65.4883333,15.334 L61.2243333,15.334 C60.8343333,15.802 60.2883333,16.01 59.3523333,16.01 C57.6363333,16.01 56.7783333,14.996 56.4923333,13.696 L65.6183333,13.696 C66.2423333,9.224 63.5643333,6.052 59.1183333,6.052 C55.2183333,6.052 52.5403333,8.86 52.5403333,12.682 C52.5403333,16.53 55.2963333,19.338 59.4303333,19.338 Z M61.7963333,11.278 L56.5443333,11.278 C56.8823333,10.004 57.7403333,9.172 59.2223333,9.172 C60.6523333,9.172 61.5623333,9.822 61.7963333,11.278 Z M73.8386667,19.338 C77.8946667,19.338 80.7546667,16.608 80.7546667,12.708 C80.7546667,8.834 77.8946667,6.052 73.8386667,6.052 C69.7826667,6.052 66.8966667,8.834 66.8966667,12.708 C66.8966667,16.608 69.7826667,19.338 73.8386667,19.338 Z M73.8386667,15.828 C72.0706667,15.828 70.8486667,14.554 70.8486667,12.708 C70.8486667,10.888 72.0706667,9.588 73.8386667,9.588 C75.5806667,9.588 76.8026667,10.888 76.8026667,12.708 C76.8026667,14.554 75.5806667,15.828 73.8386667,15.828 Z M86.739,25.032 L86.739,18.324 C87.675,18.896 88.793,19.26 90.171,19.26 C93.577,19.26 96.437,16.426 96.437,12.682 C96.437,8.912 93.577,6.104 90.171,6.104 C88.793,6.104 87.675,6.468 86.739,7.04 L86.739,6.39 L82.501,6.39 L82.501,25.032 L86.739,25.032 Z M89.339,15.802 C88.429,15.802 87.519,15.542 86.739,14.658 L86.739,10.706 C87.519,9.822 88.429,9.536 89.339,9.536 C91.055,9.536 92.303,10.94 92.303,12.682 C92.303,14.424 91.055,15.802 89.339,15.802 Z M102.343333,19 L102.343333,0.54 L98.1053333,0.54 L98.1053333,19 L102.343333,19 Z M110.875667,19.338 C113.839667,19.338 116.179667,17.804 116.933667,15.334 L112.669667,15.334 C112.279667,15.802 111.733667,16.01 110.797667,16.01 C109.081667,16.01 108.223667,14.996 107.937667,13.696 L117.063667,13.696 C117.687667,9.224 115.009667,6.052 110.563667,6.052 C106.663667,6.052 103.985667,8.86 103.985667,12.682 C103.985667,16.53 106.741667,19.338 110.875667,19.338 Z M113.241667,11.278 L107.989667,11.278 C108.327667,10.004 109.185667,9.172 110.667667,9.172 C112.097667,9.172 113.007667,9.822 113.241667,11.278 Z" id="people" fill="#4D4D4D" fill-rule="nonzero"></path>
            <path d="M12.3082117,10 C12.3082117,10 12.4183205,9.99888318 12.5975609,10.0247355 C12.9380008,10.0586006 13.2608069,10.1516766 13.5562132,10.2934883 L13.5730435,10.3010091 C13.6164302,10.3176455 13.6600915,10.3342818 13.7026545,10.3528273 C13.7463158,10.3716455 13.7883295,10.3926455 13.8306178,10.4139182 C13.8712586,10.4341 13.9118993,10.4540091 13.951167,10.4761 C13.9926316,10.4992818 14.0327231,10.5246455 14.0730892,10.5497364 C14.110984,10.5734636 14.1491533,10.5969182 14.1859497,10.6222818 C14.2246682,10.6492818 14.2617391,10.6779182 14.2990847,10.7065545 C14.3347826,10.7338273 14.3704805,10.7611 14.4045309,10.7900091 C14.4399542,10.8200091 14.47373,10.8516455 14.5077803,10.8830091 C14.5412815,10.9143727 14.574508,10.9451909 14.6063616,10.9776455 C14.6382151,11.0103727 14.6681465,11.0441909 14.6983524,11.0782818 C14.7291076,11.1129182 14.7598627,11.1472818 14.7889703,11.1835545 C14.8169794,11.2184636 14.8436156,11.2550091 14.8699771,11.2912818 C14.8977117,11.3289182 14.9251716,11.3665545 14.950984,11.4055545 C14.9756979,11.4431909 14.9982151,11.4819182 15.0212815,11.5203727 C15.0236313,11.5243697 15.0259812,11.5283641 15.0283292,11.5323574 C15.6767076,12.0816833 16.2877143,12.1992934 17.0624027,12.2289265 C17.6416586,12.2511258 18.2585466,12.1631717 18.8603817,11.8254056 C19.4332262,11.5039376 19.8064811,11.0582662 20.3071276,10.6544642 C20.3430872,10.6255209 20.3801618,10.5985445 20.4172364,10.5712872 C20.4559836,10.5431869 20.494452,10.5148055 20.5343141,10.4883912 C20.5725038,10.4633819 20.6120872,10.4403396 20.6516706,10.4167353 C20.6929266,10.392288 20.7341825,10.3678407 20.7768322,10.3453604 C20.8178094,10.3237232 20.8599017,10.3043339 20.9017151,10.2846637 C20.9452011,10.2644314 20.9884084,10.2439182 21.0330094,10.225934 C21.0767742,10.2076687 21.121654,10.1922136 21.1665337,10.1764774 C21.2111348,10.1607412 21.2557358,10.145005 21.3014519,10.1312358 C21.3482829,10.1174666 21.3959503,10.1059455 21.4436176,10.0944244 C21.4890549,10.0834652 21.5344922,10.0722251 21.5807658,10.063514 C21.6303845,10.0539599 21.6805606,10.0472158 21.7310155,10.0404717 C21.7772891,10.0337276 21.8235627,10.0272645 21.8706725,10.0230495 C21.9214062,10.0188344 21.9726974,10.0171484 22.0239885,10.0154624 C22.0582756,10.0140574 22.0920051,10.0101233 22.1265709,10.0101233 L22.1265709,10.0101233 L22.1706144,10.0123713 C22.1856673,10.0126523 22.2001626,10.0109663 22.2149367,10.0115283 L22.2149367,10.0115283 L22.3177978,10.0196774 C22.369089,10.0230495 22.4198227,10.0264215 22.4702776,10.0320416 C22.5173874,10.0379427 22.563661,10.0458108 22.6102133,10.0539599 C22.6601107,10.062109 22.7097294,10.0702581 22.7587905,10.0812172 C22.8050641,10.0916143 22.8499439,10.1042595 22.8951024,10.1166236 C22.942491,10.1295498 22.9898796,10.1424759 23.0361532,10.1579311 C23.0815905,10.1728243 23.125634,10.1899655 23.1699563,10.2071067 C23.2139998,10.2242479 23.258322,10.2413892 23.3015293,10.2604974 C23.3455728,10.2798866 23.3882225,10.3015239 23.4314298,10.3234422 C23.4726857,10.3442364 23.5139417,10.3647497 23.5538039,10.3875109 C23.5958961,10.4113962 23.6365945,10.4375296 23.6775717,10.4633819 C23.7160401,10.4878292 23.7547873,10.5119955 23.7921406,10.5381288 C23.8314453,10.5659481 23.8690774,10.5954535 23.9069883,10.6249589 C23.9432266,10.6530592 23.9794649,10.6811596 24.0140307,10.7109459 C24.0499903,10.7418563 24.0842774,10.7744527 24.1188432,10.8067681 C24.1528514,10.8390835 24.186581,10.8708369 24.2189167,10.9042763 C24.2512525,10.9379967 24.2816369,10.9728411 24.3123001,11.0079666 C24.3435208,11.043654 24.3747416,11.0790604 24.4042898,11.1164339 C24.4327229,11.1524023 24.4597623,11.1900568 24.4865229,11.2274303 C24.5146773,11.2662087 24.5425529,11.3049872 24.568756,11.3451707 C24.5938441,11.3839492 24.6167022,11.4238517 24.6401177,11.4634731 C24.6643695,11.5053427 24.6886213,11.5469312 24.7109218,11.5899247 L24.7109218,11.5899247 L24.7711332,11.7158142 C24.7912037,11.7596508 24.8115529,11.8032063 24.8293933,11.8478859 C24.8472337,11.8922844 24.8625653,11.937526 24.8784545,11.9827675 C24.8940648,12.0277281 24.9096752,12.0726886 24.9230555,12.1184922 C24.9369933,12.1657008 24.9484223,12.2140334 24.9598513,12.2620849 C24.9707228,12.3078885 24.9818731,12.3536921 24.9905145,12.4003386 C24.9999923,12.4503573 25.0066824,12.5009379 25.0133726,12.5515185 C25.019784,12.5984461 25.0264741,12.6448116 25.0303767,12.6923012 C25.0348368,12.7434439 25.0365093,12.7951485 25.0381819,12.8471341 C25.0395757,12.8816975 25.0434783,12.915418 25.0434783,12.9505434 C25.0434783,12.9603785 25.042642,12.9699326 25.0420845,12.9800488 C25.0420845,12.9881979 25.0412482,12.996066 25.041527,13.0044961 C25.0418057,13.0162982 25.0423632,13.0278193 25.0420845,13.0399025 C25.0418057,13.0488946 25.0406907,13.0576057 25.0398544,13.0665978 C25.0303767,14.6812436 23.7330443,15.9884717 22.1293585,15.9898767 L22.1293585,15.9898767 L22.1265709,16 C22.1265709,16 22.0164621,16.0011168 21.8372217,15.9752645 C21.4372062,15.9176588 21.0625576,15.8179026 20.7074219,15.6169851 C20.1301173,15.2907401 19.7342832,14.7323863 19.1647838,14.3932151 C18.5883155,14.0498289 17.9234814,13.8477874 17.2536296,13.8222161 C16.6743738,13.8000168 16.0965117,13.9200053 15.5744009,14.1748754 C15.3450524,14.2866535 15.1511642,14.4273507 14.9704482,14.5813023 C14.5933396,15.1796841 13.9976798,15.6268997 13.2946797,15.8153201 L13.2685276,15.8238036 C13.2236478,15.8392588 13.1790468,15.854995 13.1336095,15.8687642 C13.0867784,15.8828144 13.0388323,15.8940545 12.991165,15.9055756 C12.9457277,15.9168158 12.9002904,15.9280559 12.8540168,15.936767 C12.8046769,15.9460401 12.754222,15.9530652 12.7040458,15.9598093 C12.6574935,15.9662724 12.6114987,15.9727355 12.5643889,15.9769505 C12.5136552,15.9814466 12.462364,15.9828516 12.4107941,15.9848186 L12.4107941,15.9848186 L12.3082117,15.9901577 C12.2934376,15.9901577 12.2789423,15.9879097 12.2641682,15.9879097 C12.2491153,15.9876287 12.2348988,15.9893147 12.2198459,15.9887527 L12.2198459,15.9887527 L12.1169848,15.9800416 C12.0659724,15.9769505 12.0149599,15.9738595 11.964505,15.9676774 C11.9173952,15.9623383 11.8711216,15.9541892 11.8245693,15.9463211 C11.7749506,15.937891 11.7250532,15.9297419 11.6759921,15.9187828 C11.6299973,15.9086667 11.5848387,15.8960215 11.5396802,15.8833764 C11.4922916,15.8704502 11.444903,15.8575241 11.3986294,15.8420689 C11.3534709,15.8271757 11.3091486,15.8100345 11.2651051,15.7928933 C11.2207828,15.7757521 11.1764606,15.7588918 11.1332533,15.7397836 C11.0892098,15.7201134 11.0465601,15.6981951 11.0036316,15.6765578 C10.9623756,15.6557636 10.9211197,15.6352503 10.8809787,15.6124891 C10.8388865,15.5886038 10.7981881,15.5627514 10.7572109,15.5366181 C10.7187425,15.5121708 10.6802741,15.4880045 10.6429207,15.4618712 C10.6036161,15.4340519 10.5657052,15.4048275 10.5280731,15.3750411 C10.4918348,15.3466598 10.4555964,15.3188404 10.4207519,15.2887731 C10.3847923,15.2581437 10.3505052,15.2258283 10.3159394,15.1932319 L10.26538,15.1450047 L10.26538,15.1450047 L10.2158659,15.0957237 C10.1835301,15.0622843 10.1531457,15.0271589 10.1224825,14.9920334 C10.0912618,14.956346 10.060041,14.9209396 10.0304929,14.8838471 C10.0020597,14.8475977 9.97529908,14.8099432 9.94825971,14.7728508 C9.92010531,14.7337913 9.89222966,14.6950128 9.86630532,14.6548293 C9.84121724,14.6160508 9.81808045,14.5761483 9.79494367,14.5365269 C9.7704131,14.4946573 9.74616129,14.4530688 9.72386078,14.4100753 L9.7388627,14.4389929 L9.62759725,14.3638273 C9.13070938,14.0722136 8.56717534,13.8856298 7.99199925,13.8269141 L7.74494279,13.8096455 C7.17432494,13.7881 6.60508009,13.9045545 6.09075515,14.1519182 C5.50915332,14.4311909 5.1590389,14.8964636 4.66585812,15.2883727 C4.63043478,15.3161909 4.59363844,15.3423727 4.5571167,15.3688273 C4.51922197,15.3961 4.48132723,15.4236455 4.4420595,15.4490091 C4.40416476,15.4735545 4.36517162,15.4959182 4.32617849,15.5188273 C4.28553776,15.5425545 4.24489703,15.5665545 4.20315789,15.5881 C4.16279176,15.6091 4.12132723,15.6281909 4.0798627,15.6472818 C4.03702517,15.6669182 3.99446224,15.6868273 3.95080092,15.7042818 C3.90741419,15.7214636 3.86320366,15.7367364 3.81926773,15.7522818 C3.77505721,15.7672818 3.73112128,15.7825545 3.68636156,15.7959182 C3.64022883,15.8095545 3.59299771,15.8204636 3.54631579,15.8316455 C3.50128146,15.8425545 3.45652174,15.8534636 3.41093822,15.8619182 C3.3623341,15.8709182 3.31263158,15.8777364 3.26320366,15.8842818 C3.21734554,15.8905545 3.17203661,15.8968273 3.12562929,15.9009182 C3.07565217,15.9052818 3.02512586,15.9066455 2.97432494,15.9085545 C2.9405492,15.9096455 2.90732265,15.9137364 2.87327231,15.9137364 C2.85871854,15.9137364 2.84443936,15.9115545 2.82988558,15.9115545 C2.81505721,15.9112818 2.80105263,15.9129182 2.78622426,15.9123727 C2.75189931,15.9112818 2.71894737,15.9063727 2.68489703,15.9039182 C2.63464531,15.9009182 2.58439359,15.8979182 2.53469108,15.8919182 C2.48828375,15.8867364 2.44270023,15.8788273 2.39684211,15.8711909 C2.34796339,15.8630091 2.29881007,15.8551 2.25048055,15.8444636 C2.20517162,15.8346455 2.1609611,15.8223727 2.11620137,15.8101 C2.06951945,15.7975545 2.02311213,15.7850091 1.977254,15.7700091 L1.977254,15.7700091 L1.84572082,15.7222818 C1.8020595,15.7056455 1.75839817,15.6892818 1.71583524,15.6707364 C1.67244851,15.6516455 1.63043478,15.6303727 1.58814645,15.6093727 C1.54750572,15.5891909 1.50686499,15.5692818 1.46732265,15.5471909 C1.42585812,15.5240091 1.38576659,15.4989182 1.34540046,15.4735545 C1.30750572,15.4498273 1.26961098,15.4263727 1.23281465,15.4010091 C1.19409611,15.3740091 1.15675057,15.3456455 1.11967963,15.3167364 C1.08398169,15.2891909 1.04828375,15.2621909 1.01395881,15.2330091 C0.978535469,15.2032818 0.944759725,15.1719182 0.910709382,15.1402818 C0.877482838,15.1091909 0.843981693,15.0781 0.812128146,15.0456455 C0.7802746,15.0131909 0.750343249,14.9791 0.7201373,14.9450091 C0.689382151,14.9103727 0.658627002,14.8760091 0.62979405,14.8400091 C0.601510297,14.8048273 0.575148741,14.7682818 0.548512586,14.7322818 C0.520778032,14.6943727 0.493318078,14.6567364 0.46778032,14.6177364 C0.443066362,14.5801 0.4202746,14.5413727 0.397482838,14.5029182 C0.373318078,14.4622818 0.349427918,14.4219182 0.327459954,14.3801909 C0.306315789,14.3403727 0.287368421,14.2991909 0.268421053,14.2580091 C0.248375286,14.2157364 0.228329519,14.1734636 0.210755149,14.1298273 C0.193180778,14.0867364 0.178077803,14.0428273 0.162425629,13.9989182 C0.147322654,13.9552818 0.131670481,13.9119182 0.118489703,13.8671909 C0.104759725,13.8213727 0.0937757437,13.7747364 0.0825171625,13.7278273 C0.0718077803,13.6833727 0.0608237986,13.6391909 0.0520366133,13.5939182 C0.0427002288,13.5453727 0.0361098398,13.4960091 0.0295194508,13.4469182 C0.0232036613,13.4016455 0.0166132723,13.3563727 0.0127688787,13.3102818 C0.00837528604,13.2606455 0.00672768879,13.2101909 0.00508009153,13.1600091 C0.00398169336,13.1264636 -0.000137299771,13.0937364 -0.000137299771,13.0599182 C-0.000137299771,13.0503727 0.000686498856,13.0405545 0.00151029748,13.0310091 C0.00123569794,13.0233727 0.00205949657,13.0157364 0.00205949657,13.0075545 C0.00178489703,12.9961 0.000961098398,12.9846455 0.00123569794,12.9731909 L0.00123569794,12.9731909 L0.00343249428,12.9470091 C0.0127688787,11.3799182 1.29075515,10.1114636 2.87052632,10.1098273 L2.87052632,10.1098273 C2.87327231,10.1000021 2.98173913,10.0989182 3.15830664,10.1240091 C3.86512586,10.1932818 4.49478261,10.5178273 4.95720824,11.0024636 C4.98521739,11.0286455 5.01542334,11.0512818 5.0409611,11.0812818 C5.88810069,12.0549182 6.59409611,12.2270091 7.55656751,12.2632818 C8.12718535,12.2848273 8.73487414,12.1994636 9.32773455,11.8716455 C9.46590728,11.7952504 9.59229217,11.7116281 9.71161779,11.6231447 C10.1893082,10.6660308 11.1706733,10.0113163 12.3054241,10.0101233 L12.3054241,10.0101233 Z" id="Combined-Shape" fill="#FF1E3C"></path>
        </g>
    </g>
</svg>