<svg xmlns="http://www.w3.org/2000/svg" xmlns:xlink="http://www.w3.org/1999/xlink" width="130" height="50" viewBox="0 0 130 50">
    <defs>
        <path id="a" d="M0 .1h15.419v5.823H0z"/>
    </defs>
    <g fill="none" fill-rule="evenodd">
        <text fill="#4D4D4D" font-family="Campton-Book, Campton" font-size="24" font-weight="300" letter-spacing="-.5" transform="translate(7)">
            <tspan x="0" y="43">commerce</tspan>
        </text>
        <text fill="#4D4D4D" font-family="Campton-Bold, Campton" font-size="26" font-weight="bold" letter-spacing="-.542" transform="translate(7)">
            <tspan x="36" y="20">people</tspan>
        </text>
        <g transform="translate(7 11)">
            <mask id="b" fill="#fff">
                <use xlink:href="#a"/>
            </mask>
            <path fill="#FF1E3C" d="M2.974 5.909c.051-.002.102-.004.152-.008.046-.004.091-.01.137-.017.05-.006.1-.013.148-.022.046-.009.09-.02.135-.03.047-.012.094-.022.14-.036.045-.013.09-.029.133-.044.044-.015.088-.03.132-.048.043-.017.086-.037.129-.057.041-.019.083-.038.123-.059.042-.021.083-.045.123-.07.04-.022.078-.044.116-.069.04-.025.077-.053.115-.08l.109-.08c.493-.393.843-.858 1.425-1.137a3.514 3.514 0 0 1 1.654-.342c.66.024 1.315.22 1.883.554.56.329.95.87 1.52 1.188.35.195.718.291 1.112.347.177.025.285.024.285.024l.003-.01a2.861 2.861 0 0 0 2.867-2.837l.002-.026v-.034-.024l.002-.028c0-.034-.004-.067-.006-.1-.001-.051-.003-.101-.007-.151-.004-.046-.01-.091-.017-.137a2.627 2.627 0 0 0-.023-.146c-.008-.046-.019-.09-.03-.135-.011-.046-.022-.093-.036-.139-.013-.044-.029-.088-.044-.132-.016-.044-.03-.087-.048-.13-.018-.044-.038-.086-.058-.129-.019-.04-.038-.082-.059-.122-.022-.042-.046-.082-.07-.123-.023-.038-.045-.077-.07-.114a2.775 2.775 0 0 0-.081-.115 2.835 2.835 0 0 0-.081-.107c-.03-.037-.06-.071-.09-.106-.03-.034-.06-.068-.093-.1-.031-.033-.065-.064-.098-.095-.034-.031-.068-.063-.103-.093-.035-.029-.07-.056-.106-.083-.037-.03-.074-.058-.113-.085-.037-.025-.075-.049-.113-.072-.04-.025-.08-.05-.122-.074-.04-.022-.08-.042-.12-.062a2.389 2.389 0 0 0-.128-.061c-.043-.019-.087-.035-.13-.052a2.618 2.618 0 0 0-.27-.088c-.045-.012-.09-.024-.135-.034a2.606 2.606 0 0 0-.146-.027 2.895 2.895 0 0 0-.138-.02 3.4 3.4 0 0 0-.15-.013c-.034-.002-.067-.007-.102-.008l-.043.001-.044-.002c-.034 0-.067.004-.1.005-.051.002-.102.003-.152.007-.046.004-.092.01-.137.017-.05.007-.1.013-.148.023-.046.008-.09.019-.136.03-.047.01-.093.022-.14.035a3.028 3.028 0 0 0-.133.044c-.044.016-.088.03-.131.048-.044.018-.087.038-.13.057-.04.02-.082.038-.122.06a2.853 2.853 0 0 0-.124.068c-.039.023-.078.046-.115.07-.04.026-.077.053-.116.08-.036.027-.073.053-.108.081-.493.392-.861.825-1.425 1.137-.593.327-1.2.413-1.771.391-.963-.036-1.669-.208-2.516-1.182-.026-.03-.056-.052-.084-.079A2.87 2.87 0 0 0 3.158.124C2.982.099 2.873.1 2.873.1l-.002.01A2.862 2.862 0 0 0 .003 2.947l-.002.026.001.035v.023A.34.34 0 0 0 0 3.06c0 .034.004.066.005.1.002.05.003.1.008.15.004.046.01.092.017.137.006.049.013.098.022.147.009.045.02.09.03.134l.036.14.044.13c.016.045.031.089.049.132.017.043.037.086.057.128a2.388 2.388 0 0 0 .13.245 2.7 2.7 0 0 0 .151.23l.08.107.091.105c.03.034.06.068.092.1a2.746 2.746 0 0 0 .202.187c.034.03.07.057.106.085.037.029.074.057.113.084l.112.073c.04.025.08.05.122.073.04.022.08.042.121.062.042.021.084.043.128.062.042.018.086.035.13.051a2.691 2.691 0 0 0 .27.088c.045.012.09.025.134.034.049.011.098.019.147.027.046.008.091.016.138.02.05.007.1.01.15.013.034.002.067.007.101.008h.044l.043.002c.034 0 .068-.004.101-.005" mask="url(#b)"/>
        </g>
        <path fill="#FF1E3C" d="M19.41 16.985c.052-.002.104-.004.154-.008.047-.004.093-.01.14-.017.05-.007.1-.014.15-.023.046-.009.092-.02.137-.031.048-.012.096-.023.143-.037l.135-.045c.044-.016.089-.032.133-.05a2.707 2.707 0 0 0 .256-.12c.043-.022.084-.046.125-.07.04-.024.08-.047.117-.073.04-.026.08-.054.118-.082l.11-.083c.5-.404.856-.883 1.446-1.171a3.522 3.522 0 0 1 1.68-.353c.67.026 1.334.228 1.91.571.57.34.966.898 1.543 1.224.356.2.73.3 1.13.358.18.026.29.025.29.025l.002-.01c1.604-.002 2.901-1.309 2.91-2.923l.003-.027v-.036-.024l.001-.03c0-.035-.003-.068-.005-.103a2.835 2.835 0 0 0-.008-.155c-.004-.047-.01-.094-.017-.14-.006-.051-.013-.102-.022-.152l-.031-.138c-.012-.048-.023-.096-.037-.144-.013-.045-.029-.09-.045-.135-.015-.045-.03-.09-.049-.135-.017-.045-.038-.088-.058-.132-.02-.043-.039-.085-.06-.126-.022-.043-.047-.085-.07-.127-.024-.04-.047-.08-.072-.118a2.86 2.86 0 0 0-.082-.118 2.918 2.918 0 0 0-.083-.11c-.03-.038-.06-.073-.092-.109-.03-.035-.06-.07-.093-.104-.032-.033-.066-.065-.1-.097-.035-.033-.069-.065-.105-.096-.035-.03-.07-.058-.107-.086-.038-.03-.076-.06-.115-.087-.037-.026-.076-.05-.114-.075-.041-.025-.082-.052-.124-.075-.04-.023-.081-.044-.123-.065-.043-.021-.085-.043-.13-.063-.043-.019-.087-.036-.131-.053-.044-.017-.088-.034-.134-.05a2.628 2.628 0 0 0-.14-.04c-.046-.013-.09-.025-.137-.036a2.61 2.61 0 0 0-.149-.027 2.899 2.899 0 0 0-.14-.022 3.38 3.38 0 0 0-.152-.012c-.034-.002-.068-.008-.103-.008h-.044l-.044-.002c-.035 0-.069.004-.103.005-.051.002-.103.004-.153.008-.047.004-.094.01-.14.017-.05.007-.1.014-.15.024-.047.008-.092.02-.137.03-.048.012-.096.023-.143.037-.045.014-.09.03-.134.045-.045.016-.09.032-.134.05-.045.018-.088.038-.131.059-.042.02-.084.039-.125.06-.043.023-.084.047-.125.072-.04.023-.08.046-.118.071-.04.027-.078.055-.117.083l-.11.083c-.5.404-.874.85-1.447 1.171-.601.338-1.218.426-1.798.404-.977-.037-1.693-.215-2.553-1.218-.026-.03-.057-.054-.085-.081a2.897 2.897 0 0 0-1.826-.905c-.18-.026-.29-.025-.29-.025l-.003.01c-1.603.002-2.9 1.309-2.91 2.923l-.002.027v.06l-.002.03c0 .035.004.068.006.103.001.052.003.104.007.155.004.047.011.094.017.14.007.051.014.102.023.152l.031.138c.012.048.023.096.037.144.013.046.029.09.044.135.016.045.032.09.05.135.017.045.038.089.058.132.02.043.038.085.06.126.022.043.046.085.07.127.024.04.047.08.072.118.026.04.054.079.082.118.027.037.054.075.082.11.03.038.061.073.092.109l.094.104c.032.033.066.065.1.097.035.033.069.065.105.096.035.03.07.058.107.086.038.03.076.06.115.087.037.026.076.05.114.075.041.026.082.052.124.075.04.023.081.044.123.065.043.021.085.043.13.063.042.019.087.036.131.053a2.706 2.706 0 0 0 .411.126c.05.01.099.019.149.027.046.008.092.016.14.022.05.006.101.009.152.012.035.003.068.008.103.009l.044-.001.044.002c.035 0 .069-.004.103-.005"/>
    </g>
</svg>
