<svg xmlns="http://www.w3.org/2000/svg" width="210" height="150" viewBox="0 0 210 150">
    <g fill="none" fill-rule="evenodd">
        <circle cx="157.5" cy="39.5" r="11.5" fill="#FFF"/>
        <path fill="#666" d="M166 19c-3.033 0-5.427 2.348-5.535 5.379l-.003.212v2.566h-1.385c-1.093 0-1.995.863-2.072 1.946l-.005.15v11.652c0 1.101.855 2.013 1.93 2.09l.147.005h13.846c1.093 0 1.995-.864 2.072-1.946l.005-.15V29.253a2.095 2.095 0 0 0-1.93-2.09l-.147-.005h-1.385V24.59c0-3.132-2.434-5.591-5.538-5.591zm7.154 10.017V41.14h-14.308V29.017h14.308zM166 33.078c1.1 0 2 .9 2 2 0 1.101-.9 2-2 2s-2-.899-2-2c0-1.1.9-2 2-2zm0-12.335c2.088 0 3.808 1.737 3.808 3.848v2.566h-7.616V24.59c0-2.111 1.72-3.848 3.808-3.848z"/>
        <circle cx="46" cy="98" r="3" fill="#EDEDED"/>
        <circle cx="174" cy="78" r="5" fill="#EDEDED"/>
        <circle cx="27" cy="70" r="8" fill="#EDEDED"/>
        <path fill="#EDEDED" d="M149 119c0 4.97-19.924 9-44.5 9-24.577 0-44.5-4.03-44.5-9s19.923-9 44.5-9c24.576 0 44.5 4.03 44.5 9"/>
        <path fill="#F5F5F5" d="M150 73c0 24.852-19.923 45-44.5 45S61 97.852 61 73s19.923-45 44.5-45S150 48.148 150 73"/>
        <path stroke="#666" stroke-width="2" d="M150 73c0 24.852-19.923 45-44.5 45S61 97.852 61 73s19.923-45 44.5-45S150 48.148 150 73z"/>
        <path fill="#FFF" d="M146 75c0 21.539-17.237 39-38.5 39S69 96.539 69 75c0-21.54 17.237-39 38.5-39S146 53.46 146 75"/>
        <path fill="#FFF" stroke="#666" stroke-linecap="round" stroke-linejoin="round" stroke-width="2" d="M117 79s-2.399 14-9.5 14c-7.1 0-9.5-14-9.5-14s4.658 1.317 9.5 1.317c4.843 0 9.5-1.317 9.5-1.317z"/>
        <path fill="#666" d="M83 73.5a3.5 3.5 0 1 1-7 0 3.5 3.5 0 0 1 7 0"/>
        <path fill="#FFF" d="M80 73a1 1 0 1 1-2 0 1 1 0 0 1 2 0"/>
        <path fill="#666" d="M140 73.5a3.5 3.5 0 1 1-7 0 3.5 3.5 0 0 1 7 0"/>
        <path fill="#FFF" d="M137 73a1 1 0 1 1-2 0 1 1 0 0 1 2 0"/>
    </g>
</svg>
