<?xml version="1.0" encoding="UTF-8"?>
<svg width="320px" height="568px" viewBox="0 0 320 568" version="1.1" xmlns="http://www.w3.org/2000/svg" xmlns:xlink="http://www.w3.org/1999/xlink">
    <!-- Generator: Sketch 60.1 (88133) - https://sketch.com -->
    <title>00_01</title>
    <desc>Created with Sketch.</desc>
    <defs>
        <rect id="path-1" x="0" y="0" width="100" height="116" rx="5"></rect>
        <circle id="path-3" cx="160" cy="523" r="30"></circle>
        <filter x="-26.7%" y="-20.0%" width="160.0%" height="160.0%" filterUnits="objectBoundingBox" id="filter-4">
            <feOffset dx="2" dy="6" in="SourceAlpha" result="shadowOffsetOuter1"></feOffset>
            <feGaussianBlur stdDeviation="5" in="shadowOffsetOuter1" result="shadowBlurOuter1"></feGaussianBlur>
            <feColorMatrix values="0 0 0 0 0   0 0 0 0 0   0 0 0 0 0  0 0 0 0.1 0" type="matrix" in="shadowBlurOuter1"></feColorMatrix>
        </filter>
        <rect id="path-5" x="0" y="0" width="100" height="116" rx="5"></rect>
        <rect id="path-7" x="0" y="0" width="100" height="116" rx="5"></rect>
        <rect id="path-9" x="0" y="0" width="290" height="290" rx="5"></rect>
        <circle id="path-11" cx="70" cy="523" r="30"></circle>
        <filter x="-12.5%" y="-10.8%" width="128.3%" height="128.3%" filterUnits="objectBoundingBox" id="filter-12">
            <feOffset dx="1" dy="2" in="SourceAlpha" result="shadowOffsetOuter1"></feOffset>
            <feGaussianBlur stdDeviation="2.5" in="shadowOffsetOuter1" result="shadowBlurOuter1"></feGaussianBlur>
            <feColorMatrix values="0 0 0 0 0   0 0 0 0 0   0 0 0 0 0  0 0 0 0.05 0" type="matrix" in="shadowBlurOuter1"></feColorMatrix>
        </filter>
        <circle id="path-13" cx="250" cy="523" r="30"></circle>
        <filter x="-12.5%" y="-10.8%" width="128.3%" height="128.3%" filterUnits="objectBoundingBox" id="filter-14">
            <feOffset dx="1" dy="2" in="SourceAlpha" result="shadowOffsetOuter1"></feOffset>
            <feGaussianBlur stdDeviation="2.5" in="shadowOffsetOuter1" result="shadowBlurOuter1"></feGaussianBlur>
            <feColorMatrix values="0 0 0 0 0   0 0 0 0 0   0 0 0 0 0  0 0 0 0.05 0" type="matrix" in="shadowBlurOuter1"></feColorMatrix>
        </filter>
    </defs>
    <g id="00_01" stroke="none" stroke-width="1" fill="none" fill-rule="evenodd">
        <rect fill="#F5F5F5" x="0" y="0" width="320" height="568"></rect>
        <g id="c_category2" transform="translate(130.000000, 465.000000)">
            <g id="Group">
                <g id="Bitmap">
                    <mask id="mask-2" fill="white">
                        <use xlink:href="#path-1"></use>
                    </mask>
                    <use id="Mask" fill="#EDEDED" xlink:href="#path-1"></use>
                </g>
            </g>
        </g>
        <g id="Oval">
            <use fill="black" fill-opacity="1" filter="url(#filter-4)" xlink:href="#path-3"></use>
            <use fill="#FFFFFF" fill-rule="evenodd" xlink:href="#path-3"></use>
        </g>
        <text id="Categorias" font-family="CircularStd-Medium, Circular Std" font-size="16" font-weight="400" fill="#4D4D4D">
            <tspan x="15" y="451">Categorias</tspan>
        </text>
        <g id="c_category2" transform="translate(245.000000, 465.000000)">
            <g id="Group">
                <g id="Bitmap">
                    <mask id="mask-6" fill="white">
                        <use xlink:href="#path-5"></use>
                    </mask>
                    <use id="Mask" fill="#EDEDED" xlink:href="#path-5"></use>
                </g>
            </g>
        </g>
        <g id="c_category2" transform="translate(15.000000, 465.000000)">
            <g id="Group">
                <g id="Bitmap">
                    <mask id="mask-8" fill="white">
                        <use xlink:href="#path-7"></use>
                    </mask>
                    <use id="Mask" fill="#EDEDED" xlink:href="#path-7"></use>
                </g>
            </g>
        </g>
        <g id="c_search1" transform="translate(15.000000, 365.000000)">
            <rect id="Rectangle" fill="#EDEDED" fill-rule="evenodd" x="0" y="0" width="290" height="50" rx="5"></rect>
            <g id="icons/40px/search" transform="translate(245.000000, 5.000000)" fill="#4D4D4D" fill-rule="evenodd">
                <path d="M28.7263218,28.3059895 L24.2890139,23.6028508 C25.4299237,22.220693 26.0550349,20.4816557 26.0550349,18.6712425 C26.0550349,14.4413861 22.6781252,11 18.5275175,11 C14.3769098,11 11,14.4413861 11,18.6712425 C11,22.9010989 14.3769098,26.342485 18.5275175,26.342485 C20.0857136,26.342485 21.5705982,25.8635326 22.8401304,24.9543236 L27.3111485,29.6931503 C27.4980273,29.8909349 27.7493809,30 28.0187352,30 C28.2736889,30 28.5155513,29.9009409 28.6991573,29.7208335 C29.0892791,29.338272 29.1017158,28.7038936 28.7263218,28.3059895 Z M18.5275175,13.0011937 C21.5954718,13.0011937 24.0913347,15.5447109 24.0913347,18.6712425 C24.0913347,21.7977741 21.5954718,24.3412913 18.5275175,24.3412913 C15.4595632,24.3412913 12.9637002,21.7977741 12.9637002,18.6712425 C12.9637002,15.5447109 15.4595632,13.0011937 18.5275175,13.0011937 Z" id="Shape"></path>
            </g>
            <text id="Buscar" font-family="CircularStd-Book, Circular Std" font-size="14" font-weight="300" line-spacing="23"></text>
        </g>
        <g id="c_box-home1" transform="translate(15.000000, 65.000000)">
            <g id="Group-3">
                <g id="Captura-de-Tela-2019-02-11-às-19.18.25">
                    <mask id="mask-10" fill="white">
                        <use xlink:href="#path-9"></use>
                    </mask>
                    <use id="Mask" fill="#EDEDED" xlink:href="#path-9"></use>
                </g>
            </g>
        </g>
        <g id="c_header4">
            <g id="icons/40px/search" transform="translate(5.000000, 20.000000)" fill="#4D4D4D">
                <path d="M28.7263218,28.3059895 L24.2890139,23.6028508 C25.4299237,22.220693 26.0550349,20.4816557 26.0550349,18.6712425 C26.0550349,14.4413861 22.6781252,11 18.5275175,11 C14.3769098,11 11,14.4413861 11,18.6712425 C11,22.9010989 14.3769098,26.342485 18.5275175,26.342485 C20.0857136,26.342485 21.5705982,25.8635326 22.8401304,24.9543236 L27.3111485,29.6931503 C27.4980273,29.8909349 27.7493809,30 28.0187352,30 C28.2736889,30 28.5155513,29.9009409 28.6991573,29.7208335 C29.0892791,29.338272 29.1017158,28.7038936 28.7263218,28.3059895 Z M18.5275175,13.0011937 C21.5954718,13.0011937 24.0913347,15.5447109 24.0913347,18.6712425 C24.0913347,21.7977741 21.5954718,24.3412913 18.5275175,24.3412913 C15.4595632,24.3412913 12.9637002,21.7977741 12.9637002,18.6712425 C12.9637002,15.5447109 15.4595632,13.0011937 18.5275175,13.0011937 Z" id="Shape"></path>
            </g>
            <g id="icons/40px/cart" transform="translate(275.000000, 20.000000)" fill="#4D4D4D">
                <path d="M26.0422183,24.2315789 C27.5578463,24.2315789 28.7909382,25.4593328 28.7909382,26.9683996 C28.7909382,28.4775093 27.5578463,29.7052632 26.0422183,29.7052632 C24.5265473,29.7052632 23.2934554,28.4775093 23.2934554,26.9683996 C23.2934554,25.4593328 24.5265473,24.2315789 26.0422183,24.2315789 Z M16.1467492,24.2315789 C17.6624202,24.2315789 18.8954691,25.4593328 18.8954691,26.9683996 C18.8954691,28.4775093 17.6624202,29.7052632 16.1467492,29.7052632 C14.6310782,29.7052632 13.3979863,28.4775093 13.3979863,26.9683996 C13.3979863,25.4593328 14.6310782,24.2315789 16.1467492,24.2315789 Z M26.0422183,25.8736713 C25.4358121,25.8736713 24.9426873,26.3646614 24.9426873,26.9683996 C24.9426873,27.5721378 25.4358121,28.0631279 26.0422183,28.0631279 C26.6485815,28.0631279 27.1417063,27.5721378 27.1417063,26.9683996 C27.1417063,26.3646614 26.6485815,25.8736713 26.0422183,25.8736713 Z M16.1467492,25.8736713 C15.5403861,25.8736713 15.0472613,26.3646614 15.0472613,26.9683996 C15.0472613,27.5721378 15.5403861,28.0631279 16.1467492,28.0631279 C16.7531123,28.0631279 17.2462372,27.5721378 17.2462372,26.9683996 C17.2462372,26.3646614 16.7531123,25.8736713 16.1467492,25.8736713 Z M12.3602007,10 C12.7217464,10 13.0361659,10.2549834 13.1202995,10.616168 L13.823602,13.6387942 L29.1091408,13.6387942 C29.3495456,13.6387942 29.5764451,13.7522459 29.7243928,13.9467525 C29.8723405,14.141259 29.9252198,14.3946498 29.8676483,14.6343778 L27.9661568,22.5273379 C27.8799424,22.8853373 27.5668285,23.1368421 27.2076085,23.1368421 L15.0431712,23.1368421 C14.6816255,23.1368421 14.3672059,22.8821102 14.2830724,22.5206741 L11.7433982,11.6053393 L9.78143822,11.6053393 C9.34983559,11.6053393 9,11.2459988 9,10.8026696 C9,10.3593405 9.34983559,10 9.78143822,10 L12.3602007,10 Z M28.110718,15.2441335 L14.1971027,15.2441335 L15.6599737,21.5315028 L26.5962734,21.5315028 L28.110718,15.2441335 Z" id="Combined-Shape"></path>
            </g>
            <g id="icons/40px/share" transform="translate(235.000000, 20.000000)" fill="#4D4D4D">
                <path d="M18.9002162,11 L18.9002162,12.7837838 L12.7837838,12.7837838 L12.7837838,27.2162162 L27.2162162,27.2162162 L27.2162162,21.0997838 L29,21.0997838 L29,29 L11,29 L11,11 L18.9002162,11 Z M29,11 L29,18.2860657 L27.1438043,18.2860657 L27.1438043,14.1685781 L19.9954115,21.3169709 L18.6830291,20.0045885 L25.8314219,12.8561957 L21.7139343,12.8561957 L21.7139343,11 L29,11 Z" id="Combined-Shape"></path>
            </g>
            <g id="logo1-copy-8" transform="translate(90.000000, 22.000000)" fill="#EDEDED">
                <rect id="Rectangle" x="0" y="0" width="140" height="36" rx="5"></rect>
            </g>
        </g>
        <g id="Group-2" transform="translate(128.000000, 491.000000)" fill="#048DCC">
            <path d="M32,0 C14.326888,0 0,14.326888 0,32 C0,49.673112 14.326888,64 32,64 C49.673112,64 64,49.673112 64,32 C64,14.326888 49.673112,0 32,0 Z M32,2 C48.5685425,2 62,15.4314575 62,32 C62,48.5685425 48.5685425,62 32,62 C15.4314575,62 2,48.5685425 2,32 C2,15.4314575 15.4314575,2 32,2 Z" id="Oval" fill-rule="nonzero"></path>
            <path d="M28.2537122,23.2850242 L28.2537122,22.5320048 C28.2537122,20.1082458 30.1817643,18.1364734 32.5515867,18.1364734 C34.9214991,18.1364734 36.8495512,20.1082458 36.8495512,22.5320048 L36.8495512,23.2850242 L28.2537122,23.2850242 Z M26.1148131,25.8240127 C25.4040374,26.2036745 24.9449817,26.9563436 24.9449817,27.785628 C24.9449817,29.0119112 25.9340357,30.0096618 27.1498717,30.0096618 C28.3656177,30.0096618 29.3546717,29.0119112 29.3546717,27.785628 C29.3546717,26.9563436 28.895616,26.2036745 28.1848403,25.8240127 L28.1848403,25.3864734 L36.7806794,25.3864734 L36.7806794,25.8240127 C36.0699937,26.2036745 35.610848,26.9563436 35.610848,27.785628 C35.610848,29.0119112 36.599992,30.0096618 37.815738,30.0096618 C39.031484,30.0096618 40.020628,29.0119112 40.020628,27.785628 C40.020628,26.9563436 39.5615722,26.2036745 38.8507966,25.8240127 L38.8507966,25.3864734 L41.5035788,25.3864734 L43.3382713,42.8285024 L21.7649021,42.8285024 L23.5995945,25.3864734 L26.1148131,25.3864734 L26.1148131,25.8240127 Z M45.4871635,43.8012983 L43.4242486,24.2370682 C43.3660901,23.7032126 42.8974013,23.2850242 42.3573199,23.2850242 L38.9883603,23.2850242 L38.9883603,22.5320048 C38.9883603,18.9302083 36.1008735,16 32.5515867,16 C29.0022998,16 26.1148131,18.9302083 26.1148131,22.5320048 L26.1148131,23.2850242 L22.6425907,23.2850242 C22.1025993,23.2850242 21.6340005,23.703125 21.5754819,24.2385568 L19.5128371,43.8012983 C19.4671926,44.0686202 19.544077,44.3538919 19.7306162,44.6069414 C19.9119338,44.8530737 20.2158703,45 20.5438444,45 L44.4561562,45 C44.7841303,45 45.0880668,44.8530737 45.2692944,44.6071165 C45.4559236,44.3538043 45.532808,44.0685326 45.4871635,43.8012983 L45.4871635,43.8012983 Z" id="Fill-1"></path>
        </g>
        <g id="Oval">
            <use fill="black" fill-opacity="1" filter="url(#filter-12)" xlink:href="#path-11"></use>
            <use fill="#FFFFFF" fill-rule="evenodd" xlink:href="#path-11"></use>
        </g>
        <g id="Oval">
            <use fill="black" fill-opacity="1" filter="url(#filter-14)" xlink:href="#path-13"></use>
            <use fill="#FFFFFF" fill-rule="evenodd" xlink:href="#path-13"></use>
        </g>
        <g id="icons/40px/perfil" transform="translate(50.000000, 503.000000)" fill="#B2B2B3">
            <path d="M29.2218086,23.8075228 C27.8013882,22.3916403 26.1106732,21.3433891 24.2659715,20.708935 C26.1941427,19.3851233 27.47693,17.1909423 27.5373735,14.6999437 C27.6383742,10.5422805 24.2835027,7.06132486 20.1117292,7.00081371 C15.9033233,6.93965051 12.4602725,10.3344039 12.4602725,14.5156717 C12.4602725,17.0824396 13.758236,19.3525203 15.7340294,20.708935 C13.8893276,21.3433891 12.1986126,22.3916403 10.7780614,23.8075228 C8.57514733,26.0035295 7.2572976,28.8466404 7.00348757,31.9068871 C6.95455718,32.4962187 7.42685317,33 8.02016683,33 C8.55185961,33 8.99079397,32.5920714 9.03579946,32.0640335 C9.51359031,26.452277 14.2485866,22.0311817 20,22.0311817 C25.7512835,22.0311817 30.4862797,26.452277 30.9642014,32.0640335 C31.0092069,32.5920714 31.4480104,33 31.9797032,33 C32.5730169,33 33.0454437,32.4962187 32.9965133,31.9068871 C32.7425724,28.8466404 31.4247227,26.0035295 29.2218086,23.8075228 M14.4979484,14.5156717 C14.4979484,11.4915491 16.9661855,9.03119729 20.0000004,9.03119729 C23.0336845,9.03119729 25.5019217,11.4915491 25.5019217,14.5156717 C25.5019217,17.5396639 23.0336845,20.0000156 20.0000004,20.0000156 C16.9661855,20.0000156 14.4979484,17.5396639 14.4979484,14.5156717" id="Fill-1"></path>
        </g>
        <g id="icons/40px/feed" transform="translate(230.000000, 503.000000)" fill="#B2B2B3">
            <path d="M27.4698769,7 C28.9527095,7 30.1590909,8.21122 30.1590909,9.7 L30.1590909,9.7 L30.1590909,27.7 C30.1590909,29.18878 28.9527095,30.4 27.4698769,30.4 L27.4698769,30.4 L25.6770676,30.4 C25.537587,30.4 25.3926683,30.3661 25.2602992,30.29644 C25.2519327,30.292 25.2437456,30.28732 25.2354987,30.28264 C25.2289848,30.27892 25.2223514,30.27556 25.2158973,30.27172 L25.2158973,30.27172 L16.4647766,25 L15.756856,25 L15.756856,31.3 C15.756856,32.78878 14.5504746,34 13.067642,34 C11.5848094,34 10.378428,32.78878 10.378428,31.3 L10.378428,31.3 L10.378428,24.93544 C7.34164802,24.49738 5,21.8683 5,18.7 C5,15.22618 7.81488993,12.4 11.2748326,12.4 L11.2748326,12.4 L16.4647766,12.4 L25.2158375,7.12834 C25.2224111,7.12438 25.2291641,7.12096 25.2357975,7.11718 L25.2357975,7.11718 L25.2596418,7.10386 C25.3912938,7.03432 25.5350771,7.00096 25.6727051,7 L25.6727051,7 Z M13.9640466,25 L12.1712373,25 L12.1712373,31.3 C12.1712373,31.79626 12.5733644,32.2 13.067642,32.2 C13.5619195,32.2 13.9640466,31.79626 13.9640466,31.3 L13.9640466,31.3 L13.9640466,25 Z M27.4698769,8.8 L26.5734723,8.8 L26.5734723,28.6 L27.4698769,28.6 C27.9641544,28.6 28.3662816,28.19626 28.3662816,27.7 L28.3662816,27.7 L28.3662816,9.7 C28.3662816,9.20374 27.9641544,8.8 27.4698769,8.8 L27.4698769,8.8 Z M24.7806629,9.48958 L17.6094256,13.80958 L17.6094256,23.59048 L24.7806629,27.91048 L24.7806629,9.48958 Z M32.2696011,21.3832375 C32.6290693,21.0237693 33.2119011,21.0237693 33.571308,21.3832375 L33.571308,21.3832375 L35.412217,23.2241466 C35.7716852,23.5836148 35.7716852,24.1663852 35.412217,24.5258534 C35.0528102,24.8853216 34.469917,24.8853216 34.1105102,24.5258534 L34.1105102,24.5258534 L32.2696011,22.6849443 C31.910133,22.3254761 31.910133,21.7427057 32.2696011,21.3832375 Z M12.1712373,14.2 L11.2748326,14.2 C8.80344499,14.2 6.79280933,16.2187 6.79280933,18.7 C6.79280933,21.1813 8.80344499,23.2 11.2748326,23.2 L11.2748326,23.2 L12.1712373,23.2 L12.1712373,14.2 Z M15.8166163,14.2 L13.9640466,14.2 L13.9640466,23.2 L13.9640466,23.2 L15.8166163,23.2 L15.8166163,14.2 Z M34.7613636,18.0454545 C35.2697,18.0454545 35.6818182,18.4575727 35.6818182,18.9659091 C35.6818182,19.4742455 35.2697,19.8863636 34.7613636,19.8863636 L34.7613636,19.8863636 L32.9204545,19.8863636 C32.4121182,19.8863636 32,19.4742455 32,18.9659091 C32,18.4575727 32.4121182,18.0454545 32.9204545,18.0454545 L32.9204545,18.0454545 Z M34.1105102,12.7923267 C34.4699784,12.4328608 35.0528102,12.4328608 35.412217,12.7923267 C35.7716852,13.1517927 35.7716852,13.7345595 35.412217,14.0940254 L35.412217,14.0940254 L33.571308,15.934923 C33.2119011,16.2944503 32.629008,16.2943889 32.2696011,15.934923 C31.910133,15.5754571 31.910133,14.9926902 32.2696011,14.6332243 L32.2696011,14.6332243 Z" id="Combined-Shape"></path>
        </g>
    </g>
</svg>